<svg xmlns="http://www.w3.org/2000/svg" viewBox="0 0 4051.18 901.53"><defs><style>.cls-1{fill:#333;}</style></defs><title>资源 2</title><g id="图层_2" data-name="图层 2"><g id="图层_1-2" data-name="图层 1"><path class="cls-1" d="M79.06,71.46H193.58l31.32-47,70.48,55.79q8.81,7.85,8.81,12.24t-14.68,9.3q-14.68,4.91-23.5,14.68t-27.4,47L162.26,319.11q54.81,56.79,88.09,111.1T283.63,551.1q0,66.57-50.41,102.78t-64.11,36.21q-8.81,0-10.77-14.68-2.93-29.37-18.11-46.49T97.66,601l2-12.73q36.21,7.86,63.63,7.84T204.35,581q13.69-15.15,13.7-54.32,0-101.79-89.07-205.56L198.47,97.89H74.16V664.64q0,99.86,1.47,139.49t1.47,43.56q0,21.52-27.41,35.73T13.48,897.61q-16.66,0-12.73-37.19,7.82-76.35,7.83-217.31V178.16q0-87.1-3.91-161.51ZM682,350.05v170.7H410.89V365.61c0-26,23.08-35.16,21.29-45-2-11-88.83-49.08-88.83-49.08,2.6,35.89,3.91,57.71,3.91,101.42V690.1a1411.11,1411.11,0,0,1-8.81,153.68q-2,18.59,0,25.44c1.3,4.56,4.07,6.86,8.32,6.86s14.19-3.27,29.86-9.78,25.28-12.24,28.87-17.14,5.39-11.59,5.39-20.06V786H682V856.5q0,13.69,7.34,13.71t37.68-18.11Q757.4,834,757.4,820.28l-3.92-44q-2-27.42-2-61.66V365.71c0-15.1,23.31-31.26,23.31-34.86s-3.27-7.66-9.79-12.22l-83.86-48ZM407.18,115.51h72.23q-5.88,79.29-32.31,179.12h27.41q41.12-73.38,87.12-179.12h278q13.71,0,13.7-5.38T843.54,93L779.91,27.67,720.2,88.11h-313ZM682,758.62H410.89V548.16H682ZM3093.52,186c0,28.73,2.94,30.94,2.94,32.9q0,12.75-28.39,25.45t-36.22,12.73c-7.18,0-10.76-4.55-10.76-13.7S3024,216.67,3024,186H2832.17c0,24.81,2.93,34.89,2.93,36.18q0,17.63-24.46,26.43T2772,257.41c-9.48,0-14-8.85-12.24-26.43,2.44-24.37,3.92-30.37,3.92-45H2505v-27.4c24.13,3.92,258.71,0,258.71,0V92q0-40.15-3.92-92l88.1,39.16q12.7,5.88,12.72,10.77t-8.82,10.76l-19.57,14.7v83.2H3024V92q0-40.15-2.93-92l91,41.12c8.47,3.28,12.73,6.85,12.73,10.76s-3.6,8.5-10.77,13.71l-20.56,14.68v78.32M2694.16,533.48Q2607,648,2494.47,725.34l-12.73-9.8q183-190.86,280.94-413.07l61.66,40.14q14.67,7.84,14.68,15.16T2824.34,370q-14.67,4.9-34.26,33.78t-31.32,42.58V666.6q0,98.89,2,140t2,44q0,18.58-29.86,34.76t-37.68,16.15q-7.86,0-7.84-22.51,6.84-186,6.86-234.92Zm282,332.29c-.3-29.84-1.08-59.41-1.08-76.81V637.24q-96,51.88-188.92,80.26l-3.92-16.64A1346,1346,0,0,0,2975.08,588.3V471.82q0-78.31-4.89-161.51l91,45c6.51,2.61,9.79,6,9.79,10.28s-3.28,8-9.79,11.26l-19.58,12.72V538.38q113.54-92,187-183L3292.23,417q5.88,6.87,5.88,11.26t-13.72,6.37q-28.39,2-47,17.61Q3131.69,537.4,3041.64,597.1V802.33c0,12.09,19.22,24.17,7.14,36.26a225.39,225.39,0,0,1-54,40C2983.52,884.51,2976.23,872.86,2976.16,865.77Zm640.6-460.52h110.42v-276H3516.73q2,154.67-4.9,276l-1,31.33q-7.84,197.73-73.4,290.72T3180,890.76l-6.86-21.54q111.6-52.86,172.28-117.94t75.38-136.07q14.67-71,20.54-178.63l1-31.33q2.94-65.55,2.94-136.06t-2-140H3237.75V99.85h616.69L3919,30.56l79.28,83q4.89,5.88,4.9,10.77c0,3.28-4.9,4.89-14.68,4.89H3795.7v276h108.66L3969,336l79.28,84a25.13,25.13,0,0,1,2.94,11.25q0,5.4-12.72,5.39H3795.7V651.92q0,93,1.47,137.52t1.47,47.48q0,18.58-28.39,35.24t-39.64,16.64q-11.27,0-11.26-25.46l4.89-99.84q2.94-65.57,2.94-134.09V436.58H3616.76M2311.31,811.47l-73.42-77.11-66.56,74.18H1875.6c-.59-27.12-2.3-96,.18-108.36,2.92-14.62,29.24-46.79,80.42-58.49s131.59-60,176.92-114.05,48.25-83.35,39.48-100.89c1.46,8.77-17.55,10.23-38,14.62s-62.87-21.93-103.81,2.92-60,103.82-74.57,131.6-45.33,57-83.35,89.19c-1.46-14.62-2.92-90.65,2.93-157.91s45.32-172.54,45.32-176.93,11.7-5.85,23.4,2.93,20.47,29.24,55.56,39.48,79,5.85,81.89-4.39-8.78-8.77-17.55-24.86-2.93-38-32.17-59.95-76,0-74.57-7.31,8.77-14.62,29.24-27.78C2003,244,2092.18,263,2125.81,241.05s80.42-86.27,109.67-86.27,49.71-7.31,27.78-13.16-25.6-24-43.87-39.48c-58.49-49.71-134.52-55.56-204.71-19s-76,102.36-79,134.52-20.47,64.34-24.86,52.64,6-48.8-13.69-65.68c-72.15-62-24,25.47-12,41,8.79,11.41,14,56,5.22,71.47-6.21,10.94-20.47,55.57-27.78,81.89-20.47,1.46-36.56-14.63-43.87-29.25s-1.46-46.79-84.81-43.86-127.21,71.64-163.76,136c23.39-1.46,45.33,19,108.2,19s93.58-49.72,108.2-55.56,40.94-2.93,71.65,2.92c-11.45,54.4-24.3,244.76-19.35,380.33H1085.66V380.78h327.91c13,0,19.58-2.59,19.58-7.83s-3.6-12.06-10.77-20.56L1358.76,287l-61.67,67.32H1085.66V103.76l22.52-14.68q13.68-9.78,13.7-17.13c0-4.89-4.25-9-12.72-12.23L1005.4,19.59q3.89,53.83,3.9,107.68V808.54l-2.83,27.4h1295q16.65,0,16.64-7.34C2318.15,823.72,2315.86,818,2311.31,811.47Z"/></g></g></svg>