<svg xmlns="http://www.w3.org/2000/svg" viewBox="0 0 16.51 16.51"><defs><style>.cls-1{fill:#333;}</style></defs><title>资源 1</title><g id="图层_2" data-name="图层 2"><g id="图层_1-2" data-name="图层 1"><path class="cls-1" d="M6.07,16l-5.6-5.6a1.6,1.6,0,0,1,0-2.27L8,.66A2.28,2.28,0,0,1,9.62,0l5.2.11A1.61,1.61,0,0,1,16.4,1.68l.11,5.21a2.28,2.28,0,0,1-.66,1.64L8.34,16A1.6,1.6,0,0,1,6.07,16Zm9.1-14.7a.62.62,0,0,0-.37-.16L9.59,1.07a1.17,1.17,0,0,0-.86.35l-7.5,7.5a.54.54,0,0,0,0,.76l5.6,5.6a.54.54,0,0,0,.76,0l7.5-7.51a1.13,1.13,0,0,0,.35-.85l-.12-5.21A.52.52,0,0,0,15.17,1.34ZM9.33,7.18a2.57,2.57,0,1,1,3.63,0A2.57,2.57,0,0,1,9.33,7.18ZM12.2,4.3a1.5,1.5,0,0,0-2.12,2.12A1.5,1.5,0,0,0,12.2,4.3Z"/></g></g></svg>