<svg xmlns="http://www.w3.org/2000/svg" viewBox="0 0 168.23 15.56"><defs><style>.cls-1{fill:#333;}</style></defs><title>资源 2</title><g id="图层_2" data-name="图层 2"><g id="图层_1-2" data-name="图层 1"><path class="cls-1" d="M6.44,10.06c.12,0,.14,0,.06.13L4,13.44a6.23,6.23,0,0,0-1.19,1.44c-.08.12-.16.14-.25.06L1.44,13.81c-.09-.08-.09-.14,0-.19a5.37,5.37,0,0,0,1.5-.81L2.88,5.38H1.94a2.69,2.69,0,0,0-.44.06,2.48,2.48,0,0,0-.94.12L0,5.06,2.88,5l.62-.94,1.38.82q.12.06,0,.18l-.38.56-.38,6.26ZM2.12.25c1.26.42,2,.83,2.13,1.25s-.17.85-.75,1.31c-.29.13-.46.09-.5-.12A3.53,3.53,0,0,0,2,.44C2,.35,2,.29,2,.25A.07.07,0,0,1,2.12.25ZM8.56,2a11.45,11.45,0,0,0-1.68.12l-.5-.43,4.81-.13.62-.87,1.5.93c.09,0,.09.11,0,.19l-.43.63-.13,3.94.19.24c0,.13,0,.19-.06.19a31.73,31.73,0,0,0-3.82-.12H8.44l-.06.19-.26,5.43c-.08.63.17.92.76.88a10.4,10.4,0,0,0,3.93-.38,2.27,2.27,0,0,0,1.44-1.62c0-.09,0-.13.13-.13a.13.13,0,0,1,.06.19c-.25.92-.15,1.48.31,1.69.67.71.5,1.21-.5,1.5a13,13,0,0,1-2.13.31,28.8,28.8,0,0,1-3.06-.06,2.37,2.37,0,0,1-2.18-2.57l.06-4.37c0-.42,0-1-.06-1.63V5.5c0-.12,0-.17.12-.12l1.56.93,2.63-.06.06-4.31ZM25.33,3.56c-.59,0-1.15.11-1.69.19l-.5-.5h6.12V1.62l-.12-.5.75-.87,1.44.81c.12,0,.12.13,0,.25L31,1.88l-.06,3.81h1l1-1.07,1.19,1.19A.12.12,0,0,1,34,6l-6.37.06-.06,3.19.06,3.31c.08,1-.56,1.86-1.94,2.69a.49.49,0,0,1-.19.06.25.25,0,0,1-.06-.19c0-.7-.12-1.14-.5-1.31a.25.25,0,0,1-.06-.19s0,0,.12,0c.88.05,1.25-.14,1.13-.56V9.25c-.29.29-.71.67-1.25,1.13A22.08,22.08,0,0,0,22,13.25a1.09,1.09,0,0,1-.87.31c-.34,0-.44-.21-.31-.5a2.51,2.51,0,0,0,.37-1.94,1.86,1.86,0,0,0,1.56-.06A32,32,0,0,0,26.14,9V6.12H22.83c-.34,0-.73.09-1.19.13a5.22,5.22,0,0,1-.63.06l-.5-.5,8.75-.12V3.56Zm-1.19-2c-.59,0-1.15.11-1.69.19l-.5-.5,6.81-.13V1.5ZM22.2,7c1.38.42,2.08.92,2.13,1.5a.9.9,0,0,1-.57.94c-.46.16-.71.08-.75-.25a2.87,2.87,0,0,0-.87-2.07C22.05,7,22.08,7,22.2,7Zm5.63-.06h.06A9.77,9.77,0,0,0,29,9.06a21.43,21.43,0,0,0,2.5-2.31l1.13,1.19c.08.12,0,.21-.13.25A32,32,0,0,0,29,9.25c.79,1.13,2.46,2.27,5,3.44.09,0,.11.08.07.12a.21.21,0,0,1-.19.13c-.59-.13-1.29.23-2.13,1.06C29.85,12.75,28.53,10.4,27.83,6.94ZM44.46,9.06a2.86,2.86,0,0,0-.5.06,3.47,3.47,0,0,0-1.12.13l-.57-.56h3.44V4.38L43,4.44a9.69,9.69,0,0,1-4.31,6.75c-.17.08-.21,0-.13-.13Q41.83,8.69,42,2.12l1.5.57c.13,0,.13.08,0,.25l-.31.37a4.13,4.13,0,0,1-.19.75L45.71,4V2.94L45.65.12l1.75.5c.12.05.12.13,0,.26a1.32,1.32,0,0,0-.31.62V4h2.37l.94-.94,1.12,1.06c.09,0,.07.11-.06.19l-4.37.07V8.69l2.12-.07.88-.87,1.18,1c.09.08.09.15,0,.19L47.09,9v4.5h4.37l.94-.94,1.25,1c.08.09.06.13-.06.13l-13.13.19c-.58,0-1.14.1-1.69.18l-.43-.5,7.37-.06V9.06Zm13.7-4.25q2.07.57,2.19,1.44a1.08,1.08,0,0,1-.69,1,.62.62,0,0,1-.75-.31A2.9,2.9,0,0,0,58,5V4.94C58,4.81,58,4.77,58.16,4.81Zm4.13.31-1.56,6.94a4.11,4.11,0,0,0-.13,1.06,1.26,1.26,0,0,0,.19.69c.16.42.14.71-.06.88a1.69,1.69,0,0,1-1.19.56c-.29,0-.42-.17-.38-.63a3.09,3.09,0,0,0,.13-1.12q.06-.5-.63-.81c-.08-.09-.08-.15,0-.19.46.08.75,0,.88-.38l2.5-7C62.16,5,62.25,5,62.29,5.12ZM59.66.56c1.63.46,2.42,1,2.38,1.5a1.1,1.1,0,0,1-.75,1.13c-.38.08-.61,0-.69-.31a3.4,3.4,0,0,0-1-2.13.18.18,0,0,1-.06-.13S59.58.56,59.66.56Zm8.32,2-.07.82-.12,1.93,2.81-.06.81-.87,1.07,1q.12.12,0,.18l-4.75.13-.19,3.37L68.85,9l.75-.88L71,9c.08,0,.08.1,0,.19l-.32.5.07,3.62.12.25c.08.17,0,.25-.19.25-1.25-.12-3-.19-5.37-.19v.82c-.42.75-.84,1-1.25.75L64,8.56q0-.12.06-.12s0,0,.12,0l1.07.68,1.25-.06V5.69H64.79a6.42,6.42,0,0,0-1.63.25l-.56-.56,3.88-.07v-3L65,2.5l-1.57.19c-.12,0-.14-.07-.06-.19A42.61,42.61,0,0,0,69.6.44l.94,1.25a.17.17,0,0,1,.06.12s0,.07-.12.07l-.88.06-2.44.31ZM65.23,9.44l.06,3.94L69,13.31l-.06-4ZM79.3,15.56l-.19-.06c1.09-.71,1.56-1.42,1.44-2.12H80.3c-.75-.05-1.15-.38-1.19-1s.44-1,1.19-1,1.19.54,1.19,1.62A3.7,3.7,0,0,1,79.3,15.56Zm23.14-5.5c.12,0,.14,0,.06.13L100,13.44a6.23,6.23,0,0,0-1.19,1.44c-.08.12-.16.14-.25.06l-1.12-1.13c-.09-.08-.09-.14,0-.19a5.37,5.37,0,0,0,1.5-.81l-.06-7.43h-.94a2.69,2.69,0,0,0-.44.06,2.48,2.48,0,0,0-.94.12L96,5.06,98.88,5l.62-.94,1.38.82q.12.06,0,.18l-.38.56-.38,6.26ZM98.12.25c1.26.42,2,.83,2.13,1.25s-.17.85-.75,1.31c-.29.13-.46.09-.5-.12A3.53,3.53,0,0,0,98,.44c0-.09,0-.15,0-.19A.07.07,0,0,1,98.12.25ZM104.56,2a11.45,11.45,0,0,0-1.68.12l-.5-.43,4.81-.13.62-.87,1.5.93c.09,0,.09.11,0,.19l-.43.63-.13,3.94.19.24c0,.13,0,.19-.06.19a31.73,31.73,0,0,0-3.82-.12h-.62l-.06.19-.26,5.43c-.08.63.17.92.76.88a10.4,10.4,0,0,0,3.93-.38,2.27,2.27,0,0,0,1.44-1.62c0-.09,0-.13.13-.13a.13.13,0,0,1,.06.19c-.25.92-.15,1.48.31,1.69.67.71.5,1.21-.5,1.5a13,13,0,0,1-2.13.31,28.8,28.8,0,0,1-3.06-.06,2.37,2.37,0,0,1-2.18-2.57l.06-4.37c0-.42,0-1-.06-1.63V5.5c0-.12,0-.17.12-.12l1.56.93,2.63-.06.06-4.31Zm16.77,1.56c-.59,0-1.15.11-1.69.19l-.5-.5h6.12V1.62l-.12-.5.75-.87,1.44.81c.12,0,.12.13,0,.25l-.38.57-.06,3.81h1l1-1.07,1.19,1.19A.12.12,0,0,1,130,6l-6.37.06-.06,3.19.06,3.31c.08,1-.56,1.86-1.94,2.69a.49.49,0,0,1-.19.06.25.25,0,0,1-.06-.19c0-.7-.12-1.14-.5-1.31a.25.25,0,0,1-.06-.19s0,0,.12,0c.88.05,1.25-.14,1.13-.56V9.25c-.29.29-.71.67-1.25,1.13A22.08,22.08,0,0,0,118,13.25a1.09,1.09,0,0,1-.87.31c-.34,0-.44-.21-.31-.5a2.51,2.51,0,0,0,.37-1.94,1.86,1.86,0,0,0,1.56-.06A32,32,0,0,0,122.14,9V6.12h-3.31c-.34,0-.73.09-1.19.13a5.22,5.22,0,0,1-.63.06l-.5-.5,8.75-.12V3.56Zm-1.19-2c-.59,0-1.15.11-1.69.19l-.5-.5,6.81-.13V1.5ZM118.2,7c1.38.42,2.08.92,2.13,1.5a.9.9,0,0,1-.57.94c-.46.16-.71.08-.75-.25a2.87,2.87,0,0,0-.87-2.07C118.05,7,118.08,7,118.2,7Zm5.63-.06h.06A9.77,9.77,0,0,0,125,9.06a21.43,21.43,0,0,0,2.5-2.31l1.13,1.19c.08.12,0,.21-.13.25A32,32,0,0,0,125,9.25c.79,1.13,2.46,2.27,5,3.44.09,0,.11.08.07.12a.21.21,0,0,1-.19.13c-.59-.13-1.29.23-2.13,1.06C125.85,12.75,124.53,10.4,123.83,6.94Zm22-4.56,1.37.74c.13.09.13.19,0,.32l-.31.44.19,8.5a2.71,2.71,0,0,1-1.44,2.37c-.17.08-.27.1-.31.06s-.13-.16-.13-.37a2.73,2.73,0,0,0-.25-1.13l-6.5.07a3.39,3.39,0,0,1-1,1.74.49.49,0,0,1-.31.19.25.25,0,0,1-.13-.25l.07-9.75c0-.37,0-.93-.07-1.69V2.5c0-.08,0-.12.07-.12l1.43.68v.32l6.63-.13Zm-7.38,1.37V6.38L144,6.25c.13,0,.19.1.19.19a.18.18,0,0,1-.12.25l-5.63.06V9.44l5.63-.13c.12.09.18.17.18.25s-.06.15-.18.19l-5.63.13v3.06l6.69-.06a1,1,0,0,0,.12-.5l-.12-8.69ZM142.15,0l.94,1.12a.19.19,0,0,1-.13.26c-1.29.58-2.66,1.14-4.12,1.68-.09,0-.11,0-.07-.12A12.78,12.78,0,0,0,142.15,0ZM157.6,2.31a6.29,6.29,0,0,0-1.69.19l-.5-.5,8-.19.82-.87,1.56.94q.18.06,0,.24l-.5.57-.06,3.87.12.25a.13.13,0,0,1-.06.19,35.12,35.12,0,0,0-3.94-.12L158,6.94l-.07.25-.25,4.75c-.12.62.13.94.75.94a22.5,22.5,0,0,0,7.32-.38,2.51,2.51,0,0,0,1.56-1.75.21.21,0,0,1,.19-.13.13.13,0,0,1,.06.19c-.13.92,0,1.5.25,1.75.71.71.56,1.21-.44,1.5a24.84,24.84,0,0,1-8.81.25q-2.19-.44-2.25-3l.06-3.25c0-.41,0-1-.06-1.62V5.81q0-.18.12-.12l1.63.87,5.44-.12.06-4.19V2.19Z"/></g></g></svg>