<?xml version="1.0" encoding="utf-8"?>
<!-- Generator: Adobe Illustrator 22.1.0, SVG Export Plug-In . SVG Version: 6.00 Build 0)  -->
<svg version="1.1" id="图层_1" xmlns="http://www.w3.org/2000/svg" xmlns:xlink="http://www.w3.org/1999/xlink" x="0px" y="0px"
	 viewBox="0 0 499 74" style="enable-background:new 0 0 499 74;" xml:space="preserve">
<style type="text/css">
	.st0{fill:#2F353E;}
</style>
<path class="st0" d="M9.9,14.8c0.2-0.1,0.2,0,0.2,0.2l-3,4.5c-0.2,0.3-0.5,0.7-1,1.2c-0.3,0.4-0.5,0.7-0.7,0.8
	c-0.1,0.2-0.2,0.2-0.3,0.2l-1.7-1.5C3.4,20.1,3.3,20,3.4,20c0.3-0.1,0.8-0.4,1.4-0.9c0.2-0.2,0.3-0.3,0.5-0.4L5.2,8.3L3.6,8.4
	c-0.6,0-1.3,0.1-2,0.2L0.8,7.9L5,7.8l0.9-1.2l1.9,1.2c0.1,0,0.1,0.1,0,0.2L7.2,8.7l-0.5,8.7L9.9,14.8z M3.9,1.1
	C5.7,1.8,6.8,2.4,6.9,3c0.2,0.8-0.2,1.4-1,2.1c-0.4,0.1-0.7,0-0.8-0.3C4.8,3.1,4.3,1.9,3.7,1.3C3.6,1.1,3.7,1.1,3.9,1.1z M9.7,11.5
	c-0.2-0.2-0.2-0.4,0-0.6l7.5-0.2l0.9-1l2.2,1.5c0.1,0.1,0.1,0.2,0,0.3l-1,0.8c-1.1,1.8-2.5,3.4-4.1,5c2.4,1.8,5.2,3.1,8.2,3.8
	c0.1,0.1,0.1,0.1,0.2,0.2c-0.1,0.1-0.1,0.1-0.2,0.1c-1.2,0-2.4,0.6-3.6,1.9c-2.4-1.3-4.4-2.9-5.9-4.8c-2.2,1.9-4.8,3.6-7.6,5.1
	c-0.1,0.1-0.2,0.1-0.3,0c-0.1-0.1-0.1-0.2,0-0.3c2.9-1.7,5.2-3.7,7.1-5.9c-1.1-1.7-1.9-3.6-2.3-5.8L9.7,11.5z M18.8,2.2
	c0.1,0,0.1,0.1,0,0.2l-0.6,0.9l-0.9,3c-0.1,0.6,0,0.9,0.4,0.9c1,0.1,2-0.2,3.1-0.7c0.2-0.1,0.4-0.2,0.5-0.1l0.1,0.1
	c0.6,0.4,1,0.8,1.4,1.4c0.2,0.2,0.1,0.4-0.4,0.6C21.1,9,19.7,9.2,18.1,9c-1.8-0.2-2.6-1.2-2.4-3.2l0.3-3l-3,0.1
	c0.2,3.3-1.2,6-4.4,8.3c-0.2,0.1-0.3,0-0.3-0.3c1.9-1.8,2.9-4,2.8-6.7V1.1l1.9,1.3v0.1l2.8-0.2L16.6,1L18.8,2.2z M17,11.2l-5.9,0.2
	c0.4,1.7,1.3,3.3,2.8,4.8C15,14.8,16,13.1,17,11.2z M39,15.1c0.2-0.1,0.2,0,0.2,0.2L35,20.4c-0.3,0.2-0.7,0.7-1.2,1.4
	c-0.2,0.3-0.4,0.5-0.6,0.7c-0.1,0.2-0.2,0.2-0.3,0.2L31.2,21c-0.1-0.1-0.1-0.2,0-0.4c0.4,0,0.9-0.2,1.7-0.8
	c-0.6,0.4-0.5,0.4,0.2-0.1V8.5l-1.6,0.1c-0.8,0-1.5,0.1-2.1,0.3l-0.8-0.8L32.9,8l1-1.2L35.8,8c0.1,0.1,0.1,0.1,0,0.2l-0.6,0.8
	L35,18.4L39,15.1z M31.7,1.1c1.7,0.6,2.8,1.3,3.3,2.1c0.2,0.6-0.1,1.3-1.1,2.2c-0.4,0.2-0.8,0.2-0.9-0.1c-0.4-1.8-0.9-3.1-1.5-3.9
	C31.5,1.2,31.5,1.1,31.7,1.1z M44.9,2.1l-0.3,1v5.7l3-0.1l1.2-1.4l1.6,1.5L50.5,9c-0.1,0.1-0.1,0.1-0.2,0.1l-5.7,0.2l-0.1,7.2
	l0.2,4.1c-0.2,1.1-0.9,2.1-2.1,2.9c-0.2,0.1-0.3-0.1-0.4-0.6l0.1-4.2V9.4l-2,0.1c-1.1,0-1.9,0.1-2.5,0.3L37,9l5.3-0.2l0.1-3.8
	l-0.2-4.3l2.5,1C44.8,1.8,44.9,1.9,44.9,2.1z M65.5,5.2l2,1c0.2,0.1,0.2,0.2,0.1,0.3l-0.7,0.8c-0.4,3.8-1.3,6.7-2.6,8.9
	c1.5,0.8,2.5,1.5,3,2c0.3,0.9,0.1,1.8-0.6,2.4c-0.4,0.2-0.7,0.2-0.9-0.1c-0.6-1.1-1.3-2.1-2.3-3c-1.3,1.9-3.8,3.9-7.6,6.1
	c-0.2,0-0.2-0.1-0.2-0.3c3.4-2.2,5.6-4.5,6.8-6.7c-1.1-0.9-2.1-1.5-3.2-1.9L60.4,7H60c-0.2,0-0.6,0-1.1,0.1
	c-0.5,0.1-0.9,0.1-1.2,0.2L57,6.6h3.4L60.7,4C60.9,2.4,61,1.3,61,0.8l2.4,0.8c0.1,0,0.1,0.1,0,0.3l-0.4,0.5l-0.9,4.1l2.5-0.1
	L65.5,5.2z M60.5,14.6c0.2,0.1,0.5,0.2,1,0.4c0.6,0.3,1.1,0.4,1.4,0.6c1-2.4,1.6-5.2,1.9-8.6L62.1,7L60.5,14.6z M74.4,4l2.2,1.3
	c0.1,0,0.1,0.1,0,0.2l-0.6,0.8L76.2,17l0.1,0.3c0.1,0,0.1,0,0,0.1c-1.4,0-3.3,0-5.7,0.1v1.9c-0.1,0.9-0.5,1.8-1.4,2.6
	c-0.3,0.2-0.5,0.2-0.6-0.1l0.1-5.2l0.1-10.1c0-0.3,0-0.9-0.1-1.7c0-0.4,0-0.6,0-0.8c0-0.1,0.1-0.1,0.2-0.1l1.8,1.3l2.9-0.1L74.4,4z
	 M70.6,5.7V17l3.4-0.1L73.8,5.7H70.6z M92.7,1.3V1C92.7,1,92.8,1,92.9,1l2.8,1.5c0.2,0.1,0.2,0.3,0,0.4l-0.3,0.3
	c-0.2,7.4,3.4,13.1,11,17.1c0.2,0.1,0.2,0.3-0.1,0.4c-0.9-0.1-2.1,0.3-3.4,1.2c-3-2.2-5.1-4.6-6.2-7.2c-1.1-2.2-1.7-5.9-1.9-11.2
	l-0.2,0.1c-0.2,8.7-4,15.2-11.3,19.6c-0.1,0.1-0.2,0.1-0.3,0c0-0.1,0-0.2,0.1-0.3c3.8-2.9,6.2-5.7,7.4-8.6
	C91.9,11.4,92.6,7.1,92.7,1.3z M120.3,14c-0.2,0-0.4,0-0.8,0.1c-0.8,0-1.4,0.1-1.7,0.2l-0.8-0.8h5.2V6.9L118,7
	c-0.6,4.2-2.8,7.6-6.5,10.1c-0.2,0.1-0.3,0.1-0.2-0.2c3.3-2.4,5.1-6.8,5.2-13.4l2.2,0.8c0.2,0,0.2,0.1,0,0.4l-0.5,0.6
	c-0.1,0.4-0.2,0.8-0.3,1.1l4-0.1V4.8L122,0.6l2.6,0.8c0.2,0.1,0.2,0.2,0,0.4s-0.3,0.5-0.5,0.9v3.8h3.6l1.4-1.4l1.7,1.6
	c0.1,0.1,0.1,0.2-0.1,0.3l-6.6,0.1v6.5l3.2-0.1l1.3-1.3l1.8,1.5c0.1,0.1,0.1,0.2,0,0.3l-6.3,0.1v6.8h6.6l1.4-1.4l1.9,1.5
	c0.1,0.1,0.1,0.2-0.1,0.2l-19.7,0.3c-0.9,0.1-1.7,0.2-2.5,0.3l-0.7-0.8l11.1-0.1V14H120.3z M142.5,23.7l-0.3-0.1
	c1.6-1.1,2.3-2.1,2.2-3.2H144c-1.1-0.1-1.7-0.6-1.8-1.5c0.1-0.9,0.7-1.4,1.8-1.5c1.2,0,1.8,0.8,1.8,2.4
	C145.4,21.6,144.3,22.8,142.5,23.7z M165.9,16.5c-0.2,0.1-0.2,0-0.1-0.2c2.8-2.8,5.2-6.5,7-11l1.7,1.3c0.2,0.1,0.2,0.3,0,0.5
	l-0.2,0.3c-0.6,1-1.3,1.9-2.1,2.8l0.2,9.8c-0.1,0.9-0.5,1.8-1.3,2.8c-0.1,0.1-0.2,0.2-0.3,0.2c-0.1-0.1-0.2-0.2-0.2-0.3l0.1-6.3V12
	c-0.9,1.1-2.5,2.5-4.6,4.2C166,16.3,166,16.4,165.9,16.5z M173,0.6l1.4,1.4c0.1,0.1,0.2,0.2,0.2,0.3c0,0.1-0.1,0.2-0.3,0.3
	c-1.7,1.5-3.8,2.9-6.5,4.3c-0.1,0-0.2-0.1-0.1-0.2C170,4.8,171.8,2.8,173,0.6z M185.1,5l0.8-0.8l2.1,1.7c0.2,0.2,0.2,0.3-0.1,0.5
	c-1.1,0.1-2.1,0.6-3,1.4c-0.1,0.1-0.2,0.1-0.2-0.2l0.5-2.1l-3.1,0.1l-0.2,5.2h1.6l1.1-1l1.8,1.3c0.1,0.1,0.1,0.2,0,0.3l-0.7,0.6
	c-0.9,2.2-2.1,4.2-3.6,5.8c1.7,1.6,4,2.8,6.7,3.8c0.2,0.1,0.2,0.2-0.1,0.4c-0.8-0.1-1.7,0.4-2.7,1.5c-2.1-1.2-3.8-2.7-5.1-4.4
	c-1.8,1.6-4,3.2-6.8,4.7c-0.1,0.1-0.2,0.1-0.3,0c-0.1-0.1,0-0.2,0.1-0.3c2.6-1.5,4.6-3.4,6.2-5.6c-1-1.9-1.8-4-2.2-6.5H177
	c0,5.2-1.8,9.3-5.3,12.5c-0.1,0-0.2,0-0.2-0.1c-0.1-0.1,0-0.1,0.1-0.2c1.4-1.6,2.4-3.3,2.8-5.2c0.5-1.7,0.7-4.9,0.7-9.4V6.8
	c0-1.3,0-2.2,0-2.5c0-0.2,0.1-0.2,0.2-0.1l1.8,0.9l3-0.1l0.1-1.5c-0.1-1.2-0.1-2.2-0.1-2.8l2.4,0.7c0.2,0.1,0.3,0.2,0.1,0.5
	c-0.2,0.3-0.4,0.7-0.5,1.4v1.8L185.1,5z M177,9.8c0,0.4,0,0.8,0,1.1h2.9l0.1-5.3l-3,0.2V9.8z M183.4,11.2l-5.2,0.1
	c0.6,1.9,1.5,3.6,2.8,5.2C182.1,14.8,182.9,13.1,183.4,11.2z M205.4,8.8c0.2,0.1,0.2,0.3,0,0.4L203,9.5l-0.1,9.5l2.2-0.6
	c0.1,0,0.2,0,0.3,0.1c0,0.1,0,0.1-0.1,0.2l-6.7,2.6c-0.2,0.1-0.5,0.2-0.8,0.4c-0.9,0.4-1.5,0.8-1.9,1c-0.2,0.1-0.4,0.1-0.5,0
	l-1.1-1.8c-0.2-0.1-0.2-0.2,0-0.3c1,0,2.1-0.2,3.3-0.5h0.2l-0.1-11.3c0-0.4,0-1-0.1-1.7c0-0.9,0-1.5-0.1-1.8l2.2,0.9
	c0.1,0.1,0.1,0.2,0,0.4l-0.5,0.7l-0.2,12.6l2.3-0.6l-0.1-14.8c0-1.2-0.1-2.4-0.2-3.5l2.3,1c0.1,0.1,0.1,0.2,0,0.3L203.1,3L203,9
	L205.4,8.8z M212.1,6.1l1.3,1.5c0.1,0.1,0.1,0.2,0.1,0.3c-0.1,0.1-0.2,0.1-0.3,0.1c-0.5,0.1-1.4,0.4-2.8,0.8
	c-1.2,0.3-2.1,0.5-2.7,0.7l-0.1,8.7c-0.2,1.4,0.3,2,1.6,1.9c1.2,0.1,2.5,0,3.9-0.3c0.8,0,1.4-0.8,1.9-2.4c0-0.1,0.1-0.2,0.2-0.1
	c0.1,0,0.2,0.1,0.2,0.2c-0.1,1.1,0,1.8,0.4,2.2c0.9,0.8,0.8,1.5-0.4,2.1c-1.8,0.7-3.9,0.9-6.3,0.6c-2.2-0.2-3.3-1.7-3.2-4.4
	l0.1-13.2c0-1.1-0.1-2.3-0.2-3.7l2.5,1.1c0.1,0,0.1,0,0.2,0.1c-0.1,0.1-0.1,0.1-0.2,0.2l-0.5,0.6l-0.1,6.1
	C209.3,8.2,210.8,7.3,212.1,6.1z M227.1,5.2c-0.9,0-1.6,0.1-2.2,0.3l-0.8-0.8h3.3l-0.2-4l2.4,0.8c0.1,0.1,0.1,0.2,0,0.3
	c-0.2,0.2-0.3,0.5-0.4,0.9l-0.1,2h0.8l0.9-1l1.2,1.2v0.1c0.5-0.8,1-1.5,1.4-2.2l1.4,1.3c0.1,0.1,0.1,0.2-0.1,0.3l-0.5,0.5
	c-1.1,1.4-2.2,2.7-3.2,3.8h1.1l1.1-1.2l1.4,1.4l0.1,0.1c0,0.1-0.1,0.1-0.2,0.2l-4.1,0.1c-1.1,1.1-2.3,2.2-3.5,3.2l3.5-0.1l0.9-1.1
	l1.9,1.1c0.1,0.1,0.1,0.3,0,0.4l-0.6,0.8V19c0,1.2-0.5,2.2-1.5,3.2c-0.4,0.2-0.6,0.2-0.6-0.1c-0.1-0.9-0.3-1.5-0.7-1.8l-3.2,0.1
	c-0.2,0.8-0.6,1.5-1.1,2c-0.2,0.3-0.4,0.3-0.6,0l0.1-8.7c-1.3,0.9-2.6,1.9-4.1,2.8c-0.1,0.1-0.1,0.1-0.2,0c-0.1-0.1-0.1-0.2,0-0.3
	c1.6-1.1,3.1-2.2,4.3-3.4l0.1-1.3l0.8,0.5c0.9-0.9,1.8-1.9,2.6-2.8l-3.3,0.1c-1,0-1.8,0.1-2.2,0.2l-0.8-0.7l4.9-0.1V5.2H227.1z
	 M226.9,12.8v3.2l3.2-0.2c0.2,0,0.3,0.1,0.3,0.2c-0.1,0.2-0.2,0.3-0.3,0.3l-3.2,0.1V20l3.8-0.1c0-0.1,0-0.2,0-0.3l0.1-7L226.9,12.8z
	 M232,5.1h-2.8l-0.1,3.6h0.3C230.3,7.4,231.2,6.3,232,5.1z M240.4,3l1-1l1.8,1.3c0.1,0.1,0.2,0.1,0.2,0.2l-0.2,0.2l-0.7,0.7
	l-3.4,5.5c2.9,2.4,4.2,4.6,4,6.5c-0.1,1.5-1.1,2.6-3,3.2c-0.1,0.1-0.2,0-0.2-0.2c0.1-1-0.2-1.6-0.8-1.7c-0.1-0.2-0.1-0.3,0.1-0.3
	c1.2,0.1,1.7-0.1,1.6-0.6c0.2-2.6-0.5-4.8-2.3-6.8l1.8-6.5l-3.1,0.1l-0.2,12V20c-0.1,1.3-0.5,2.5-1.3,3.6c-0.4,0.3-0.7,0.3-0.7,0
	l0.2-6.3l0.3-16l1.7,1.1c0,0.1,0,0.1,0,0.2V3H240.4z M253.7,11.5c-1.2,0.1-2.1,0.2-2.6,0.3l-0.6-0.8l17.6-0.3l1.5-1.3l1.5,1.5
	c0.1,0.1,0,0.2-0.1,0.3l-9,0.1l-0.2,8.7c2.4,0.3,5.5,0.3,9.5,0c0.1,0,0.2,0,0.2,0.1c0,0.1,0,0.1-0.1,0.2c-1.3,0.2-2.2,1-2.7,2.3
	c-3.3,0-5.9-0.2-7.8-0.6c-1.7-0.5-3.2-2.2-4.6-5.2c-1.4,1.8-3.7,3.6-6.8,5.4c-0.1,0.1-0.2,0.1-0.3,0c-0.1-0.1-0.1-0.1,0-0.2
	c3.5-2.4,5.9-5.4,7.1-9.1c0.1-0.2,0.2-0.2,0.3-0.2l1.4,1c0.2,0.1,0.2,0.3,0,0.5c-0.4,0.8-0.9,1.5-1.5,2.2l0.4,0.5
	c0.9,1.3,1.9,2.2,3,2.5l0.1-8.1L253.7,11.5z M257.4,8.7c-0.2,0.4-0.6,0.8-1.1,1.2c-0.2,0.1-0.3,0.2-0.4,0.1c-0.1,0-0.1-0.1-0.1-0.3
	V2.9c0-0.7,0-1.2,0-1.7C255.8,1,255.8,1,256,1l1.5,0.7v0.4l6.1-0.2l0.7-0.8L266,2l0.1,0.1c0.1,0,0.1,0.1,0,0.2l-0.4,0.7v4.5
	c0,0.6-0.3,1.4-0.9,2.2c-0.3,0.4-0.6,0.4-0.8,0.1c-0.3-0.5-0.6-0.9-0.8-1.2L257.4,8.7z M263.6,2.2l-6.1,0.2V5l5.3-0.1
	c0.1,0,0.2,0.1,0.1,0.2c0,0.1-0.1,0.2-0.2,0.2l-5.2,0.1l-0.1,3l6.2-0.3V2.2z M267,13.9l0.8,1.6c0,0.2-0.1,0.3-0.4,0.2h-0.5
	c-1,0.1-2.3,0.1-3.8,0.1c-0.2-0.1-0.2-0.1-0.1-0.2C264.5,15.1,265.8,14.5,267,13.9z M280.9,10.9c-0.2,0-0.4,0-0.8,0.1
	c-0.9,0-1.5,0.1-1.8,0.2l-0.8-0.8h5.3l-0.1-5.6c0-1.3-0.1-2.5-0.2-3.6l2.9,1c0.1,0.1,0.1,0.2,0,0.4L285,3.2l-0.2,7.1l9.5-0.2
	l1.8-1.8l2.1,2c0.1,0.1,0,0.2-0.1,0.3l-9.2,0.1c0.7,4,3.8,7.3,9.5,9.9c0.1,0,0.2,0,0.2,0.1c0,0.1-0.1,0.1-0.3,0.1
	c-0.6-0.1-1.7,0.5-3.1,1.6c-3.9-2.4-6.2-6.3-6.8-11.6h-3.6l-0.3,8.3l4.4-2c0.2-0.1,0.2,0,0.2,0.2l-4.3,3.3c-1.1,0.8-2.1,1.6-2.8,2.3
	c-0.1,0.2-0.2,0.2-0.4,0l-1.8-1.7c-0.1-0.1-0.1-0.1-0.1-0.2c0-0.1,0-0.1,0.1-0.1c0.1,0,0.2,0,0.3-0.1c1.1-0.2,2-0.6,2.9-1l-0.1-9
	H280.9z M292.3,2l1.4,1.9c0.2,0.2,0.2,0.4-0.1,0.6c-1.6,1.2-4.3,3-8.2,5.4l-0.1-0.3C288.3,7.1,290.6,4.5,292.3,2z M313.5,12.2
	c0.2,0,0.3,0.1,0.3,0.2c0,0.1-0.1,0.2-0.3,0.3l-2.3,0.2l-0.2,5.4l3.2-0.9c0.2-0.1,0.3,0,0.1,0.2l-5.4,3.1c-0.9,0.4-1.6,0.9-2.2,1.3
	c-0.2,0.1-0.3,0.1-0.4,0l-1.1-1.8c-0.1-0.2-0.1-0.3,0.1-0.3c0.2,0,0.6-0.1,1.1-0.3c0.2-0.1,0.3-0.1,0.5-0.1l-0.1-5.3
	c0-0.4,0-0.9-0.1-1.5c0-0.8,0-1.3-0.1-1.6l1.9,0.8c0.1,0.1,0.1,0.2,0,0.3l-0.2,0.6l-0.1,6.5l1.3-0.4l-0.1-6.8c0-1.8,0-3-0.1-3.5
	l2.2,0.8c0.1,0.1,0.1,0.3,0,0.4l-0.3,0.7l-0.1,2.1L313.5,12.2z M312.1,1.9l1.8,1.1c0.1,0,0.1,0.1,0,0.2l-0.6,0.8l-0.1,3.9l0.1,0.2
	c0,0.1,0,0.2-0.1,0.2c-0.7-0.1-2.5-0.1-5.3,0.1c-0.1,0.5-0.4,1-0.9,1.6c-0.3,0.2-0.5,0.2-0.6-0.1l0.2-2.6V4.6c0-0.2,0-0.8-0.1-1.5
	c0-0.5,0-0.8,0-0.9c0-0.1,0.1-0.1,0.3,0l1.5,0.8l3.1-0.1L312.1,1.9z M308.1,3.4L308,7.9l3.3-0.1l0.1-4.6L308.1,3.4z M317,5.7
	c0.4,1,1,1.8,1.8,2.4c1.1-1.2,1.9-2.5,2.6-3.8l-4,0.2c-0.9,1.2-2.1,2.4-3.4,3.6c-0.2,0.1-0.2,0.1-0.2-0.1c1.6-2.2,2.8-4.6,3.8-7.3
	l1.7,1.1c0.1,0.1,0.1,0.2-0.1,0.3L319,2.4c-0.1,0.2-0.3,0.4-0.6,0.8c-0.2,0.4-0.4,0.7-0.6,0.8l3.7-0.2l1.1-1.1l1.9,1.5
	c0.2,0.1,0.2,0.3,0,0.4l-0.8,0.7c-1.2,1.4-2.4,2.7-3.7,3.8c1.7,0.9,4.1,1.8,7.2,2.6c0.1,0.1,0.1,0.1,0.2,0.2
	c-0.1,0.1-0.1,0.1-0.2,0.1c-1.1,0.1-2,0.7-2.9,1.8c-2.3-1-4.1-2.2-5.3-3.8c-2.2,1.8-4.6,3.4-6.9,4.7c-0.1,0.1-0.2,0-0.3-0.1
	c0-0.1,0-0.2,0.1-0.3c2.4-1.6,4.5-3.4,6.3-5.5c-0.6-0.9-1-1.9-1.4-3L317,5.7z M321,14.2l1-1.2l2.1,1.1c0.1,0.1,0.1,0.2,0,0.3
	l-0.6,0.8l0.1,4.7l0.2,0.4c0,0.2-0.1,0.3-0.2,0.3c-0.8-0.1-2-0.1-3.6,0c-1.3,0-2.3,0-3.3,0c-0.1,0.8-0.6,1.6-1.3,2.3
	c-0.2,0.2-0.3,0.2-0.5-0.1l0.1-4.3v-3.3v-2c0-0.1,0-0.1,0.1,0l1.7,1L321,14.2z M316.9,14.8l-0.1,5.2l4.3-0.1v-5.2L316.9,14.8z
	 M335.7,23.7l-0.3-0.1c1.6-1.1,2.3-2.1,2.2-3.2h-0.4c-1.1-0.1-1.7-0.6-1.8-1.5c0.1-0.9,0.7-1.4,1.8-1.5c1.2,0,1.8,0.8,1.8,2.4
	C338.6,21.6,337.5,22.8,335.7,23.7z M80.2,54.3c-1.1,0-2,0.1-2.8,0.2l-0.8-0.7l8.8-0.1v-3.2l2.6,0.7c0.2,0.1,0.2,0.3,0,0.5l-0.3,0.7
	l-0.1,1.4l6-0.1l1.5-1.4l1.6,1.5c0.1,0.1,0.1,0.2,0,0.3l-7.5,0.1l1.2,1.1c0.1,0.1,0.1,0.2-0.2,0.4c-0.3,0.3-0.8,0.7-1.5,1.1
	c-0.3,0.2-0.6,0.4-0.8,0.6c0.6,0.2,1.1,0.4,1.7,0.8c0.4,0.1,0.6,0.4,0.5,0.8c-0.1,0.3-0.3,0.7-0.7,1c-0.2,0.2-0.4,0.2-0.6-0.1
	c-0.1-0.1-0.2-0.1-0.3-0.2c-0.5-0.5-1.1-1-1.9-1.6c-0.3,0.2-0.8,0.5-1.5,0.8c-1,0.6-1.8,1-2.4,1.4c-0.1,0.1-0.2,0.1-0.2,0
	c-0.1-0.1,0-0.2,0.1-0.3c1.2-0.9,2.2-1.7,3.2-2.5c-0.9-0.7-1.9-1.2-2.8-1.7c-0.1-0.1-0.1-0.1,0.1-0.2c0.4,0.1,0.9,0.3,1.7,0.6
	c0.8,0.2,1.4,0.4,1.7,0.6c0.9-0.8,1.6-1.7,2.2-2.6L80.2,54.3z M88,65c2.2,1.3,3.2,2.3,3,3.1c-0.1,0.5-0.4,0.9-1,1.1
	c-0.6,0.2-0.9,0.1-0.9-0.4c0-0.1,0-0.3-0.1-0.6c0-0.5-0.1-0.9-0.2-1.1l-3.4,1.4c-0.1,0.1-0.3,0.1-0.5,0.2c-0.9,0.4-1.5,0.8-1.9,0.9
	c-0.1,0.1-0.2,0.1-0.4-0.2L81.7,68c-0.1-0.1-0.1-0.2,0-0.3c0.5,0,1,0,1.4-0.1c0.6-1.1,1.1-2.2,1.5-3.5l-4.2,0.1l0.1,6.4
	c-0.1,0.7-0.5,1.5-1.3,2.3c-0.2,0.2-0.3,0.2-0.4,0.2c-0.1-0.1-0.2-0.2-0.2-0.4l0.1-3.5v-3.8l-0.1-2.4c0-0.1,0.1-0.2,0.2-0.1l1.5,0.8
	l4.5-0.1c0.1-0.2,0.2-0.5,0.3-0.8c0.1-0.4,0.3-0.9,0.5-1.7l-3.5,0.1c-0.2,0.6-0.7,1.1-1.3,1.5c-0.3,0.1-0.5,0-0.5-0.2l0.1-4.2
	l-0.2-3.2l2.3,0.9c0.1,0.1,0.1,0.2,0,0.3l-0.3,0.6l-0.1,3.8l9.1-0.2v-2.4l-0.1-2.9l2.7,0.9c0.1,0.1,0.1,0.2,0.1,0.3l-0.5,0.8
	l-0.1,3.2l0.2,0.7c0.1,0.2,0.1,0.3,0,0.3c0,0.1-0.1,0.1-0.3,0.1c-0.9-0.1-2.8-0.2-5.7-0.2H86l1.9,0.8c0.1,0.1,0.1,0.2,0,0.3
	l-0.6,0.6c-0.2,0.2-0.4,0.5-0.6,0.8l5.3-0.1l0.8-1.1l2.2,1.1c0.1,0.1,0.1,0.2,0,0.3l-0.6,0.8l0.1,3.3l0.1,2.1
	c-0.1,1.5-1.1,2.6-3.1,3.3c-0.1,0-0.2-0.1-0.2-0.2c0-0.8-0.2-1.3-0.7-1.7c-0.1-0.1-0.1-0.2,0-0.3c1,0.2,1.5,0.1,1.4-0.4l-0.1-6.8
	l-5.7,0.1c-0.4,0.6-1.2,1.4-2.2,2.6c-0.2,0.3-0.4,0.6-0.6,0.8c0.4,0,0.8-0.1,1.1-0.2l3.8-0.6c-0.2-0.7-0.5-1.2-0.8-1.7
	C87.8,65,87.8,64.9,88,65z M108.3,53.5c-1.4,0.1-2.2,0.2-2.5,0.4l-0.9-0.8l15.4-0.2l1.4-1.4l1.7,1.6c0.1,0.2,0.1,0.3-0.1,0.3
	l-6.4,0.1l2,0.7c0.1,0.1,0.1,0.2,0,0.3l-0.5,0.7v6.5l3.1-0.1l1.6-1.7l1.8,2c0.1,0.1,0.1,0.1,0.1,0.2c0,0.1-0.1,0.1-0.2,0.1l-6.4,0.1
	v5.8v2.6c-0.2,1.1-0.9,2-2.2,2.7c-0.2,0-0.3-0.1-0.4-0.4l0.1-3.8V62l-3.6,0.1c0,4.9-3.1,8.8-9.4,11.6c-0.1,0.1-0.2,0-0.2-0.1
	c-0.1-0.1,0-0.2,0.1-0.3c4.9-2.6,7.3-6.3,7.3-11.2l-3.4,0.1c-1.1,0.1-2,0.2-2.5,0.3l-0.8-0.8l6.8-0.1v-0.7l0.1-4.3
	c0-0.4,0-0.9-0.1-1.6c0-0.7,0-1.2-0.1-1.5H108.3z M112.3,61v0.5h3.6l0.1-8.1l-5.2,0.1l1.9,0.7c0.1,0,0.1,0.1,0,0.3l-0.4,0.6V61z
	 M140.4,56.9l1.5,0.6l4.3-4.3l-10,0.4c-1.3,0.1-2.3,0.3-2.9,0.5l-0.9-0.8l14.2-0.6l1.3-1.2l2.4,2.2c0.1,0.1,0.2,0.2,0.1,0.4
	c-0.1,0.1-0.2,0.1-0.4,0.1c-1.4,0.1-4,1.3-7.7,3.6l0.9,0.3c0.1,0.1,0.1,0.2,0,0.3c-0.2,0.4-0.3,0.7-0.4,0.8l0.1,6.6V69
	c0.1,1.7-1.1,3.2-3.4,4.3c-0.2,0.1-0.4,0-0.5-0.3c0.1-1-0.3-1.8-1.1-2.4c-0.1,0-0.2,0-0.1-0.1c0-0.1,0.1-0.1,0.2-0.1
	c1.7,0.2,2.6-0.1,2.4-0.8l-0.1-8c-0.1-2.1-0.1-3.7-0.1-4.6C140.2,56.9,140.3,56.9,140.4,56.9z M157.7,62.2c-0.3,0.1-0.4,0.1-0.2-0.2
	c3.2-3.2,5.2-7.1,6.1-11.6l2.3,0.8c0.1,0.1,0.1,0.2,0,0.3l-0.3,0.4c0,0.1,0,0.2-0.1,0.3c0,0.1,0,0.1-0.1,0.2c2.3,1.4,3.5,2.4,3.7,3
	c-0.1,0.9-0.4,1.4-0.9,1.7c-0.4,0.2-0.7,0-0.8-0.6c-0.4-1.4-1-2.7-2-3.8c-0.9,1.9-1.9,3.6-3.2,5.1l3.7-0.1l0.8-0.8l1.2,1.1
	c0.1,0.1,0.1,0.1,0,0.1c0.1,0,0,0-0.1,0.1l-2.5,0.1l-0.3,3.2l1.8-0.1l1-1l1.2,1.1c0.1,0.1,0.1,0.2,0,0.3l-4.1,0.1l-0.3,3.2l1.1-0.1
	l0.8-0.9l1.8,0.9c0.1,0.1,0.1,0.2,0,0.3l-0.5,0.8v4.4l0.2,0.3c0,0.1,0,0.1-0.1,0.1c-0.2,0-0.5,0-1,0c-1.4,0-3,0-4.8,0
	c0,0.8-0.4,1.7-1.3,2.5c-0.2,0.1-0.3,0.2-0.4,0.1c-0.1,0-0.1-0.1-0.1-0.2l0.1-3.5l0.1-2.9c0-0.3,0-0.8-0.1-1.6c0-0.5,0-0.8,0-0.9
	c0-0.1,0.1-0.1,0.2-0.1l1.6,0.9l0.9-0.1v-3.1l-3.3,0.1c-0.1,0-0.2-0.1-0.2-0.3c0-0.1,0.1-0.2,0.2-0.2l3.3-0.1v-3.2l-1.4,0.1
	C160.6,59.6,159.2,60.9,157.7,62.2z M162.1,65.4v5l3.8-0.1l-0.1-5L162.1,65.4z M175.5,61c-0.2,0.2-0.4,0.4-0.4,0.8l-0.1,8
	c-0.1,1.6-0.9,2.8-2.4,3.6c-0.2,0-0.2-0.1-0.2-0.3c-0.1-0.9-0.5-1.4-1-1.6c-0.1-0.1-0.1-0.2,0-0.3c1.2,0,1.7-0.3,1.6-0.9v-9.9
	l-1.1,0.1c-1.1,0-2,0.1-2.6,0.3l-0.7-0.7l9-0.4l0.9-0.9l2.2,1.9c0.2,0.3,0.1,0.5-0.2,0.7c-1.2,0.1-2.2,0.4-3,0.9
	c-0.2,0.1-0.2,0-0.2-0.2l0.4-1.9l-3.9,0.2l1.7,0.6C175.5,60.8,175.5,60.8,175.5,61z M175.3,58c-0.1,0.6-0.4,1.1-0.8,1.5
	c-0.1,0.1-0.2,0.1-0.6-0.2c-1-1.7-2-2.9-3-3.6c-0.1-0.2-0.1-0.2,0.1-0.2c0.7,0.2,1.5,0.5,2.4,0.8l2.4-3.8l-6.4,0.3
	c-0.1-0.2-0.1-0.3,0-0.5l6.4-0.3l1-1l2.1,1.3c0.1,0.1,0.1,0.2,0,0.4l-0.9,0.6l-4.2,3.3c0.1,0.1,0.3,0.2,0.6,0.3
	c0.2,0.2,0.4,0.3,0.6,0.4C175.3,57.4,175.4,57.7,175.3,58z M207.4,69.3c0.2,0,0.2,0.1,0.1,0.4c-1.1,0.4-2,1.5-2.5,3.1
	c-4.3,0.1-7.7-0.1-10.3-0.5c-1.3-0.2-2.3-1.1-3.3-2.4c-0.2-0.4-0.5-0.5-0.8-0.1c-0.7,0.6-1.5,1.6-2.4,3.2c-0.1,0.2-0.2,0.2-0.4,0.1
	l-1-1.8c-0.1-0.1-0.1-0.2,0-0.3l3-2.2l0.3-8.3l-3.4,0.3c-0.2,0-0.3-0.1-0.4-0.3c0-0.2,0.1-0.3,0.3-0.4l3.4-0.2l0.8-1l1.8,1.2
	l0.2,0.1c0,0.1-0.1,0.2-0.2,0.3l-0.8,0.8l-0.2,7C192.1,71.1,197.4,71.4,207.4,69.3z M188.2,51.4c2.3,0.8,3.5,1.5,3.6,2.3
	c0.1,0.8-0.3,1.5-1,2c-0.6,0.2-0.9,0.1-1.1-0.4c-0.1-1.7-0.6-3-1.5-3.7c-0.1-0.1-0.1-0.2-0.1-0.3C188,51.3,188.1,51.3,188.2,51.4z
	 M203.2,50.8l1.4,1.8c0.1,0.2,0.1,0.3-0.1,0.3s-0.5,0-1,0.1c-1.6,0.2-3,0.3-4.1,0.5l1.5,0.5c0.1,0.1,0.1,0.2,0,0.4l-0.5,0.7
	l-0.2,2.4l3.8-0.1l1.2-1.2l1.7,1.5c0.1,0.1,0,0.2-0.2,0.3l-6.7,0.1l-0.3,4.1L202,62l0.8-1.2l2,1.1c0.1,0,0.1,0.1,0,0.2l-0.5,0.8
	l0.1,4.6l0.2,0.5c0.1,0.1,0.1,0.2,0,0.3c-0.1,0.1-0.2,0.1-0.3,0c-1.6-0.1-4-0.2-7.1-0.2c-0.5,0-0.8,0-1,0l0.1,0.5
	c-0.1,0.6-0.6,1.1-1.3,1.5c-0.2,0.1-0.4,0-0.5-0.2v-5.9l-0.1-2.5c0-0.2,0.1-0.2,0.2-0.1l1.6,0.9l1.8-0.1l0.3-4.1h-3.3
	c-0.9,0.1-1.7,0.2-2.2,0.3l-0.6-0.8l6-0.1l0.1-1.4l0.1-2.4c-1.5,0.2-3.1,0.4-4.8,0.6c-0.2,0-0.2-0.1-0.1-0.2
	C197.7,52.9,200.9,51.9,203.2,50.8z M196.2,62.7v4.8l6-0.1l-0.1-4.9L196.2,62.7z M231.7,50.9l2.1,1.1c0.2,0.1,0.2,0.2,0,0.4
	l-0.7,0.8l0.2,10.6l0.2,5.5c0.1,1.4-0.6,2.6-2,3.8c-0.2,0.1-0.4,0.1-0.5,0c-0.1-0.1-0.2-0.2-0.2-0.5c-0.1-0.4-0.2-0.9-0.3-1.5
	c-0.1-0.3-0.1-0.5-0.1-0.6h-13.1c-0.1,0.8-0.5,1.6-1.2,2.3c-0.2,0.2-0.4,0.3-0.5,0.3c-0.1,0-0.2-0.1-0.2-0.4l0.2-17.7
	c0-1.7-0.1-3.1-0.2-4.1c0-0.1,0.1-0.1,0.2-0.1l2.1,1.5l13-0.1L231.7,50.9z M227.4,53.8l1.3,1.2l-0.1,0.2l-0.5,0.1l-2.2,1.7l1.4-0.1
	l0.9-0.9l1.4,1.1c0,0.1,0,0.2-0.1,0.3h-4.8c-0.2,0.8-0.4,1.4-0.8,1.9h3.9l1.1-1.1l1.4,1.3c0.1,0.1,0.1,0.2-0.1,0.2l-4.1,0.1
	c0.8,1.3,2.4,2.1,4.7,2.6l-0.1-9.4L217.6,53l-0.1,10.8c2.5-1.4,4.1-2.8,4.7-4h-0.6c-1.1,0-2.1,0.1-3,0.2l-0.8-0.7h4.5
	c0.3-0.6,0.5-1.2,0.6-1.9h-0.7c-0.9,0-1.8,0.1-2.6,0.2L219,57l4-0.1c0.1-0.2,0.1-0.4,0.1-0.8c0.1-0.3,0.1-0.6,0.1-0.8
	c0-0.9,0-1.6-0.1-2c0-0.2,0.1-0.2,0.2-0.2l2.3,0.9c0.1,0,0.1,0.1,0,0.2l-0.4,0.4c-0.1,0.3-0.1,0.8-0.2,1.3c-0.1,0.4-0.2,0.7-0.2,0.8
	h0.6L227.4,53.8z M221,62.3c-0.9,0.6-2.1,1.2-3.6,2v5.9l13.6-0.1l-0.1-7.2c-0.6,0.2-1.1,0.7-1.7,1.3c-0.1-0.1-0.2-0.2-0.3-0.3
	c-0.4-0.4-0.9-0.8-1.4-1.2l-0.3,0.4v1.2c-0.1,1.1-0.7,1.8-1.8,2.2c-0.2,0.1-0.3,0-0.3-0.2c-0.1-0.6-0.3-1-0.7-1
	c-0.1-0.2-0.1-0.3,0-0.3c0.7,0.1,1-0.1,1-0.6l-0.1-1.2c0-0.4-0.1-0.5-0.4-0.5l-2.2,0.1l-0.3,0.4l-0.2,3.3c-0.2,0.8,0.1,1.1,0.8,1.1
	c1.5,0.1,2.8,0,3.9-0.3c0.8-0.1,1.3-0.6,1.5-1.4c0.1-0.1,0.1-0.1,0.2-0.2c0.1,0.1,0.2,0.1,0.1,0.2c0,0.6,0.2,1,0.6,1.1
	c0.8,0.7,0.6,1.3-0.7,2c-1.5,0.3-3.2,0.4-5.1,0.3c-1.9-0.2-2.8-1.2-2.8-2.9v-2.7L221,62.3z M220.2,54.1c1.2,0.4,1.9,0.8,2.1,1.2
	c0,0.3-0.2,0.7-0.8,1c-0.4,0.1-0.6,0-0.6-0.3C220.7,55.2,220.4,54.6,220.2,54.1C220,54.2,220.1,54.1,220.2,54.1z M225.9,61.4
	l1.2,0.7c-0.6-0.8-1-1.6-1.2-2.4h-2.2c-0.4,0.8-1.1,1.5-2,2.2l1.2,0.6l2.2-0.1L225.9,61.4z M244.5,73.7l-0.3-0.1
	c1.6-1.1,2.3-2.1,2.2-3.2H246c-1.1-0.1-1.7-0.6-1.8-1.5c0.1-0.9,0.7-1.4,1.8-1.5c1.2,0,1.8,0.8,1.8,2.4
	C247.4,71.6,246.3,72.8,244.5,73.7z M280.6,50.8c0-0.2,0.1-0.2,0.2-0.2l2.3,1c0.2,0,0.2,0.1,0,0.2l-0.4,0.6c0,0.1,0,0.2,0,0.4
	c-0.1,1.9-0.2,3.7-0.1,5.3l3.4-0.1l1.4-1.4l1.7,1.6c0.1,0.1,0.1,0.1,0.1,0.2c0,0.1-0.1,0.1-0.2,0.1l-6.3,0.3c0.1,2.4,0.5,4.5,1,6.2
	c1-1.5,1.8-2.9,2.4-4.2c0-0.2,0.1-0.2,0.2-0.1l1.8,1.4c0.2,0.1,0.2,0.3-0.1,0.5c-1.4,1.4-2.6,2.7-3.8,3.8c0.8,1.8,1.9,3,3.4,3.8
	c0.4,0.2,0.7,0.2,0.9-0.1l1-1.2c0.1-0.1,0.2-0.1,0.3-0.1c0.1,0.1,0.1,0.2,0,0.3c-0.4,0.8-0.7,1.7-0.7,2.7c0.1,0.6,0.1,1-0.2,1.2
	c-0.3,0.2-0.8,0.1-1.3-0.2c-2.3-1.4-4-3.1-5-5.2c-1.8,1.5-3.4,2.6-4.7,3.3c-0.2,0.1-0.2,0-0.2-0.2c1.7-1.2,3.2-2.6,4.4-4
	c-0.8-2.2-1.3-4.8-1.5-7.9l-4,0.2v3.7l2.1-0.7c0.2-0.1,0.3,0,0.1,0.2l-2.2,1.3v5.9c-0.1,1.7-0.9,2.9-2.5,3.8c-0.1,0.1-0.2,0.1-0.2,0
	c-0.1,0-0.1-0.1-0.1-0.2c0.1-0.7-0.2-1.3-0.8-1.8c-0.1-0.1-0.1-0.1,0-0.2c0-0.1,0.1-0.1,0.2-0.1c1.2,0.1,1.7-0.2,1.6-0.8l0.1-5.4
	l-0.9,0.5c-1.4,0.8-2.4,1.5-3.1,2.1c-0.1,0.1-0.2,0.1-0.3,0l-1-2.4c0.1,0,0.2,0,0.3-0.1c0.7-0.1,1.5-0.3,2.5-0.7l2.5-0.8v-4.1
	l-2.2,0.1c-0.7,0-1.5,0.1-2.3,0.3c-0.1,0-0.2,0-0.3,0l-0.8-0.8l5.5-0.3c0-1.5,0-2.8,0-3.9c-0.1-0.1-0.1-0.2,0-0.3h0.2l2.1,0.9
	c0.1,0,0.2,0.1,0.1,0.3l-0.4,0.7l-0.1,2.3l3.9-0.2c0-0.3,0-0.8,0-1.6c-0.1-0.8-0.1-1.3-0.1-1.8c0-0.4,0-1.1,0-2
	C280.7,52,280.6,51.3,280.6,50.8z M277.5,50.8l1.5,1.5c0.1,0.2,0,0.3-0.2,0.4c-1.9,0.4-4.6,1.1-7.9,1.9c-0.2,0-0.2-0.1-0.1-0.2
	c2.7-1.1,4.8-2.2,6.4-3.6C277.4,50.6,277.5,50.6,277.5,50.8z M284.7,52.4c1.9,0.7,2.8,1.4,2.9,2.1c-0.1,0.7-0.5,1.2-1.1,1.5
	c-0.6,0.2-0.9,0-0.9-0.5c0-1.2-0.4-2.2-1.1-2.9C284.4,52.4,284.5,52.4,284.7,52.4z M295.7,64.2c-0.1,0.1-0.2,0.1-0.3,0
	c-0.1-0.1-0.1-0.1,0-0.2c3.2-3.3,5.8-7.7,7.8-13l2.2,1c0.1,0.1,0.1,0.2,0,0.4l-0.4,0.4c-0.8,1.3-1.5,2.4-2.2,3.6l0.3,14.2
	c-0.1,0.7-0.6,1.6-1.5,2.7c-0.2,0.1-0.3,0.2-0.5,0.2c-0.1,0-0.1-0.1-0.1-0.3l0.1-6.2l0.1-8.4C299.9,60.2,298.1,62.1,295.7,64.2z
	 M307.2,57.9v7.4l0.2,3.8c-0.2,0.9-0.7,1.8-1.6,2.5c-0.2,0.2-0.4,0.2-0.5-0.1l0.1-6.5v-6l-0.1-3l2.1,0.9c0.2,0.1,0.2,0.2,0.1,0.3
	L307.2,57.9z M306.5,50.6l1.7,0.8c0.9,0.4,1.4,0.8,1.3,1.1c-0.1,0.6-0.4,1.1-1,1.5c-0.2,0.2-0.4,0.1-0.6-0.2
	c-0.4-1.2-0.8-2.2-1.4-2.9C306.3,50.7,306.3,50.6,306.5,50.6z M313.1,54.4c-0.6,0.1-1.3,0.2-2.2,0.3c-0.2,0.1-0.4,0.1-0.6,0.1
	l-0.8-0.8l4.9-0.2l1.1-1.1l1.8,1.2c0,0.1,0,0.1,0.1,0.1c0.1,0.1,0,0.1-0.1,0.2l-0.8,1l0.2,8.3l0.2,5.2c0.1,1.8-0.9,3.3-2.8,4.5
	c-0.1,0.1-0.2,0.1-0.3,0.1c-0.1-0.1-0.1-0.2-0.1-0.4c0.1-0.9-0.2-1.6-0.9-1.9c-0.1-0.2-0.1-0.3,0.1-0.4c1.2,0.1,1.8-0.2,1.7-0.8
	l-0.1-15.5H313.1z M329.1,55.2c-0.9,0-1.6,0.1-2.2,0.3l-0.8-0.8h3.3l-0.2-4l2.4,0.8c0.1,0.1,0.1,0.2,0,0.3c-0.2,0.2-0.3,0.5-0.4,0.9
	l-0.1,2h0.8l0.9-1l1.2,1.2v0.1c0.5-0.8,1-1.5,1.4-2.2l1.4,1.3c0.1,0.1,0.1,0.2-0.1,0.3l-0.5,0.5c-1.1,1.4-2.2,2.7-3.2,3.8h1.1
	l1.1-1.2l1.4,1.4l0.1,0.1c0,0.1-0.1,0.1-0.2,0.2l-4.1,0.1c-1.1,1.1-2.3,2.2-3.5,3.2l3.5-0.1l0.9-1.1l1.9,1.1c0.1,0.1,0.1,0.2,0,0.4
	l-0.6,0.8V69c0,1.2-0.5,2.2-1.5,3.2c-0.4,0.2-0.6,0.2-0.6-0.1c-0.1-0.9-0.3-1.5-0.7-1.8l-3.2,0.1c-0.2,0.8-0.6,1.5-1.1,2
	c-0.2,0.3-0.4,0.3-0.6,0l0.1-8.7c-1.3,0.9-2.6,1.9-4.1,2.8c-0.1,0.1-0.1,0.1-0.2,0c-0.1-0.1-0.1-0.2,0-0.3c1.6-1.1,3.1-2.2,4.3-3.4
	l0.1-1.3l0.8,0.5c0.9-0.9,1.8-1.9,2.6-2.8l-3.3,0.1c-1,0-1.8,0.1-2.2,0.2l-0.8-0.7l4.9-0.1v-3.6H329.1z M328.9,62.8v3.2l3.2-0.2
	c0.2,0,0.3,0.1,0.3,0.2c-0.1,0.2-0.2,0.3-0.3,0.3l-3.2,0.1V70l3.8-0.1c0-0.1,0-0.2,0-0.3l0.1-7L328.9,62.8z M334,55.1h-2.8l-0.1,3.6
	h0.3C332.3,57.4,333.2,56.2,334,55.1z M342.4,53l1-1l1.8,1.3c0.1,0.1,0.2,0.1,0.2,0.2l-0.2,0.2l-0.7,0.7l-3.4,5.5
	c2.9,2.4,4.2,4.6,4,6.5c-0.1,1.5-1.1,2.6-3,3.2c-0.1,0.1-0.2,0-0.2-0.2c0.1-1-0.2-1.6-0.8-1.7c-0.1-0.2-0.1-0.3,0.1-0.3
	c1.2,0.1,1.7-0.1,1.6-0.6c0.2-2.6-0.5-4.8-2.3-6.8l1.8-6.5l-3.1,0.1l-0.2,12V70c-0.1,1.3-0.5,2.5-1.3,3.6c-0.4,0.3-0.7,0.3-0.7,0
	l0.2-6.3l0.3-16l1.7,1.1c0,0.1,0,0.1,0,0.2V53H342.4z M361.2,50.7l2.2,1.4c0.1,0.1,0.1,0.2,0,0.4c-0.4,1-1,2-1.7,3l8-0.1l1.5-1.5
	l1.8,1.7c0.1,0.1,0.1,0.1,0.1,0.2c0,0.1-0.1,0.1-0.2,0.1L361.5,56c-1.1,1.7-2.3,3.3-3.5,5l0.3,0.2c0.2,0.1,0.3,0.2,0.3,0.6l-0.1,9.2
	c-0.1,0.9-0.6,1.7-1.3,2.4c-0.3,0.3-0.5,0.3-0.7,0l0.2-5.3v-5.4c-1.8,2.2-3.7,4.1-5.5,5.8c-0.1,0.1-0.2,0.1-0.3,0.1
	c-0.1-0.1-0.1-0.2,0-0.3c2.8-2.9,5.5-7,8.1-12.2l-3.7,0.1c-1.1,0-2,0.1-2.6,0.2l-0.7-0.8l7.1-0.1c0.9-1.7,1.5-3.3,1.8-4.6
	C361,50.7,361.1,50.6,361.2,50.7z M360.6,63.9c-0.2,0-0.3-0.1-0.3-0.3c-0.1-0.2,0-0.3,0.2-0.3l3.8-0.2v-1.5l-0.2-4.1l2.7,0.8
	c0.1,0,0.1,0,0.2,0.1c-0.1,0.1-0.1,0.1-0.2,0.2c-0.2,0.2-0.3,0.5-0.4,0.9l-0.1,3.7l1.9-0.1l1.2-1.3l1.5,1.5c0.1,0.1,0.1,0.2,0,0.3
	l-4.6,0.2v7.2l3.7-0.1l1.4-1.2L373,71c0.1,0.1,0.1,0.2,0,0.2l-10.9,0.3c-0.9,0.1-1.7,0.2-2.5,0.3l-0.8-0.8l5.5-0.1v-7.2L360.6,63.9z
	 M396.9,53.9l2.3,1.2c0.1,0.1,0.1,0.2,0,0.3l-0.7,0.9l0.1,8.4l0.1,4.2c0,1.9-1.1,3.3-3.2,4.2c-0.1,0.1-0.2,0-0.2-0.2
	c0.1-1.1-0.3-1.8-1.1-2.1c-0.1-0.1-0.1-0.1-0.1-0.2c0-0.1,0-0.1,0.1-0.1c1.4,0.1,2,0,2-0.3L396,55.7l-12.2,0.2l0.1,14
	c-0.1,1.1-0.7,2.1-1.6,3.1c-0.1,0.2-0.2,0.2-0.4,0.2c-0.1-0.1-0.2-0.2-0.2-0.4l0.1-6.9l0.1-8.1l-0.1-3.4c0-0.1,0.1-0.2,0.3-0.1
	l1.9,1.1l11.9-0.3L396.9,53.9z M389.7,50.4l1.4,1.8c0.1,0.1,0,0.2-0.2,0.3c-1.1,0.6-3.1,1.4-6.2,2.6c-0.2,0-0.2-0.1-0.1-0.2
	C387,53.3,388.7,51.8,389.7,50.4z M391.7,59.4l0.8-1.2l2.1,1.2c0.1,0.1,0.1,0.2,0,0.3l-0.6,0.8l0.1,4.7l0.2,0.4
	c0.1,0.2,0,0.3-0.2,0.3c-1.4-0.1-3.5-0.1-6.5,0c-0.1,0.9-0.6,1.7-1.3,2.4c-0.2,0.2-0.4,0.2-0.5-0.1l0.1-4.5v-3.3v-2
	c0-0.1,0-0.1,0.1,0l1.7,1L391.7,59.4z M387.8,60l-0.1,5.2l4.1-0.1l-0.1-5.2L387.8,60z M411.1,72.1c-1.6,0-2.8,0.1-3.4,0.4l-1-0.8
	l8.9-0.3l0.1-16.4l-0.2-4.3l3,0.8c0.2,0,0.2,0.1,0.1,0.4c-0.3,0.2-0.5,0.5-0.6,0.9l-0.1,7l5.4-0.1l1.4-1.6l1.8,1.8
	c0.1,0.1,0.1,0.2-0.1,0.2l-8.5,0.3l-0.1,11l6.6-0.1l1.7-1.5l2,1.6c0.1,0.2,0,0.3-0.2,0.3L411.1,72.1z M455.8,69.3
	c0.1,0,0.2,0,0.2,0.1c0,0.1,0,0.1-0.1,0.2c-1.1,0.4-1.9,1.4-2.5,3.1c-3.1,0.2-6.2,0-9.4-0.5c-1.4-0.1-2.7-1.1-3.8-2.8
	c-0.1-0.2-0.3-0.4-0.5-0.5c-0.1,0-0.3,0.1-0.5,0.4c-0.8,0.9-1.6,2.2-2.3,3.7c-0.1,0.2-0.2,0.2-0.3,0.1l-1.3-2.1l3.3-2.5l0.2-8.4
	l-3.3,0.2c-0.2,0-0.3-0.1-0.4-0.3c0-0.2,0.1-0.3,0.3-0.3l3.4-0.2l0.8-1.1l1.9,1.2c0.2,0.1,0.2,0.3,0,0.5l-0.7,0.8l-0.3,7.1
	C440,70.4,445.1,70.9,455.8,69.3z M436.9,51.3c2.4,0.8,3.7,1.5,3.8,2.3c0,0.8-0.4,1.4-1.2,2c-0.6,0.2-0.9,0.1-1.1-0.4
	c-0.1-1.7-0.6-3-1.5-3.8C436.6,51.3,436.7,51.3,436.9,51.3z M448,50.5l2.1,1.4c0.1,0.1,0.1,0.2-0.1,0.3l-0.8,0.4
	c-0.6,0.4-1.6,0.9-2.8,1.6c-0.5,0.2-0.9,0.4-1.1,0.6v0.1l4.7-0.2l1-1l2,1.2c0.2,0.1,0.2,0.2,0.1,0.3l-0.7,0.8l0.1,2.6l0.1,0.4
	c0.1,0.1,0,0.2-0.1,0.2c-1.8-0.1-4.3-0.1-7.4,0.1v2.7l5.3-0.2l1-1.1l2.1,1.2c0.1,0.1,0.1,0.2,0,0.4L453,63l0.1,3.2l0.2,0.4
	c0,0.1-0.1,0.2-0.2,0.2c-0.8-0.1-3.4,0-8,0.1v0.5c-0.2,1.1-0.8,2-1.5,2.5l-0.2,0.1c-0.1-0.1-0.1-0.1-0.1-0.2l0.2-6.3V57l-0.2-3.5
	c0-0.1,0.1-0.2,0.3-0.1l1.5,0.8C446.1,53.2,447.1,52,448,50.5z M445.1,55.2v3.5l5-0.2v-3.4L445.1,55.2z M450.6,62.3l-5.5,0.1v3.9
	l5.4-0.1L450.6,62.3z M483.6,69.3c0.2,0,0.3,0.1,0.1,0.4c-1.3,0.5-2.2,1.5-2.6,2.9c-4,0.2-7.5,0.1-10.4-0.4
	c-1.3-0.2-2.4-1.1-3.4-2.4c-0.2-0.6-0.6-0.6-1-0.2c-0.8,1-1.5,2.1-2.2,3.4c-0.1,0.2-0.2,0.2-0.4,0.1l-1-1.8c-0.1-0.1-0.1-0.2,0-0.3
	l3-2.2l0.3-8.6l-3.4,0.2c-0.2,0-0.3-0.1-0.3-0.3s0.1-0.3,0.2-0.3l3.5-0.3l0.7-0.9l1.8,1.1l0.2,0.1c0,0.1-0.1,0.2-0.2,0.3l-0.6,0.8
	l-0.3,7.1C467.3,70.5,472.7,70.9,483.6,69.3z M464.2,51.7c2.2,0.7,3.4,1.5,3.6,2.3c0,0.8-0.3,1.4-1,1.9c-0.6,0.2-0.9,0.1-1-0.4
	c-0.1-1.6-0.6-2.8-1.6-3.6c-0.1-0.1-0.1-0.1-0.1-0.2C464.1,51.7,464.1,51.7,464.2,51.7z M477.9,66.3c-0.4,1.3-1.5,2.4-3.3,3.2
	c-0.2,0-0.2-0.1-0.2-0.3c0.1-0.9-0.2-1.5-0.8-1.8c-0.1-0.1-0.1-0.1-0.1-0.2c0-0.1,0.1-0.1,0.2-0.1c1.2,0.2,1.9-0.1,2-0.9
	c0.3-1.4,0.4-2.7,0.3-4c-2.2,2-4.8,3.8-7.5,5.2c-0.2,0.1-0.3,0-0.2-0.2c2.9-2.2,5.4-4.9,7.3-8.1c-0.1-0.2-0.2-0.4-0.2-0.8
	c-1.8,1.6-3.9,3.1-6.5,4.5c-0.2,0.1-0.2,0-0.2-0.2c2.3-1.8,4.2-4,5.8-6.5c0-0.1,0-0.1,0-0.2l-0.1-0.1c-1.4,0.9-3.3,1.9-5.8,3
	c-0.1,0.1-0.1,0-0.2-0.1c0-0.1,0-0.1,0.1-0.2c2.9-1.7,5-3.6,6.4-5.8h-2.5c-1.1,0-1.9,0.1-2.5,0.3l-0.8-0.8l10.6-0.2L481,51l1.6,1.4
	c0.1,0.2,0,0.3-0.2,0.3l-6.9,0.2L477,54c0.1,0.1,0.1,0.2-0.1,0.4c-0.2,0.1-0.5,0.3-0.9,0.7c-0.4,0.2-0.8,0.5-1,0.7
	c0.9,1.1,1.7,2.3,2.2,3.7c1.4-1.1,2.5-2.5,3.3-4l1.7,1.7c0.2,0.2,0.2,0.3,0,0.4c-1.2,0.7-2.8,1.4-4.8,2.2v0.1
	c3.3,1.5,5.1,2.7,5.2,3.7c-0.1,0.6-0.4,1.1-1,1.7c-0.5,0.3-0.8,0.2-1-0.4c-0.7-1.7-1.7-3.2-3-4.4C478.2,62,478.2,64,477.9,66.3z
	 M494.3,66.7c1.7,0.1,2.6,1.1,2.6,3c-0.1,1.9-0.9,3-2.6,3.1c-1.6-0.1-2.5-1-2.5-2.9C491.9,67.9,492.8,66.8,494.3,66.7z M493.4,69.4
	v0.8c0,1.4,0.3,2,1,2c0.7,0.1,1-0.6,1-2.1v-0.8c0-1.3-0.3-2-1-2C493.7,67.4,493.4,68.1,493.4,69.4z"/>
</svg>
