<?xml version="1.0" encoding="utf-8"?>
<!-- Generator: Adobe Illustrator 22.1.0, SVG Export Plug-In . SVG Version: 6.00 Build 0)  -->
<svg version="1.1" id="图层_1" xmlns="http://www.w3.org/2000/svg" xmlns:xlink="http://www.w3.org/1999/xlink" x="0px" y="0px"
	 viewBox="0 0 80.5 33.1" style="enable-background:new 0 0 80.5 33.1;" xml:space="preserve">
<style type="text/css">
	.st0{fill:#444444;}
</style>
<path class="st0" d="M63.3,0.8C69,0.6,74.7,0.6,80.5,1c0.1-0.3,0.1-0.6,0-0.9C74.8,0,65.4,0,59.3,0.2c-6.2,0.3-10.9,1.6-5.6,2.6
	s10.2,1.8,10.5,2.6c0.3,0.8,0.3,1.5-11.4,1.6c-10.7,0.1-14.9,2.1-20.5,9.3c-3,3.8-7.4,6.7-12.2,9.1v-1.7c0-0.5,0.4-0.7,0.4-1
	s0.1-5.3,0-5.8c-0.2-0.5-0.5-0.9-0.9-1.2l-0.1-0.1c-0.1-0.2,0-0.5,0.2-0.6c0.3-0.1,0.6-0.3,0.8-0.5c0.2-0.4-0.2-0.8-0.8-1
	c-0.4-0.1-0.9-0.2-1.2,0.2c-0.2,0.1-0.3,0.3-0.4,0.5c-0.2,0.4,0.3,0.7,0.8,0.9c0.2,0.1,0.2,0.1,0.1,0.4c0,0.1-0.2,0.2-0.4,0.4
	c-0.4,0.4-0.6,0.9-0.7,1.4v4.9c0,1.4,0.4,0.7,0.4,1.8v2.3c-5.6,2.5-11.7,4.1-16.5,5.2c-2.4,0.4-2.1,1.7,0.1,1.7
	c13.9,0,21.5,0,21.5,0c1.1,0,2.3-0.2,3.4-0.4c6.4-1.6,11.7-6.6,14.9-14.1c2.7-6.3,8.1-9.8,13.8-9.9c5.8-0.1,10.2-0.3,14-0.5
	C74.1,7.9,79.3,6,73,4.5c-4.2-1-7-0.9-11.7-1.5C58,2.6,56,1.1,63.3,0.8z"/>
</svg>
