<?xml version="1.0" encoding="UTF-8"?>
<svg width="196px" height="16px" viewBox="0 0 196 16" version="1.1" xmlns="http://www.w3.org/2000/svg" xmlns:xlink="http://www.w3.org/1999/xlink">
    <title>形状</title>
    <g id="Detail" stroke="none" stroke-width="1" fill="none" fill-rule="evenodd">
        <g id="画板备份-7" transform="translate(-50.000000, -34.000000)" fill="#FFFFFF" fill-rule="nonzero">
            <path d="M98.6482535,45.4119651 C99.2005382,45.4119651 99.6482535,45.8596803 99.6482535,46.4119651 L99.6482535,48.7649379 C99.6482535,49.3172227 99.2005382,49.7649379 98.6482535,49.7649379 L74.115195,49.7649379 C73.5629103,49.7649379 73.115195,49.3172227 73.115195,48.7649379 L73.115195,46.4119651 C73.115195,45.8596803 73.5629103,45.4119651 74.115195,45.4119651 L98.6482535,45.4119651 Z M63.6348318,45.4119651 C64.1871166,45.4119651 64.6348318,45.8596803 64.6348318,46.4119651 L64.6348318,48.7649379 C64.6348318,49.3172227 64.1871166,49.7649379 63.6348318,49.7649379 L51.6340162,49.7649379 C51.0817315,49.7649379 50.6340162,49.3172227 50.6340162,48.7649379 L50.6340162,46.4119651 C50.6340162,45.8596803 51.0817315,45.4119651 51.6340162,45.4119651 L63.6348318,45.4119651 Z M121.129432,45.4119651 C121.681717,45.4119651 122.129432,45.8596803 122.129432,46.4119651 L122.129432,48.7649379 C122.129432,49.3172227 121.681717,49.7649379 121.129432,49.7649379 L109.128617,49.7649379 C108.576332,49.7649379 108.128617,49.3172227 108.128617,48.7649379 L108.128617,46.4119651 C108.128617,45.8596803 108.576332,45.4119651 109.128617,45.4119651 L121.129432,45.4119651 Z M149.48584,36.8413086 C150.774902,36.8413086 151.891846,37.3308105 152.83667,38.3098145 C153.781494,39.2888184 154.253906,40.5107422 154.253906,41.9755859 C154.253906,43.484375 153.777832,44.7368164 152.825684,45.7329102 C151.873535,46.7290039 150.721191,47.2270508 149.368652,47.2270508 C148.001465,47.2270508 146.852783,46.7412109 145.922607,45.7695312 C144.992432,44.7978516 144.527344,43.5405273 144.527344,41.9975586 C144.527344,40.4204102 145.064453,39.1337891 146.138672,38.1376953 C147.071289,37.2734375 148.187012,36.8413086 149.48584,36.8413086 Z M240.323167,36.5849609 L240.652757,36.5849609 L240.654573,44.7397219 L240.654573,44.7397219 L240.664106,45.2233927 L240.664106,45.2233927 L240.681812,45.5703246 L240.681812,45.5703246 L240.698155,45.7256465 C240.701181,45.746469 240.704359,45.7647594 240.707689,45.7805176 C240.74431,45.9538574 240.802903,46.074707 240.88347,46.1430664 C240.964036,46.2114258 241.05803,46.2456055 241.165452,46.2456055 C241.270921,46.2456055 241.404515,46.219043 241.566233,46.165918 L241.692796,46.1210937 L241.773362,46.3774414 L239.781175,47.2050781 L239.444261,47.2050781 L239.444261,46.2456055 L239.281297,46.4084676 C239.010708,46.6665107 238.745205,46.8575846 238.484788,46.9816895 C238.172288,47.1306152 237.835374,47.2050781 237.474046,47.2050781 C236.741624,47.2050781 236.101976,46.8986816 235.555101,46.2858887 C235.008226,45.6730957 234.734788,44.8857422 234.734788,43.9238281 C234.734788,42.9619141 235.037523,42.0817871 235.642991,41.2834473 C236.24846,40.4851074 237.027269,40.0859375 237.979417,40.0859375 C238.504591,40.0859375 238.948746,40.2344715 239.311882,40.5315394 L239.444261,40.6499023 L239.442238,39.0033752 L239.442238,39.0033752 L239.435736,38.6436583 L239.435736,38.6436583 L239.424751,38.3562793 L239.424751,38.3562793 L239.409282,38.1412382 L239.409282,38.1412382 L239.389329,37.9985352 L239.389329,37.9985352 C239.352708,37.8227539 239.295335,37.703125 239.21721,37.6396484 C239.139085,37.5761719 239.041429,37.5444336 238.924241,37.5444336 C238.822679,37.5444336 238.694554,37.5694336 238.539866,37.6194336 L238.41887,37.6616211 L238.323655,37.4052734 L240.323167,36.5849609 Z M200.410682,45.5791016 C200.640174,45.5791016 200.833045,45.6584473 200.989295,45.8171387 C201.145545,45.9758301 201.22367,46.1674805 201.22367,46.3920898 C201.22367,46.6166992 201.144325,46.8083496 200.985633,46.967041 C200.826942,47.1257324 200.635291,47.2050781 200.410682,47.2050781 C200.186073,47.2050781 199.994422,47.1257324 199.835731,46.967041 C199.67704,46.8083496 199.597694,46.6166992 199.597694,46.3920898 C199.597694,46.1625977 199.67704,45.9697266 199.835731,45.8134766 C199.994422,45.6572266 200.186073,45.5791016 200.410682,45.5791016 Z M222.213642,40.0932617 C223.229267,40.0932617 224.044697,40.4790039 224.659931,41.2504883 C225.182392,41.909668 225.443622,42.6665039 225.443622,43.5209961 C225.443622,44.121582 225.299579,44.7294922 225.011493,45.3447266 C224.723407,45.9599609 224.326679,46.4238281 223.821308,46.7363281 C223.315937,47.0488281 222.753193,47.2050781 222.133075,47.2050781 C221.122333,47.2050781 220.319111,46.8022461 219.723407,45.996582 C219.220478,45.3178711 218.969013,44.5561523 218.969013,43.7114258 C218.969013,43.0961914 219.121601,42.4846191 219.426777,41.876709 C219.731952,41.2687988 220.133564,40.8195801 220.631611,40.5290527 C221.129657,40.2385254 221.657001,40.0932617 222.213642,40.0932617 Z M194.72506,40.0859375 C195.477013,40.0859375 196.094689,40.3337402 196.578087,40.8293457 C197.017541,41.2798961 197.257242,41.8686584 197.297193,42.5956325 L197.303185,42.8178711 L192.666955,42.8178711 L192.670871,43.0624186 C192.704067,43.9426812 192.944461,44.6424154 193.392052,45.1616211 C193.880334,45.7280273 194.454064,46.0112305 195.113244,46.0112305 C195.552697,46.0112305 195.934777,45.8903809 196.259484,45.6486816 C196.543603,45.4371948 196.787533,45.0939293 196.991276,44.618885 L197.076134,44.4072266 L197.303185,44.5537109 L197.261772,44.7744774 C197.132046,45.3572802 196.847998,45.8928223 196.40963,46.3811035 C195.916466,46.9304199 195.298791,47.2050781 194.556603,47.2050781 C193.750939,47.2050781 193.061242,46.8913574 192.487511,46.263916 C191.913781,45.6364746 191.626916,44.7929687 191.626916,43.7333984 C191.626916,42.5859375 191.921105,41.6911621 192.509484,41.0490723 C193.097863,40.4069824 193.836388,40.0859375 194.72506,40.0859375 Z M165.822904,45.5791016 C166.052396,45.5791016 166.245267,45.6584473 166.401517,45.8171387 C166.557767,45.9758301 166.635892,46.1674805 166.635892,46.3920898 C166.635892,46.6166992 166.556547,46.8083496 166.397855,46.967041 C166.239164,47.1257324 166.047514,47.2050781 165.822904,47.2050781 C165.598295,47.2050781 165.406644,47.1257324 165.247953,46.967041 C165.089262,46.8083496 165.009916,46.6166992 165.009916,46.3920898 C165.009916,46.1625977 165.089262,45.9697266 165.247953,45.8134766 C165.406644,45.6572266 165.598295,45.5791016 165.822904,45.5791016 Z M244.419434,45.5791016 C244.648926,45.5791016 244.841797,45.6584473 244.998047,45.8171387 C245.154297,45.9758301 245.232422,46.1674805 245.232422,46.3920898 C245.232422,46.6166992 245.153076,46.8083496 244.994385,46.967041 C244.835693,47.1257324 244.644043,47.2050781 244.419434,47.2050781 C244.194824,47.2050781 244.003174,47.1257324 243.844482,46.967041 C243.685791,46.8083496 243.606445,46.6166992 243.606445,46.3920898 C243.606445,46.1625977 243.685791,45.9697266 243.844482,45.8134766 C244.003174,45.6572266 244.194824,45.5791016 244.419434,45.5791016 Z M230.015963,40.0932617 C230.611666,40.0932617 231.099947,40.1933594 231.480807,40.3935547 C231.768893,40.5449219 231.981295,40.7817383 232.118014,41.1040039 C232.196139,41.2906359 232.239542,41.6508789 232.248222,42.1847331 L232.251658,45.0606192 L232.251658,45.0606192 L232.261153,45.5075322 L232.261153,45.5075322 L232.272003,45.7136954 C232.276223,45.7701793 232.281046,45.814426 232.286471,45.8464355 C232.310885,45.9904785 232.351168,46.0869141 232.40732,46.1357422 C232.463473,46.1845703 232.52817,46.2089844 232.601412,46.2089844 C232.679537,46.2089844 232.747897,46.1918945 232.80649,46.1577148 C232.835787,46.1395787 232.872857,46.1120755 232.917699,46.0752053 L233.075543,45.9364935 L233.075543,45.9364935 L233.280024,45.7415796 L233.280024,45.7415796 L233.399752,45.6230469 L233.399752,46.0332031 L233.263542,46.2086792 C232.76597,46.824117 232.288912,47.1318359 231.832369,47.1318359 C231.593111,47.1318359 231.402682,47.0488281 231.26108,46.8828125 C231.119479,46.7167969 231.046236,46.4335937 231.041354,46.0332031 L230.573061,46.3902588 L230.573061,46.3902588 L230.2009,46.6630859 L230.2009,46.6630859 L230.006197,46.7981771 L230.006197,46.7981771 L229.85422,46.8958333 C229.810681,46.9221463 229.774264,46.9422201 229.744967,46.9560547 C229.481295,47.078125 229.200533,47.1391602 228.902682,47.1391602 C228.438815,47.1391602 228.056735,46.9804687 227.756442,46.6630859 C227.456149,46.3457031 227.306002,45.9282227 227.306002,45.4106445 C227.306002,45.0834961 227.379244,44.800293 227.525729,44.5610352 C227.725924,44.2290039 228.073824,43.9165039 228.56943,43.6235352 C228.693331,43.550293 228.837756,43.4730835 229.002703,43.3919067 L229.359962,43.2242635 C229.424066,43.1954414 229.49045,43.1661784 229.559115,43.1364746 L229.998466,42.9529622 L229.998466,42.9529622 L230.492546,42.7588704 L230.492546,42.7588704 L231.041354,42.5541992 L231.041354,42.2905273 L231.03742,42.0753219 C231.016442,41.5221776 230.911552,41.1349284 230.72275,40.9135742 C230.510348,40.6645508 230.20151,40.5400391 229.796236,40.5400391 C229.488619,40.5400391 229.244479,40.6230469 229.063815,40.7890625 C228.909192,40.9274089 228.818996,41.0827094 228.793225,41.2549642 L228.785494,41.3603516 L228.800143,41.7851562 L228.793258,41.9137695 C228.774899,42.0770508 228.71982,42.2075195 228.628024,42.3051758 C228.513277,42.4272461 228.363131,42.4882812 228.177584,42.4882812 C227.99692,42.4882812 227.849215,42.4248047 227.734469,42.2978516 C227.619723,42.1708984 227.56235,41.9975586 227.56235,41.777832 C227.56235,41.3579102 227.777194,40.972168 228.206881,40.6206055 C228.636569,40.269043 229.239596,40.0932617 230.015963,40.0932617 Z M185.201547,36.5849609 L185.201547,41.4921875 L185.378052,41.3015318 C185.837639,40.814215 186.208492,40.4956868 186.49061,40.3459473 C186.807993,40.1774902 187.125376,40.0932617 187.442758,40.0932617 C187.823618,40.0932617 188.150766,40.1982422 188.424204,40.4082031 C188.697641,40.6181641 188.900278,40.9477539 189.032114,41.3969727 C189.087778,41.5844727 189.126743,41.8651367 189.149008,42.2389648 L189.165708,42.6438477 L189.165708,42.6438477 L189.171274,43.1108398 L189.171274,45.4838867 L189.173367,45.6577248 C189.181737,45.9889589 189.215219,46.2215402 189.273813,46.3554687 C189.322641,46.4726562 189.405649,46.5654297 189.522837,46.6337891 C189.620493,46.6907552 189.785966,46.7239855 190.019256,46.7334798 L190.167368,46.7363281 L190.167368,47 L186.871469,47 L186.871469,46.7363281 L187.025278,46.7363281 L187.173593,46.7323608 C187.407561,46.7191366 187.575408,46.6728516 187.677133,46.5935059 C187.799204,46.498291 187.884653,46.3579102 187.933481,46.1723633 L187.943094,46.0853882 L187.943094,46.0853882 L187.952364,45.8484955 L187.952364,45.8484955 L187.95511,45.6196136 L187.954318,42.8986572 L187.945236,42.5195557 C187.929343,42.1124756 187.894907,41.8286133 187.841928,41.6679687 C187.766245,41.4384766 187.645395,41.2663574 187.47938,41.1516113 C187.313364,41.0368652 187.113169,40.9794922 186.878794,40.9794922 C186.639536,40.9794922 186.390512,41.0429687 186.131723,41.1699219 C185.909904,41.2787388 185.650417,41.4826212 185.353263,41.7815689 L185.201547,41.9389648 L185.202749,45.6478806 L185.212362,45.9271164 C185.224378,46.1327286 185.246408,46.2706299 185.278452,46.3408203 C185.329721,46.453125 185.424936,46.5471191 185.564096,46.6228027 C185.680063,46.6858724 185.86639,46.722663 186.123077,46.7331746 L186.285532,46.7363281 L186.285532,47 L182.960337,47 L182.960337,46.7363281 L183.13143,46.7307617 C183.349399,46.715918 183.526743,46.6713867 183.663462,46.597168 C183.761118,46.5483398 183.839243,46.4555664 183.897837,46.3188477 C183.94806,46.2016602 183.976759,45.9804389 183.983933,45.6551838 L183.985727,45.4838867 L183.985273,39.2103604 L183.981014,38.8144745 L183.981014,38.8144745 L183.97227,38.4909265 L183.97227,38.4909265 L183.959043,38.2397165 L183.959043,38.2397165 L183.941332,38.0608444 C183.938007,38.0370606 183.934495,38.0162908 183.930796,37.9985352 C183.894174,37.8227539 183.838022,37.703125 183.762338,37.6396484 C183.686655,37.5761719 183.585337,37.5444336 183.458383,37.5444336 C183.376352,37.5444336 183.253696,37.5694336 183.090415,37.6194336 L182.960337,37.6616211 L182.857797,37.4052734 L184.864633,36.5849609 L185.201547,36.5849609 Z M158.064528,40.0932617 L158.064528,41.5141602 L158.221267,41.3310221 C158.950433,40.5058485 159.647699,40.0932617 160.313063,40.0932617 C160.679274,40.0932617 160.994216,40.1848145 161.257888,40.3679199 C161.521559,40.5510254 161.73152,40.8525391 161.88777,41.2724609 C161.981765,41.5288086 162.034636,41.9047852 162.046386,42.4003906 L162.048903,42.6201172 L162.048903,45.4838867 L162.050996,45.6575753 C162.059366,45.9882115 162.092849,46.2184012 162.151442,46.3481445 C162.205153,46.4702148 162.291823,46.5654297 162.411452,46.6337891 C162.511143,46.6907552 162.681194,46.7239855 162.921604,46.7334798 L163.074294,46.7363281 L163.074294,47 L159.756423,47 L159.756423,46.7363281 L159.895583,46.7363281 L160.044,46.7323608 C160.278307,46.7191366 160.447341,46.6728516 160.551101,46.5935059 C160.675612,46.498291 160.762282,46.3579102 160.81111,46.1723633 L160.823928,46.0881348 L160.823928,46.0881348 L160.833083,45.9453125 L160.833083,45.9453125 L160.840407,45.4838867 L160.840407,42.7373047 L160.836688,42.5162621 C160.819331,42.0187874 160.741225,41.649353 160.60237,41.407959 C160.443679,41.1320801 160.176345,40.9941406 159.800368,40.9941406 C159.272137,40.9941406 158.745923,41.2564405 158.221727,41.7810402 L158.064528,41.9462891 L158.065787,45.6460495 L158.075858,45.9216232 C158.088446,46.1241837 158.111525,46.2590332 158.145095,46.3261719 C158.213454,46.4677734 158.307448,46.5715332 158.427077,46.6374512 C158.529616,46.6939523 158.722736,46.7262386 159.006438,46.7343102 L159.155837,46.7363281 L159.155837,47 L155.837966,47 L155.837966,46.7363281 L155.98445,46.7363281 L156.124133,46.7310218 C156.389898,46.7097965 156.57405,46.6248954 156.676589,46.4763184 C156.781264,46.324646 156.840144,46.0524101 156.853228,45.6596107 L156.856032,45.4838867 L156.854216,42.5854331 L156.854216,42.5854331 L156.844683,42.0902311 L156.844683,42.0902311 L156.833787,41.8381812 L156.833787,41.8381812 L156.81926,41.6485989 L156.81926,41.6485989 L156.801101,41.5214844 L156.801101,41.5214844 C156.764479,41.3457031 156.708327,41.2260742 156.632643,41.1625977 C156.55696,41.0991211 156.455642,41.0673828 156.328688,41.0673828 C156.226149,41.0673828 156.108504,41.0879822 155.975753,41.1291809 L155.837966,41.1772461 L155.728102,40.9135742 L157.749587,40.0932617 L158.064528,40.0932617 Z M211.525578,37.0683594 L211.833672,37.0706665 C212.733013,37.0845093 213.407903,37.1606445 213.858342,37.2990723 C214.35883,37.4528809 214.783635,37.736084 215.132756,38.1486816 C215.481877,38.5612793 215.656438,39.0532227 215.656438,39.6245117 C215.656438,40.2348633 215.457463,40.7646484 215.059514,41.2138672 C214.70136,41.6181641 214.166216,41.9156738 213.454082,42.1063965 L213.210149,42.1660156 L215.26093,45.0151367 L215.414739,45.2250977 C215.818384,45.7632921 216.169947,46.1278754 216.469426,46.3188477 C216.75821,46.5029994 217.122328,46.6297533 217.561781,46.6991091 L217.787785,46.7290039 L217.787785,47 L215.136418,47 L211.774602,42.3564453 L211.292577,42.3701782 L211.292577,42.3701782 L211.067815,42.3701782 L211.067815,42.3701782 L210.734563,42.3564453 L210.734563,45.2421875 L210.737095,45.4417499 C210.750598,45.9505269 210.818113,46.2721897 210.939641,46.4067383 C211.098681,46.5908901 211.325881,46.6961197 211.621242,46.7224271 L211.774602,46.7290039 L212.162785,46.7290039 L212.162785,47 L207.907414,47 L207.907414,46.7290039 L208.28095,46.7290039 L208.432813,46.7225952 C208.774075,46.692688 209.023747,46.5581055 209.181828,46.3188477 C209.272974,46.184299 209.323611,45.8857844 209.333738,45.4233037 L209.335637,45.2421875 L209.335637,38.8261719 L209.333105,38.6266095 C209.319602,38.1178325 209.252087,37.7961697 209.130559,37.6616211 C208.967333,37.4774693 208.735948,37.3722397 208.436402,37.3459323 L208.28095,37.3393555 L207.907414,37.3393555 L207.907414,37.0683594 L211.525578,37.0683594 Z M181.471492,37.0683594 L181.581355,39.3974609 L181.303035,39.3974609 L181.27882,39.2288544 C181.227999,38.9059909 181.162828,38.6692243 181.083308,38.5185547 C180.931941,38.2353516 180.730525,38.0266113 180.47906,37.892334 C180.269506,37.7804362 180.004851,37.7151625 179.685095,37.6965129 L179.486629,37.690918 L178.087703,37.690918 L178.087703,45.2788086 L178.090144,45.4737594 C178.103165,45.9709623 178.168269,46.2868381 178.285457,46.4213867 C178.444497,46.597168 178.677078,46.6976144 178.983201,46.722726 L179.14239,46.7290039 L179.486629,46.7290039 L179.486629,47 L175.275203,47 L175.275203,46.7290039 L175.626765,46.7290039 L175.778514,46.723053 C176.119243,46.695282 176.366511,46.5703125 176.52032,46.3481445 C176.615806,46.2092556 176.668854,45.9121877 176.679464,45.4569408 L176.681453,45.2788086 L176.681453,37.690918 L175.487605,37.690918 L175.297026,37.6930106 C174.93231,37.7013811 174.666246,37.7348633 174.498836,37.793457 C174.244929,37.8862305 174.027644,38.0644531 173.84698,38.328125 C173.692125,38.5541295 173.591081,38.848294 173.543847,39.2106186 L173.524715,39.3974609 L173.246394,39.3974609 L173.363582,37.0683594 L181.471492,37.0683594 Z M149.34668,37.3759766 C148.458008,37.3759766 147.745117,37.7055664 147.208008,38.3647461 C146.539062,39.1850586 146.20459,40.3862305 146.20459,41.9682617 C146.20459,43.5893555 146.55127,44.8369141 147.244629,45.7109375 C147.776855,46.375 148.47998,46.7070312 149.354004,46.7070312 C150.286621,46.7070312 151.056885,46.3432617 151.664795,45.6157227 C152.272705,44.8881836 152.57666,43.7407227 152.57666,42.1733398 C152.57666,40.4741211 152.242188,39.2070312 151.573242,38.3720703 C151.036133,37.7080078 150.293945,37.3759766 149.34668,37.3759766 Z M221.986591,40.5693359 C221.727802,40.5693359 221.467792,40.6462402 221.206562,40.8000488 C220.945331,40.9538574 220.73415,41.2236328 220.573017,41.609375 C220.411884,41.9951172 220.331318,42.4907227 220.331318,43.0961914 C220.331318,44.0727539 220.525409,44.9150391 220.913593,45.6230469 C221.301777,46.3310547 221.813251,46.6850586 222.448017,46.6850586 C222.92165,46.6850586 223.312275,46.4897461 223.619892,46.0991211 C223.927509,45.7084961 224.081318,45.0371094 224.081318,44.0849609 C224.081318,42.8935547 223.82497,41.9560547 223.312275,41.2724609 C222.965595,40.8037109 222.5237,40.5693359 221.986591,40.5693359 Z M237.891526,40.5400391 C237.461839,40.5400391 237.078538,40.7329102 236.741624,41.1186523 C236.297288,41.6264648 236.07512,42.3686523 236.07512,43.3452148 C236.07512,44.331543 236.289964,45.0871582 236.719651,45.6120605 C237.149339,46.1369629 237.627855,46.3994141 238.155198,46.3994141 C238.550164,46.3994141 238.933555,46.2238739 239.305372,45.8727937 L239.444261,45.7329102 L239.444261,42.2758789 L239.419651,42.0801758 C239.377464,41.8239258 239.297776,41.5864258 239.180589,41.3676758 C239.034105,41.0942383 238.840013,40.8879395 238.598314,40.7487793 C238.356614,40.6096191 238.121019,40.5400391 237.891526,40.5400391 Z M231.041354,45.5571289 L231.041354,43.0009766 L230.448312,43.2415771 L230.448312,43.2415771 L230.131319,43.3763428 L230.131319,43.3763428 L229.877023,43.4906006 L229.877023,43.4906006 L229.685421,43.5843506 C229.658712,43.5982666 229.634615,43.6113281 229.613131,43.6235352 C229.227389,43.8383789 228.95151,44.0629883 228.785494,44.2973633 C228.619479,44.5317383 228.536471,44.7880859 228.536471,45.0664062 C228.536471,45.4179687 228.641451,45.7097168 228.851412,45.9416504 C229.061373,46.173584 229.303072,46.2895508 229.57651,46.2895508 C229.910494,46.2895508 230.339401,46.0917969 230.863229,45.6962891 L231.041354,45.5571289 Z M194.314904,40.605957 C193.90963,40.605957 193.547082,40.7634277 193.227257,41.0783691 C192.947411,41.3539429 192.769436,41.7239113 192.693333,42.1882744 L192.666955,42.3930664 L195.772423,42.3930664 C195.748009,41.9633789 195.69674,41.6606445 195.618615,41.4848633 C195.496544,41.2114258 195.31466,40.996582 195.07296,40.840332 C194.831261,40.684082 194.578576,40.605957 194.314904,40.605957 Z M211.884465,37.625 C211.648463,37.625 211.342948,37.657213 210.967921,37.721639 L210.734563,37.7641602 L210.734563,41.8950195 L211.144719,41.9023437 L211.144719,41.9023437 C212.091985,41.9023437 212.806096,41.6972656 213.287053,41.2871094 C213.76801,40.8769531 214.008489,40.3544922 214.008489,39.7197266 C214.008489,39.0996094 213.814397,38.595459 213.426213,38.2072754 C213.03803,37.8190918 212.524114,37.625 211.884465,37.625 Z M90.1584645,34 C90.7107493,34 91.1584645,34.4477153 91.1584645,35 L91.1584645,37.3529728 C91.1584645,37.9052576 90.7107493,38.3529728 90.1584645,38.3529728 L82.6049839,38.3529728 C82.0526992,38.3529728 81.6049839,37.9052576 81.6049839,37.3529728 L81.6049839,35 C81.6049839,34.4477153 82.0526992,34 82.6049839,34 L90.1584645,34 Z M72.115195,34 C72.6674798,34 73.115195,34.4477153 73.115195,35 L73.115195,37.3529728 C73.115195,37.9052576 72.6674798,38.3529728 72.115195,38.3529728 L51.6340162,38.3529728 C51.0817315,38.3529728 50.6340162,37.9052576 50.6340162,37.3529728 L50.6340162,35 C50.6340162,34.4477153 51.0817315,34 51.6340162,34 L72.115195,34 Z M121.129432,34 C121.681717,34 122.129432,34.4477153 122.129432,35 L122.129432,37.3529728 C122.129432,37.9052576 121.681717,38.3529728 121.129432,38.3529728 L100.648253,38.3529728 C100.095969,38.3529728 99.6482535,37.9052576 99.6482535,37.3529728 L99.6482535,35 C99.6482535,34.4477153 100.095969,34 100.648253,34 L121.129432,34 Z" id="形状"></path>
        </g>
    </g>
</svg>