<?xml version="1.0" encoding="utf-8"?>
<!-- Generator: Adobe Illustrator 22.1.0, SVG Export Plug-In . SVG Version: 6.00 Build 0)  -->
<svg version="1.1" id="组_1" xmlns="http://www.w3.org/2000/svg" xmlns:xlink="http://www.w3.org/1999/xlink" x="0px" y="0px"
	 viewBox="0 0 364 167" style="enable-background:new 0 0 364 167;" xml:space="preserve">
<style type="text/css">
	.st0{opacity:0.2;fill:#595C61;}
</style>
<path class="st0" d="M18,1.4v5.6C12.2,9,9.3,12.5,9.3,17.4c0,0.8,0.1,1.8,0.2,2.9h8.2v17.2H0.2V22.8C0.2,11.1,6.1,3.9,18,1.4z
	 M47.8,1.4v5.7c-5.6,2.7-8.3,6.1-8.3,10.2c0,0.6,0.1,1.6,0.2,2.9h8.2v17.2h-18V22.8C29.9,11,35.9,3.9,47.8,1.4z M315.3,166.5v-6.7
	c5.8-2.6,8.7-7,8.7-13.4h-8.4v-17.7h17.9v11.7C333.5,153.1,327.4,161.9,315.3,166.5z M345.7,166.5v-6.2c5.5-2.1,8.5-6.5,8.9-13.3
	h-8.5v-18.1h17.7v11.5c0,8.1-1.2,13.9-3.6,17.4S352.9,164.2,345.7,166.5z"/>
</svg>
