<?xml version="1.0" encoding="UTF-8"?>
<svg width="284px" height="262px" viewBox="0 0 284 262" version="1.1" xmlns="http://www.w3.org/2000/svg" xmlns:xlink="http://www.w3.org/1999/xlink">
    <title>形状结合</title>
    <g id="Detail" stroke="none" stroke-width="1" fill="none" fill-rule="evenodd">
        <g id="画板备份-7" transform="translate(-818.000000, -437.000000)" fill="#FFFFFF" fill-rule="nonzero">
            <path d="M915.860156,671.152344 C919.297656,671.152344 922.276172,672.457682 924.795703,675.068359 C927.315234,677.679036 928.575,680.9375 928.575,684.84375 C928.575,688.867188 927.305469,692.207031 924.766406,694.863281 C922.227344,697.519531 919.154427,698.847656 915.547656,698.847656 C911.901823,698.847656 908.838672,697.552083 906.358203,694.960938 C903.877734,692.369792 902.6375,689.016927 902.6375,684.902344 C902.6375,680.696615 904.069792,677.265625 906.934375,674.609375 C909.421354,672.304688 912.396615,671.152344 915.860156,671.152344 Z M1083.06953,671.757812 C1087.02786,671.757812 1090.03893,672.207031 1092.10273,673.105469 C1094.16654,674.003906 1095.82669,675.501302 1097.0832,677.597656 C1098.33971,679.69401 1098.96797,682.115885 1098.96797,684.863281 C1098.96797,688.548177 1097.84818,691.627604 1095.60859,694.101562 C1093.09557,696.861979 1089.26745,698.242188 1084.12422,698.242188 L1072.28828,698.242188 L1072.28828,697.519531 L1073.28437,697.519531 C1074.40417,697.519531 1075.19844,697.161458 1075.66719,696.445312 C1075.95365,696.015625 1076.09687,695.052083 1076.09687,693.554688 L1076.09687,676.445312 C1076.09687,674.791667 1075.91458,673.75651 1075.55,673.339844 C1075.04219,672.766927 1074.28698,672.480469 1073.28437,672.480469 L1072.28828,672.480469 L1072.28828,671.757812 L1083.06953,671.757812 Z M1001.08594,671.152344 L1010.30469,693.183594 C1011.04688,694.954427 1011.7207,696.103516 1012.32617,696.630859 C1012.93164,697.158203 1013.77474,697.454427 1014.85547,697.519531 L1014.85547,698.242188 L1004.40625,698.242188 L1004.40625,697.519531 C1005.46094,697.467448 1006.17383,697.291667 1006.54492,696.992188 C1006.91602,696.692708 1007.10156,696.328125 1007.10156,695.898438 C1007.10156,695.325521 1006.84115,694.420573 1006.32031,693.183594 L1004.71875,689.375 L994.464844,689.375 L992.667969,693.554688 C992.22526,694.583333 992.003906,695.351562 992.003906,695.859375 C992.003906,696.263021 992.195964,696.617839 992.580078,696.923828 C992.964193,697.229818 993.794271,697.428385 995.070313,697.519531 L995.070313,698.242188 L986.730469,698.242188 L986.730469,697.519531 C987.83724,697.324219 988.553385,697.070312 988.878906,696.757812 C989.542969,696.132812 990.278646,694.863281 991.085938,692.949219 L1000.40234,671.152344 L1001.08594,671.152344 Z M828.583594,671.757812 C831.396094,671.757812 833.469661,671.962891 834.804297,672.373047 C836.138932,672.783203 837.271745,673.538411 838.202734,674.638672 C839.133724,675.738932 839.599219,677.050781 839.599219,678.574219 C839.599219,680.201823 839.06862,681.614583 838.007422,682.8125 C836.946224,684.010417 835.302344,684.856771 833.075781,685.351562 L838.544531,692.949219 C839.794531,694.69401 840.86875,695.852865 841.767188,696.425781 C842.665625,696.998698 843.8375,697.363281 845.282813,697.519531 L845.282813,698.242188 L838.2125,698.242188 L829.247656,685.859375 C828.583594,685.885417 828.043229,685.898438 827.626563,685.898438 C827.457292,685.898438 827.275,685.895182 827.079688,685.888672 C826.884375,685.882161 826.682552,685.872396 826.474219,685.859375 L826.474219,693.554688 C826.474219,695.221354 826.65651,696.25651 827.021094,696.660156 C827.515885,697.233073 828.258073,697.519531 829.247656,697.519531 L830.282813,697.519531 L830.282813,698.242188 L818.935156,698.242188 L818.935156,697.519531 L819.93125,697.519531 C821.051042,697.519531 821.851823,697.154948 822.333594,696.425781 C822.607031,696.022135 822.74375,695.065104 822.74375,693.554688 L822.74375,676.445312 C822.74375,674.778646 822.561458,673.74349 822.196875,673.339844 C821.689063,672.766927 820.933854,672.480469 819.93125,672.480469 L818.935156,672.480469 L818.935156,671.757812 L828.583594,671.757812 Z M915.489063,672.578125 C913.119271,672.578125 911.218229,673.457031 909.785938,675.214844 C908.002083,677.402344 907.110156,680.605469 907.110156,684.824219 C907.110156,689.147135 908.034635,692.473958 909.883594,694.804688 C911.302865,696.575521 913.177865,697.460938 915.508594,697.460938 C917.995573,697.460938 920.049609,696.490885 921.670703,694.550781 C923.291797,692.610677 924.102344,689.550781 924.102344,685.371094 C924.102344,680.839844 923.210417,677.460938 921.426563,675.234375 C919.994271,673.463542 918.015104,672.578125 915.489063,672.578125 Z M1083.85078,673.242188 C1082.67891,673.242188 1081.34427,673.43099 1079.84687,673.808594 L1079.84687,696.328125 C1081.50052,696.692708 1082.88724,696.875 1084.00703,696.875 C1087.02786,696.875 1089.53437,695.813802 1091.52656,693.691406 C1093.51875,691.56901 1094.51484,688.691406 1094.51484,685.058594 C1094.51484,681.39974 1093.51875,678.515625 1091.52656,676.40625 C1089.53437,674.296875 1086.97578,673.242188 1083.85078,673.242188 Z M999.679688,677.226562 L995.070313,687.929688 L1004.17188,687.929688 L999.679688,677.226562 Z M829.540625,673.242188 C828.785417,673.242188 827.763281,673.365885 826.474219,673.613281 L826.474219,684.628906 C826.721615,684.628906 826.936458,684.632161 827.11875,684.638672 C827.301042,684.645182 827.450781,684.648438 827.567969,684.648438 C830.09401,684.648438 831.998307,684.101562 833.280859,683.007812 C834.563411,681.914062 835.204688,680.520833 835.204688,678.828125 C835.204688,677.174479 834.687109,675.830078 833.651953,674.794922 C832.616797,673.759766 831.246354,673.242188 829.540625,673.242188 Z M1020.58352,619.692188 C1020.85419,619.701521 1021.24852,619.736521 1021.76652,619.797188 C1022.28452,619.857854 1022.59952,619.918521 1022.71152,619.979188 C1022.82352,620.039854 1022.87952,620.107521 1022.87952,620.182188 C1022.87952,620.312854 1022.74419,620.429521 1022.47352,620.532188 L1022.47352,624.648188 L1023.69152,624.648188 C1023.91552,624.200188 1024.09519,623.880521 1024.23052,623.689188 C1024.36586,623.497854 1024.48019,623.402188 1024.57352,623.402188 C1024.72286,623.402188 1025.03552,623.635521 1025.51152,624.102188 C1025.98752,624.568854 1026.22552,624.853521 1026.22552,624.956188 C1026.22552,625.058854 1026.13686,625.110188 1025.95952,625.110188 L1022.47352,625.110188 L1022.47352,630.780188 C1022.47352,631.088188 1022.48286,631.414854 1022.50152,631.760188 L1022.51552,632.236188 C1022.51552,632.338854 1022.48519,632.422854 1022.42452,632.488188 C1022.36386,632.553521 1022.17952,632.630521 1021.87152,632.719188 C1021.56352,632.807854 1021.29286,632.852188 1021.05952,632.852188 C1020.82619,632.852188 1020.68619,632.826521 1020.63952,632.775188 C1020.59286,632.723854 1020.56952,632.637521 1020.56952,632.516188 L1020.58352,631.970188 C1020.60219,631.596854 1020.61152,631.176854 1020.61152,630.710188 L1020.61152,625.110188 L1017.96552,625.110188 C1017.77886,625.110188 1017.61086,625.161521 1017.46152,625.264188 L1017.09752,624.606188 C1017.32152,624.634188 1017.55486,624.648188 1017.79752,624.648188 L1020.61152,624.648188 L1020.61152,620.938188 C1020.61152,620.471521 1020.60219,620.056188 1020.58352,619.692188 Z M973.490755,619.552187 C973.976088,619.906854 974.363421,620.193854 974.652755,620.413188 C974.942088,620.632521 975.105421,620.767854 975.142755,620.819187 C975.180088,620.870521 975.198755,620.914854 975.198755,620.952188 C975.198755,620.989521 975.194088,621.017521 975.184755,621.036187 L978.964755,621.036187 C979.300755,620.522854 979.487421,620.247521 979.524755,620.210187 C979.562088,620.172854 979.604088,620.154188 979.650755,620.154188 C979.734755,620.154188 980.068421,620.357188 980.651755,620.763187 C981.235088,621.169187 981.526755,621.439854 981.526755,621.575187 C981.526755,621.710521 981.340088,621.838854 980.966755,621.960187 L980.929421,622.551644 C980.885866,623.205784 980.84231,623.734299 980.798755,624.137187 C980.742755,624.655188 980.679755,625.002854 980.609755,625.180187 C980.539755,625.357521 980.423088,625.518521 980.259755,625.663188 C980.096421,625.807854 979.872421,625.924521 979.587755,626.013187 C979.303088,626.101854 979.055755,626.146187 978.845755,626.146187 C978.635755,626.146187 978.502755,626.125187 978.446755,626.083187 C978.390755,626.041187 978.353421,625.954854 978.334755,625.824187 C978.222755,625.245521 977.676755,624.881521 976.696755,624.732188 C976.164755,625.348187 975.518421,625.800854 974.757755,626.090187 C973.997088,626.379521 973.528088,626.524187 973.350755,626.524187 C973.313421,626.524187 973.294755,626.514854 973.294755,626.496187 C973.294755,626.468187 973.369421,626.402854 973.518755,626.300187 C974.582755,625.600187 975.250088,624.921187 975.520755,624.263187 C975.791421,623.605187 975.964088,622.683521 976.038755,621.498187 L975.478755,621.498187 C975.292088,621.498187 975.124088,621.549521 974.974755,621.652187 L974.652755,621.064187 C974.279421,621.036187 973.290088,621.148187 971.684755,621.400187 C971.647421,621.484187 971.549421,621.558854 971.390755,621.624187 L971.390755,624.284187 C971.941421,624.088188 972.482755,623.850187 973.014755,623.570187 C972.846755,623.178187 972.548088,622.823521 972.118755,622.506187 C972.025421,622.440854 971.978755,622.391854 971.978755,622.359187 C971.978755,622.326521 972.006755,622.310187 972.062755,622.310187 C972.193421,622.310187 972.541088,622.401187 973.105755,622.583187 C973.670421,622.765187 974.120755,623.003187 974.456755,623.297187 C974.792755,623.591187 974.960755,623.906187 974.960755,624.242188 C974.960755,624.578188 974.860421,624.846521 974.659755,625.047187 C974.459088,625.247854 974.204755,625.348187 973.896755,625.348187 C973.728755,625.348187 973.574755,625.268854 973.434755,625.110187 C973.294755,624.951521 973.217755,624.741521 973.203755,624.480188 C973.189755,624.218854 973.164088,624.027521 973.126755,623.906187 C972.137421,624.792854 971.292755,625.618854 970.592755,626.384188 C971.320755,626.514854 971.829421,626.645521 972.118755,626.776187 L978.054755,626.776187 C978.185421,626.561521 978.278755,626.426187 978.334755,626.370187 C978.390755,626.314187 978.453755,626.286187 978.523755,626.286187 C978.593755,626.286187 978.838755,626.381854 979.258755,626.573187 C979.678755,626.764521 979.996088,626.932521 980.210755,627.077188 C980.425421,627.221854 980.532755,627.352521 980.532755,627.469187 C980.532755,627.585854 980.355421,627.714187 980.000755,627.854187 L980.000755,630.766187 L980.028755,632.180187 C980.028755,632.282854 980.017088,632.352854 979.993755,632.390187 C979.970421,632.427521 979.884088,632.474187 979.734755,632.530188 C979.585421,632.586187 979.349755,632.639854 979.027755,632.691187 C978.705755,632.742521 978.474755,632.768187 978.334755,632.768187 C978.250755,632.768187 978.208755,632.688854 978.208755,632.530188 L978.208755,631.830187 L972.188755,631.830187 L972.188755,632.236187 C972.188755,632.320187 972.172421,632.378521 972.139755,632.411187 C972.107088,632.443854 972.020755,632.490521 971.880755,632.551187 C971.740755,632.611854 971.521421,632.665521 971.222755,632.712188 C970.924088,632.758854 970.718755,632.782187 970.606755,632.782187 C970.550755,632.782187 970.522755,632.744854 970.522755,632.670187 L970.536755,631.844187 C970.544533,631.62641 970.54907,631.347058 970.550366,631.006132 L970.550755,627.840187 C970.550755,627.326854 970.541421,626.869521 970.522755,626.468187 C970.466755,626.524187 970.420088,626.552187 970.382755,626.552187 C970.345421,626.552187 970.301088,626.521854 970.249755,626.461188 C970.198421,626.400521 970.072421,626.213854 969.871755,625.901187 C969.671088,625.588521 969.528755,625.350521 969.444755,625.187187 C969.360755,625.023854 969.318755,624.921187 969.318755,624.879187 C969.318755,624.837187 969.346755,624.797521 969.402755,624.760188 C969.561421,624.676187 969.668755,624.603854 969.724755,624.543187 C969.780755,624.482521 969.808755,624.386854 969.808755,624.256187 L969.808755,621.876188 C969.808755,621.390854 969.799421,620.966187 969.780755,620.602187 C970.331421,620.732854 970.821421,620.886854 971.250755,621.064187 C971.670755,620.914854 972.417421,620.410854 973.490755,619.552187 Z M908.381601,619.692187 C908.941601,619.850854 909.412934,620.002521 909.795601,620.147187 C910.178268,620.291854 910.409268,620.387521 910.488601,620.434187 C910.567934,620.480854 910.607601,620.534521 910.607601,620.595187 C910.607601,620.655854 910.542268,620.704854 910.411601,620.742187 C910.280934,620.779521 909.851601,621.516854 909.123601,622.954187 L913.001601,622.954187 C913.262934,622.459521 913.440268,622.146854 913.533601,622.016187 C913.626934,621.885521 913.715601,621.820187 913.799601,621.820187 C913.883601,621.820187 914.065601,621.927521 914.345601,622.142187 L915.129601,622.786187 C915.390934,623.000854 915.521601,623.159521 915.521601,623.262187 C915.521601,623.364854 915.432934,623.416187 915.255601,623.416187 L912.833601,623.416187 C912.786934,623.518854 912.707601,623.616854 912.595601,623.710187 L912.595601,625.558187 L912.889601,625.558187 C913.150934,625.054187 913.316601,624.746187 913.386601,624.634187 C913.456601,624.522187 913.538268,624.466187 913.631601,624.466187 C913.724934,624.466187 913.997934,624.676187 914.450601,625.096187 C914.903268,625.516187 915.129601,625.775187 915.129601,625.873187 C915.129601,625.971187 915.040934,626.020187 914.863601,626.020187 L912.595601,626.020187 L912.595601,628.134187 L912.903601,628.134187 L913.351601,627.322187 C913.435601,627.172854 913.531268,627.098187 913.638601,627.098187 C913.745934,627.098187 914.044601,627.296521 914.534601,627.693187 C915.024601,628.089854 915.269601,628.339521 915.269601,628.442187 C915.269601,628.544854 915.176268,628.596187 914.989601,628.596187 L912.595601,628.596187 L912.595601,631.074187 L913.281601,631.074187 C913.542934,630.542187 913.717934,630.208521 913.806601,630.073187 C913.895268,629.937854 913.986268,629.870187 914.079601,629.870187 C914.172934,629.870187 914.373601,630.005521 914.681601,630.276187 L915.451601,630.976187 C915.675601,631.162854 915.787601,631.302854 915.787601,631.396187 C915.787601,631.489521 915.694268,631.536187 915.507601,631.536187 L909.347601,631.536187 L909.347601,632.264187 C909.347601,632.460187 909.200601,632.595521 908.906601,632.670187 C908.612601,632.744854 908.355934,632.782187 908.136601,632.782187 C907.917268,632.782187 907.786601,632.768187 907.744601,632.740187 C907.702601,632.712187 907.681601,632.660854 907.681601,632.586187 L907.695601,631.410187 C907.704934,631.008854 907.709601,630.602854 907.709601,630.192187 L907.709601,628.764187 C906.916268,629.594854 906.076268,630.784854 905.189601,632.334187 C905.124268,632.455521 905.070601,632.516187 905.028601,632.516187 C904.986601,632.516187 904.942268,632.490521 904.895601,632.439187 C904.848934,632.387854 904.718268,632.187187 904.503601,631.837187 C904.288934,631.487187 904.123268,631.195521 904.006601,630.962187 C903.889934,630.728854 903.831601,630.581854 903.831601,630.521187 C903.831601,630.460521 903.880601,630.388187 903.978601,630.304187 C904.076601,630.220187 904.146601,630.133854 904.188601,630.045187 C904.230601,629.956521 904.251601,629.800187 904.251601,629.576187 L904.251601,625.166187 L903.201601,625.166187 C903.014934,625.166187 902.846934,625.217521 902.697601,625.320187 L902.333601,624.662187 C902.557601,624.690187 902.790934,624.704187 903.033601,624.704187 L904.041601,624.704187 C904.069601,624.638854 904.155934,624.494187 904.300601,624.270187 C904.445268,624.046187 904.531601,623.922521 904.559601,623.899187 C904.587601,623.875854 904.615601,623.864187 904.643601,623.864187 C904.718268,623.864187 905.016934,624.020521 905.539601,624.333187 C906.062268,624.645854 906.323601,624.867521 906.323601,624.998187 C906.323601,625.128854 906.155601,625.245521 905.819601,625.348187 L905.819601,629.604187 C906.500934,629.240187 907.130934,628.894854 907.709601,628.568187 L907.709601,625.068187 C907.457601,625.366854 907.165934,625.681854 906.834601,626.013187 C906.503268,626.344521 906.295601,626.542854 906.211601,626.608187 C906.127601,626.673521 906.066934,626.706187 906.029601,626.706187 C905.992268,626.706187 905.973601,626.675854 905.973601,626.615187 C905.973601,626.554521 906.038934,626.416854 906.169601,626.202187 C906.878934,624.979521 907.396934,623.910854 907.723601,622.996187 C908.050268,622.081521 908.269601,620.980187 908.381601,619.692187 Z M1002.14714,620.070187 C1002.26847,620.070187 1002.60681,620.308188 1003.16214,620.784188 C1003.71747,621.260188 1003.99514,621.568188 1003.99514,621.708188 C1003.99514,621.801521 1003.90181,621.848187 1003.71514,621.848187 L998.311139,621.848187 C998.255139,622.006854 998.115139,622.109521 997.891139,622.156187 L997.891139,624.396187 C999.225806,624.508187 1000.29447,624.809188 1001.09714,625.299188 C1001.89981,625.789188 1002.30114,626.309521 1002.30114,626.860188 C1002.30114,627.196187 1002.18681,627.485521 1001.95814,627.728187 C1001.72947,627.970854 1001.47747,628.092188 1001.20214,628.092188 C1000.92681,628.092188 1000.71914,628.022187 1000.57914,627.882187 C1000.43914,627.742188 1000.33647,627.518187 1000.27114,627.210187 C1000.04714,626.136854 999.253806,625.268854 997.891139,624.606188 L997.891139,630.598187 C997.891139,631.018187 997.898139,631.368187 997.912139,631.648187 C997.926139,631.928188 997.933139,632.096188 997.933139,632.152187 C997.933139,632.208188 997.886473,632.271187 997.793139,632.341188 C997.699806,632.411187 997.510806,632.483521 997.226139,632.558188 C996.941473,632.632854 996.603139,632.670187 996.211139,632.670187 C996.089806,632.670187 996.029139,632.581521 996.029139,632.404188 L996.057139,631.858187 C996.064139,631.578188 996.068514,631.271938 996.070264,630.939438 L996.071139,621.848187 L991.745139,621.848187 C991.558473,621.848187 991.390473,621.899521 991.241139,622.002187 L990.877139,621.344187 C991.101139,621.372187 991.334473,621.386188 991.577139,621.386188 L1001.18114,621.386188 C1001.65714,620.508854 1001.97914,620.070187 1002.14714,620.070187 Z M1015.83752,619.566188 C1016.38819,619.687521 1016.91319,619.836854 1017.41252,620.014188 C1017.91186,620.191521 1018.19186,620.308188 1018.25252,620.364188 C1018.31319,620.420188 1018.34352,620.476188 1018.34352,620.532188 C1018.34352,620.653521 1018.24086,620.737521 1018.03552,620.784188 C1017.92352,620.802854 1017.80686,620.905521 1017.68552,621.092188 C1017.56419,621.278854 1017.37986,621.635854 1017.13252,622.163188 C1016.88519,622.690521 1016.66819,623.108188 1016.48152,623.416188 C1016.81752,623.472188 1017.02519,623.521188 1017.10452,623.563188 C1017.18386,623.605188 1017.22352,623.663521 1017.22352,623.738188 C1017.22352,623.859521 1017.11619,623.971521 1016.90152,624.074188 L1016.90152,632.082188 C1016.90152,632.194188 1016.87352,632.278188 1016.81752,632.334188 C1016.76152,632.390188 1016.57252,632.457854 1016.25052,632.537188 C1015.92852,632.616521 1015.63919,632.656188 1015.38252,632.656188 C1015.12586,632.656188 1014.99752,632.572188 1014.99752,632.404188 L1015.03952,631.172188 C1015.04886,630.798854 1015.05352,630.444188 1015.05352,630.108188 L1015.05352,625.292188 C1014.66152,625.702854 1014.23219,626.099521 1013.76552,626.482188 C1013.29886,626.864854 1013.03519,627.072521 1012.97452,627.105188 C1012.91386,627.137854 1012.86252,627.154188 1012.82052,627.154188 C1012.77852,627.154188 1012.75752,627.126188 1012.75752,627.070188 C1012.75752,627.014188 1012.79486,626.944188 1012.86952,626.860188 C1014.35352,625.058854 1015.34286,622.627521 1015.83752,619.566188 Z M955.92237,620.364187 C956.053037,620.364187 956.473037,620.588187 957.18237,621.036187 C957.891704,621.484187 958.24637,621.792187 958.24637,621.960187 C958.24637,622.081521 958.150704,622.158521 957.95937,622.191187 C957.768037,622.223854 957.642037,622.263521 957.58137,622.310187 C957.520704,622.356854 957.457704,622.464187 957.39237,622.632187 C956.49637,624.862854 955.521037,626.626854 954.46637,627.924187 C955.987704,629.053521 957.82637,629.865521 959.98237,630.360187 C960.09437,630.388187 960.15037,630.425521 960.15037,630.472187 C960.15037,630.518854 960.075704,630.556187 959.92637,630.584187 C959.553037,630.658854 959.200704,630.838521 958.86937,631.123187 C958.538037,631.407854 958.28837,631.741521 958.12037,632.124187 C958.073704,632.226854 958.003704,632.278187 957.91037,632.278187 C957.68637,632.278187 957.033037,631.942187 955.95037,631.270187 C954.867704,630.598187 953.97637,629.907521 953.27637,629.198187 C952.137704,630.234187 950.84037,631.062521 949.38437,631.683187 C947.92837,632.303854 947.079037,632.614187 946.83637,632.614187 C946.78037,632.614187 946.75237,632.595521 946.75237,632.558187 C946.75237,632.520854 946.813037,632.474187 946.93437,632.418187 C949.165037,631.326187 950.989704,629.921521 952.40837,628.204187 C951.139037,626.589521 950.327037,624.452187 949.97237,621.792187 L948.88037,621.792187 C948.693704,621.792187 948.525704,621.843521 948.37637,621.946187 L948.01237,621.288187 C948.23637,621.316187 948.469704,621.330187 948.71237,621.330187 L955.16637,621.330187 C955.399704,620.938187 955.56537,620.679187 955.66337,620.553187 C955.76137,620.427187 955.847704,620.364187 955.92237,620.364187 Z M885.787216,622.240188 C886.291216,622.286854 886.753216,622.347521 887.173216,622.422187 C887.593216,622.496854 887.84055,622.562188 887.915216,622.618187 C887.989883,622.674188 888.027216,622.741854 888.027216,622.821187 C888.027216,622.900521 887.961883,622.968187 887.831216,623.024188 C887.709883,623.080187 887.639883,623.257521 887.621216,623.556187 C887.51855,624.769521 887.415883,625.651521 887.313216,626.202188 C887.93855,626.267521 888.33055,626.325854 888.489216,626.377187 C888.647883,626.428521 888.727216,626.500854 888.727216,626.594187 C888.727216,626.687521 888.657216,626.780854 888.517216,626.874187 L888.517216,630.164188 C888.517216,630.276188 888.542883,630.376521 888.594216,630.465187 C888.64555,630.553854 888.70855,630.619187 888.783216,630.661187 C888.857883,630.703188 889.03055,630.735854 889.301216,630.759188 C889.571883,630.782521 889.84255,630.794188 890.113216,630.794188 C890.859883,630.794188 891.32655,630.719521 891.513216,630.570187 C891.699883,630.420854 891.874883,630.145521 892.038216,629.744187 C892.20155,629.342854 892.37655,628.787521 892.563216,628.078188 C892.591216,627.975521 892.633216,627.924188 892.689216,627.924188 C892.763883,627.924188 892.787216,627.989521 892.759216,628.120188 C892.693883,628.521521 892.661216,628.880854 892.661216,629.198188 C892.661216,630.084854 892.871216,630.588854 893.291216,630.710187 C893.487216,630.766188 893.585216,630.864188 893.585216,631.004187 C893.585216,631.144188 893.487216,631.344854 893.291216,631.606188 C893.095216,631.867521 892.742883,632.044854 892.234216,632.138187 C891.72555,632.231521 891.01855,632.278188 890.113216,632.278188 C889.207883,632.278188 888.545216,632.245521 888.125216,632.180187 C887.705216,632.114854 887.39255,631.965521 887.187216,631.732188 C886.981883,631.498854 886.879216,631.144188 886.879216,630.668188 L886.879216,627.952188 C886.515216,628.988188 885.962216,629.818854 885.220216,630.444187 C884.478216,631.069521 883.544883,631.582854 882.420216,631.984187 C881.29555,632.385521 880.639883,632.586188 880.453216,632.586188 C880.369216,632.586188 880.327216,632.560521 880.327216,632.509188 C880.327216,632.457854 880.39255,632.404188 880.523216,632.348187 C881.98855,631.750854 883.08055,631.125521 883.799216,630.472188 C884.517883,629.818854 885.03355,629.004521 885.346216,628.029188 C885.658883,627.053854 885.815216,625.637521 885.815216,623.780188 C885.815216,623.322854 885.805883,622.809521 885.787216,622.240188 Z M926.859986,628.092187 C927.625319,628.092187 928.007986,628.577521 928.007986,629.548187 C928.007986,630.285521 927.825986,630.873521 927.461986,631.312187 C927.097986,631.750854 926.519319,632.170854 925.725986,632.572187 L925.529986,632.194187 C926.024652,631.876854 926.395652,631.575854 926.642986,631.291187 C926.890319,631.006521 927.013986,630.780187 927.013986,630.612187 C927.013986,630.444187 926.990652,630.334521 926.943986,630.283187 C926.897319,630.231854 926.813319,630.206187 926.691986,630.206187 C926.057319,630.206187 925.739986,629.860854 925.739986,629.170187 C925.739986,628.843521 925.842652,628.582187 926.047986,628.386187 C926.253319,628.190187 926.523986,628.092187 926.859986,628.092187 Z M860.378832,624.088187 C860.462832,624.088187 860.756832,624.235187 861.260832,624.529187 C861.764832,624.823187 862.016832,625.023854 862.016832,625.131187 C862.016832,625.238521 861.853498,625.352854 861.526832,625.474187 L861.526832,630.066187 C861.928165,630.430187 862.401832,630.675187 862.947832,630.801187 C863.493832,630.927187 864.308165,630.990187 865.390832,630.990187 C866.977498,630.990187 868.342498,630.941187 869.485832,630.843187 C870.629165,630.745187 871.235832,630.696187 871.305832,630.696187 C871.375832,630.696187 871.410832,630.710187 871.410832,630.738187 C871.410832,630.766187 871.294165,630.838521 871.060832,630.955187 C870.827498,631.071854 870.650165,631.216521 870.528832,631.389187 C870.407498,631.561854 870.332832,631.757854 870.304832,631.977187 C870.276832,632.196521 870.244165,632.324854 870.206832,632.362187 C870.169498,632.399521 870.111165,632.418187 870.031832,632.418187 C869.952498,632.418187 869.805498,632.422854 869.590832,632.432187 L868.554832,632.460187 C868.069498,632.469521 867.430165,632.474187 866.636832,632.474187 C865.843498,632.474187 865.113165,632.441521 864.445832,632.376187 C863.778498,632.310854 863.295498,632.231521 862.996832,632.138187 C862.698165,632.044854 862.422832,631.895521 862.170832,631.690187 C861.918832,631.484854 861.615498,631.158187 861.260832,630.710187 C861.111498,630.514187 860.976165,630.416187 860.854832,630.416187 C860.602832,630.416187 860.122165,631.013521 859.412832,632.208187 C859.347498,632.320187 859.293832,632.376187 859.251832,632.376187 C859.209832,632.376187 859.172498,632.355187 859.139832,632.313187 C859.107165,632.271187 859.002165,632.089187 858.824832,631.767187 C858.647498,631.445187 858.479498,631.092854 858.320832,630.710187 C859.114165,630.364854 859.664832,630.140854 859.972832,630.038187 L859.972832,625.292187 L859.174832,625.292187 C858.922832,625.292187 858.726832,625.324854 858.586832,625.390187 L858.292832,624.760187 C858.488832,624.806854 858.722165,624.830187 858.992832,624.830187 L859.804832,624.830187 C859.879498,624.680854 859.965832,624.538521 860.063832,624.403187 C860.161832,624.267854 860.227165,624.181521 860.259832,624.144187 C860.292498,624.106854 860.332165,624.088187 860.378832,624.088187 Z M1043.00991,623.038188 C1043.49524,623.262187 1043.95024,623.502521 1044.37491,623.759188 C1044.79958,624.015854 1045.06324,624.186188 1045.16591,624.270188 C1045.26858,624.354188 1045.31991,624.433521 1045.31991,624.508187 C1045.31991,624.582854 1045.29658,624.634188 1045.24991,624.662187 C1045.20324,624.690187 1045.11224,624.704187 1044.97691,624.704187 C1044.84158,624.704187 1044.72958,624.734521 1044.64091,624.795187 C1044.59317,624.827854 1044.46288,624.949146 1044.25007,625.159063 L1043.93097,625.477791 C1043.80944,625.600312 1043.67275,625.739111 1043.52091,625.894188 C1042.86291,626.566188 1042.23991,627.175187 1041.65191,627.721188 C1041.06391,628.267188 1040.16791,629.039521 1038.96391,630.038188 L1044.94191,629.940187 C1044.46591,629.062854 1043.82191,628.325521 1043.00991,627.728187 C1042.89791,627.644188 1042.84191,627.585854 1042.84191,627.553188 C1042.84191,627.520521 1042.86058,627.504187 1042.89791,627.504187 C1043.06591,627.504187 1043.57924,627.690854 1044.43791,628.064188 C1045.29658,628.437521 1046.02224,628.890187 1046.61491,629.422187 C1047.20758,629.954187 1047.50391,630.486187 1047.50391,631.018187 C1047.50391,631.372854 1047.39891,631.680854 1047.18891,631.942188 C1046.97891,632.203521 1046.73391,632.334187 1046.45391,632.334187 C1045.92191,632.334187 1045.60924,632.068188 1045.51591,631.536187 C1045.45058,631.144188 1045.32924,630.761521 1045.15191,630.388187 L1039.67791,631.634188 C1038.64191,631.858187 1038.05391,632.000521 1037.91391,632.061187 C1037.77391,632.121854 1037.67591,632.152187 1037.61991,632.152187 C1037.56391,632.152187 1037.51491,632.105521 1037.47291,632.012187 C1037.43091,631.918854 1037.33991,631.596854 1037.19991,631.046187 C1037.05991,630.495521 1036.98991,630.178187 1036.98991,630.094187 C1036.98991,630.010188 1037.02258,629.968187 1037.08791,629.968187 L1037.28391,629.982188 C1037.49858,629.982188 1037.74824,629.912188 1038.03291,629.772187 C1038.31758,629.632188 1038.59524,629.426854 1038.86591,629.156187 C1039.04324,628.988188 1039.54258,628.339521 1040.36391,627.210187 C1041.06391,626.267521 1041.60524,625.502187 1041.98791,624.914188 C1042.44524,624.195521 1042.78591,623.570188 1043.00991,623.038188 Z M978.208755,629.450187 L976.010755,629.450187 L976.010755,631.368187 L978.208755,631.368187 L978.208755,629.450187 Z M974.414755,629.450187 L972.188755,629.450187 L972.188755,631.368187 L974.414755,631.368187 L974.414755,629.450187 Z M910.817601,628.596187 L909.347601,628.596187 L909.347601,631.074187 L910.817601,631.074187 L910.817601,628.596187 Z M868.344832,619.860187 C868.456832,619.860187 868.785832,620.016521 869.331832,620.329187 C869.877832,620.641854 870.150832,620.856521 870.150832,620.973187 C870.150832,621.089854 870.006165,621.185521 869.716832,621.260187 L869.716832,623.262187 L869.744832,624.550187 C869.744832,624.643521 869.707498,624.720521 869.632832,624.781187 C869.558165,624.841854 869.383165,624.904854 869.107832,624.970187 C868.832498,625.035521 868.615498,625.068187 868.456832,625.068187 C868.298165,625.068187 868.200165,625.044854 868.162832,624.998187 C868.125498,624.951521 868.106832,624.853521 868.106832,624.704187 L867.098832,624.704187 L867.098832,625.768187 L868.484832,625.768187 C868.783498,625.301521 868.988832,625.068187 869.100832,625.068187 C869.231498,625.068187 869.553498,625.215187 870.066832,625.509187 C870.580165,625.803187 870.836832,626.006187 870.836832,626.118187 C870.836832,626.192854 870.729498,626.276854 870.514832,626.370187 L870.514832,629.114187 C870.514832,629.599521 870.412165,629.937854 870.206832,630.129187 C870.001498,630.320521 869.719165,630.453521 869.359832,630.528187 C869.000498,630.602854 868.757832,630.640187 868.631832,630.640187 C868.505832,630.640187 868.419498,630.619187 868.372832,630.577187 C868.326165,630.535187 868.295832,630.418521 868.281832,630.227187 C868.267832,630.035854 868.193165,629.870187 868.057832,629.730187 C867.922498,629.590187 867.733498,629.485187 867.490832,629.415187 C867.248165,629.345187 867.126832,629.293854 867.126832,629.261187 C867.126832,629.228521 867.224832,629.216854 867.420832,629.226187 C867.616832,629.235521 867.780165,629.240187 867.910832,629.240187 C868.358832,629.240187 868.631832,629.179521 868.729832,629.058187 C868.827832,628.936854 868.876832,628.726854 868.876832,628.428187 C868.746165,628.614854 868.592165,628.708187 868.414832,628.708187 C868.237498,628.708187 868.102165,628.659187 868.008832,628.561187 C867.915498,628.463187 867.866498,628.346521 867.861832,628.211187 C867.857165,628.075854 867.840832,627.961521 867.812832,627.868187 C866.291498,628.325521 865.255498,628.689521 864.704832,628.960187 C864.648832,628.988187 864.604498,629.002187 864.571832,629.002187 C864.539165,629.002187 864.511165,628.985854 864.487832,628.953187 C864.464498,628.920521 864.387498,628.733854 864.256832,628.393187 C864.126165,628.052521 864.023498,627.746854 863.948832,627.476187 L865.614832,627.476187 L865.614832,626.230187 L864.046832,626.230187 C864.000165,626.276854 863.934832,626.304854 863.850832,626.314187 L863.850832,629.786187 C863.850832,629.982187 863.827498,630.117521 863.780832,630.192187 C863.734165,630.266854 863.629165,630.332187 863.465832,630.388187 C863.302498,630.444187 863.038832,630.472187 862.674832,630.472187 C862.441498,630.472187 862.324832,630.383521 862.324832,630.206187 C862.324832,630.178187 862.331832,630.021854 862.345832,629.737187 C862.357498,629.499965 862.364304,629.189826 862.366248,628.806771 L862.366832,626.384187 C862.366832,625.917521 862.357498,625.502187 862.338832,625.138187 C862.908165,625.334187 863.440165,625.544187 863.934832,625.768187 L865.614832,625.768187 L865.614832,624.704187 L864.690832,624.704187 L864.690832,624.900187 C864.690832,625.030854 864.592832,625.126521 864.396832,625.187187 C864.200832,625.247854 863.972165,625.278187 863.710832,625.278187 C863.449498,625.278187 863.293165,625.271187 863.241832,625.257187 C863.190498,625.243187 863.164832,625.194187 863.164832,625.110187 L863.178832,624.606187 L863.178832,621.316187 C863.178832,620.905521 863.164832,620.499521 863.136832,620.098187 C863.724832,620.266187 864.252165,620.471521 864.718832,620.714187 L867.826832,620.714187 C867.985498,620.350187 868.097498,620.116854 868.162832,620.014187 C868.228165,619.911521 868.288832,619.860187 868.344832,619.860187 Z M978.208755,627.238187 L976.192755,627.238187 C976.155421,627.331521 976.094755,627.406187 976.010755,627.462188 L976.010755,628.988187 L978.208755,628.988187 L978.208755,627.238187 Z M974.414755,627.238187 L972.412755,627.238187 C972.394088,627.378187 972.319421,627.476187 972.188755,627.532187 L972.188755,628.988187 L974.414755,628.988187 L974.414755,627.238187 Z M889.525216,619.762187 C889.64655,619.762187 890.005883,619.955854 890.603216,620.343187 C891.20055,620.730521 891.499216,620.982521 891.499216,621.099187 C891.499216,621.215854 891.321883,621.348854 890.967216,621.498187 L890.967216,626.356188 C890.967216,626.794854 890.971883,627.098187 890.981216,627.266188 L890.995216,627.742188 C890.995216,627.826188 890.94855,627.903188 890.855216,627.973187 C890.761883,628.043188 890.593883,628.110854 890.351216,628.176187 C890.10855,628.241521 889.88455,628.274188 889.679216,628.274188 C889.473883,628.274188 889.333883,628.232188 889.259216,628.148187 C889.18455,628.064188 889.147216,627.970854 889.147216,627.868187 L889.147216,621.120188 L884.625216,621.120188 C884.57855,621.194854 884.499216,621.260188 884.387216,621.316187 L884.387216,627.588188 C884.387216,627.924188 884.251883,628.152854 883.981216,628.274188 C883.71055,628.395521 883.411883,628.456188 883.085216,628.456188 C882.991883,628.456188 882.893883,628.423521 882.791216,628.358187 C882.68855,628.292854 882.637216,628.227521 882.637216,628.162187 C882.637216,628.152854 882.64655,627.954521 882.665216,627.567188 C882.683883,627.179854 882.693216,626.738854 882.693216,626.244187 L882.693216,621.456188 C882.693216,620.942854 882.67455,620.457521 882.637216,620.000188 C883.253216,620.177521 883.845883,620.396854 884.415216,620.658188 L888.895216,620.658188 C889.119216,620.219521 889.26155,619.960521 889.322216,619.881188 C889.382883,619.801854 889.45055,619.762187 889.525216,619.762187 Z M910.817601,626.020187 L909.347601,626.020187 L909.347601,628.134187 L910.817601,628.134187 L910.817601,626.020187 Z M1040.88191,619.608187 C1041.83391,619.990854 1042.45224,620.259188 1042.73691,620.413188 C1043.02158,620.567188 1043.21291,620.674521 1043.31091,620.735188 C1043.40891,620.795854 1043.45791,620.868187 1043.45791,620.952188 C1043.45791,621.092188 1043.35991,621.162187 1043.16391,621.162187 C1043.00524,621.162187 1042.88391,621.185521 1042.79991,621.232188 C1042.71591,621.278854 1042.60391,621.390854 1042.46391,621.568188 C1041.11058,623.229521 1040.04191,624.428854 1039.25791,625.166187 C1038.47391,625.903521 1037.68291,626.505521 1036.88491,626.972188 C1036.08691,627.438854 1035.64591,627.672187 1035.56191,627.672187 C1035.54324,627.672187 1035.53391,627.667521 1035.53391,627.658188 C1035.53391,627.620854 1035.58524,627.560187 1035.68791,627.476188 C1038.02124,625.516188 1039.75258,622.893521 1040.88191,619.608187 Z M867.098832,626.706187 L867.098832,627.462187 L867.672832,627.448187 C867.532832,627.121521 867.341498,626.874187 867.098832,626.706187 Z M868.876832,626.230187 L867.098832,626.230187 L867.098832,626.566187 C867.994832,626.659521 868.587498,626.902187 868.876832,627.294187 L868.876832,626.230187 Z M955.33437,621.792187 L950.39237,621.792187 C950.877704,623.808187 951.853037,625.525521 953.31837,626.944187 C954.317037,625.404187 954.989037,623.686854 955.33437,621.792187 Z M910.817601,623.416187 L909.529601,623.416187 C909.492268,623.509521 909.431601,623.588854 909.347601,623.654187 L909.347601,625.558187 L910.817601,625.558187 L910.817601,623.416187 Z M979.244755,621.498187 L977.942755,621.498187 C977.868088,621.563521 977.793421,621.806187 977.718755,622.226187 C977.560088,623.206187 977.261421,623.985521 976.822755,624.564187 C977.224088,624.582854 977.590421,624.592187 977.921755,624.592187 C978.253088,624.592187 978.500421,624.557187 978.663755,624.487187 C978.827088,624.417187 978.936755,624.300521 978.992755,624.137187 C979.048755,623.973854 979.100088,623.689187 979.146755,623.283187 C979.193421,622.877187 979.226088,622.282187 979.244755,621.498187 Z M868.106832,622.954187 L867.098832,622.954187 L867.098832,624.242187 L868.106832,624.242187 L868.106832,622.954187 Z M865.614832,622.954187 L864.690832,622.954187 L864.690832,624.242187 L865.614832,624.242187 L865.614832,622.954187 Z M859.034832,620.546187 C859.753498,620.546187 860.320498,620.606854 860.735832,620.728187 C861.151165,620.849521 861.456832,621.036187 861.652832,621.288187 C861.848832,621.540187 861.946832,621.808521 861.946832,622.093187 C861.946832,622.377854 861.837165,622.615854 861.617832,622.807187 C861.398498,622.998521 861.181498,623.094187 860.966832,623.094187 C860.752165,623.094187 860.570165,623.031187 860.420832,622.905187 C860.271498,622.779187 860.178165,622.613521 860.140832,622.408187 C860.056832,621.922854 859.940165,621.561187 859.790832,621.323187 C859.641498,621.085187 859.384832,620.886854 859.020832,620.728187 C858.899498,620.672187 858.838832,620.627854 858.838832,620.595187 C858.838832,620.562521 858.904165,620.546187 859.034832,620.546187 Z M903.579601,620.224187 C904.176934,620.224187 904.785934,620.329187 905.406601,620.539187 C906.027268,620.749187 906.337601,621.148187 906.337601,621.736187 C906.337601,622.006854 906.225601,622.251854 906.001601,622.471187 C905.777601,622.690521 905.539601,622.800187 905.287601,622.800187 C905.035601,622.800187 904.837268,622.727854 904.692601,622.583187 C904.547934,622.438521 904.466268,622.240187 904.447601,621.988187 C904.410268,621.493521 904.333268,621.162187 904.216601,620.994187 C904.099934,620.826187 903.892268,620.634854 903.593601,620.420187 C903.490934,620.345521 903.439601,620.294187 903.439601,620.266187 C903.439601,620.238187 903.486268,620.224187 903.579601,620.224187 Z M865.614832,621.176187 L864.900832,621.176187 C864.872832,621.232187 864.802832,621.278854 864.690832,621.316187 L864.690832,622.492187 L865.614832,622.492187 L865.614832,621.176187 Z M868.106832,621.176187 L867.322832,621.176187 C867.294832,621.222854 867.220165,621.283521 867.098832,621.358187 L867.098832,622.492187 L868.106832,622.492187 L868.106832,621.176187 Z M910.691601,619.972187 C911.055601,619.972187 911.449934,620.016521 911.874601,620.105187 C912.299268,620.193854 912.604934,620.357187 912.791601,620.595187 C912.978268,620.833187 913.071601,621.089854 913.071601,621.365187 C913.071601,621.640521 912.975934,621.880854 912.784601,622.086187 C912.593268,622.291521 912.387934,622.394187 912.168601,622.394187 C911.949268,622.394187 911.767268,622.331187 911.622601,622.205187 C911.477934,622.079187 911.396268,621.927521 911.377601,621.750187 C911.340268,621.330187 911.263268,620.996521 911.146601,620.749187 C911.029934,620.501854 910.880601,620.331521 910.698601,620.238187 C910.516601,620.144854 910.425601,620.077187 910.425601,620.035187 C910.425601,619.993187 910.514268,619.972187 910.691601,619.972187 Z M832.880469,554.152344 C836.317969,554.152344 839.296484,555.457682 841.816016,558.068359 C844.335547,560.679036 845.595313,563.9375 845.595313,567.84375 C845.595313,571.867188 844.325781,575.207031 841.786719,577.863281 C839.247656,580.519531 836.17474,581.847656 832.567969,581.847656 C828.922135,581.847656 825.858984,580.552083 823.378516,577.960938 C820.898047,575.369792 819.657813,572.016927 819.657813,567.902344 C819.657813,563.696615 821.090104,560.265625 823.954688,557.609375 C826.441667,555.304688 829.416927,554.152344 832.880469,554.152344 Z M877.798438,554.757812 L893.989844,574.621094 L893.989844,559.347656 C893.989844,557.720052 893.807552,556.704427 893.442969,556.300781 C892.961198,555.753906 892.199479,555.480469 891.157813,555.480469 L890.239844,555.480469 L890.239844,554.757812 L899.458594,554.757812 L899.458594,555.480469 L898.521094,555.480469 C897.401302,555.480469 896.607031,555.81901 896.138281,556.496094 C895.851823,556.91276 895.708594,557.863281 895.708594,559.347656 L895.708594,581.671875 L895.005469,581.671875 L877.544531,560.34375 L877.544531,576.652344 C877.544531,578.279948 877.720313,579.295573 878.071875,579.699219 C878.566667,580.246094 879.328385,580.519531 880.357031,580.519531 L881.294531,580.519531 L881.294531,581.242188 L872.075781,581.242188 L872.075781,580.519531 L872.99375,580.519531 C874.126563,580.519531 874.927344,580.18099 875.396094,579.503906 C875.682552,579.08724 875.825781,578.136719 875.825781,576.652344 L875.825781,558.234375 C875.057552,557.335938 874.47487,556.74349 874.077734,556.457031 C873.680599,556.170573 873.097917,555.903646 872.329688,555.65625 C871.952083,555.539062 871.379167,555.480469 870.610938,555.480469 L870.610938,554.757812 L877.798438,554.757812 Z M1097.80234,554.757812 L1098.09531,560.558594 L1097.33359,560.558594 C1097.06016,559.165365 1096.75742,558.208333 1096.42539,557.6875 C1096.09336,557.166667 1095.60182,556.769531 1094.95078,556.496094 C1094.42995,556.300781 1093.51198,556.203125 1092.19688,556.203125 L1084.93125,556.203125 L1084.93125,566.671875 L1090.75156,566.671875 C1092.26198,566.671875 1093.27109,566.44401 1093.77891,565.988281 C1094.45599,565.389323 1094.83359,564.334635 1094.91172,562.824219 L1095.63438,562.824219 L1095.63438,572.042969 L1094.91172,572.042969 C1094.72943,570.753906 1094.54714,569.927083 1094.36484,569.5625 C1094.13047,569.106771 1093.74635,568.748698 1093.2125,568.488281 C1092.67865,568.227865 1091.85833,568.097656 1090.75156,568.097656 L1084.93125,568.097656 L1084.93125,576.828125 C1084.93125,578 1084.98333,578.712891 1085.0875,578.966797 C1085.19167,579.220703 1085.37396,579.422526 1085.63438,579.572266 C1085.89479,579.722005 1086.38958,579.796875 1087.11875,579.796875 L1091.61094,579.796875 C1093.10833,579.796875 1094.19557,579.692708 1094.87266,579.484375 C1095.54974,579.276042 1096.20078,578.865885 1096.82578,578.253906 C1097.63307,577.446615 1098.4599,576.229167 1099.30625,574.601562 L1100.0875,574.601562 L1097.80234,581.242188 L1077.39219,581.242188 L1077.39219,580.519531 L1078.32969,580.519531 C1078.95469,580.519531 1079.54714,580.369792 1080.10703,580.070312 C1080.5237,579.861979 1080.8069,579.549479 1080.95664,579.132812 C1081.10638,578.716146 1081.18125,577.863281 1081.18125,576.574219 L1081.18125,559.367188 C1081.18125,557.6875 1081.01198,556.652344 1080.67344,556.261719 C1080.20469,555.740885 1079.42344,555.480469 1078.32969,555.480469 L1077.39219,555.480469 L1077.39219,554.757812 L1097.80234,554.757812 Z M1035.71641,554.757812 L1035.71641,555.480469 L1034.75938,555.480469 C1034.13438,555.480469 1033.54193,555.630208 1032.98203,555.929688 C1032.57839,556.138021 1032.29844,556.453776 1032.14219,556.876953 C1031.98594,557.30013 1031.90781,558.16276 1031.90781,559.464844 L1031.90781,567.042969 L1044.2125,567.042969 L1044.2125,559.464844 C1044.2125,558.110677 1044.12786,557.21875 1043.95859,556.789062 C1043.82839,556.463542 1043.55495,556.183594 1043.13828,555.949219 C1042.57839,555.636719 1041.98594,555.480469 1041.36094,555.480469 L1040.42344,555.480469 L1040.42344,554.757812 L1051.75156,554.757812 L1051.75156,555.480469 L1050.81406,555.480469 C1050.18906,555.480469 1049.59661,555.630208 1049.03672,555.929688 C1048.62005,556.138021 1048.33685,556.453776 1048.18711,556.876953 C1048.03737,557.30013 1047.9625,558.16276 1047.9625,559.464844 L1047.9625,576.554688 C1047.9625,577.895833 1048.04714,578.78125 1048.21641,579.210938 C1048.34661,579.536458 1048.61354,579.816406 1049.01719,580.050781 C1049.5901,580.363281 1050.18906,580.519531 1050.81406,580.519531 L1051.75156,580.519531 L1051.75156,581.242188 L1040.42344,581.242188 L1040.42344,580.519531 L1041.36094,580.519531 C1042.44167,580.519531 1043.22943,580.200521 1043.72422,579.5625 C1044.04974,579.145833 1044.2125,578.143229 1044.2125,576.554688 L1044.2125,568.488281 L1031.90781,568.488281 L1031.90781,576.554688 C1031.90781,577.895833 1031.99245,578.78125 1032.16172,579.210938 C1032.29193,579.536458 1032.56536,579.816406 1032.98203,580.050781 C1033.54193,580.363281 1034.13438,580.519531 1034.75938,580.519531 L1035.71641,580.519531 L1035.71641,581.242188 L1024.36875,581.242188 L1024.36875,580.519531 L1025.30625,580.519531 C1026.4,580.519531 1027.19427,580.200521 1027.68906,579.5625 C1028.00156,579.145833 1028.15781,578.143229 1028.15781,576.554688 L1028.15781,559.464844 C1028.15781,558.110677 1028.07318,557.21875 1027.90391,556.789062 C1027.7737,556.463542 1027.50677,556.183594 1027.10313,555.949219 C1026.53021,555.636719 1025.93125,555.480469 1025.30625,555.480469 L1024.36875,555.480469 L1024.36875,554.757812 L1035.71641,554.757812 Z M998.396094,554.757812 L998.689063,560.96875 L997.946875,560.96875 C997.803646,559.875 997.608333,559.09375 997.360938,558.625 C996.957292,557.869792 996.420182,557.313151 995.749609,556.955078 C995.079036,556.597005 994.196875,556.417969 993.103125,556.417969 L989.372656,556.417969 L989.372656,576.652344 C989.372656,578.279948 989.548438,579.295573 989.9,579.699219 C990.394792,580.246094 991.15651,580.519531 992.185156,580.519531 L993.103125,580.519531 L993.103125,581.242188 L981.872656,581.242188 L981.872656,580.519531 L982.810156,580.519531 C983.929948,580.519531 984.724219,580.18099 985.192969,579.503906 C985.479427,579.08724 985.622656,578.136719 985.622656,576.652344 L985.622656,556.417969 L982.439063,556.417969 C981.202083,556.417969 980.323177,556.509115 979.802344,556.691406 C979.12526,556.938802 978.545833,557.414062 978.064063,558.117188 C977.582292,558.820312 977.295833,559.770833 977.204688,560.96875 L976.4625,560.96875 L976.775,554.757812 L998.396094,554.757812 Z M832.509375,555.578125 C830.139583,555.578125 828.238542,556.457031 826.80625,558.214844 C825.022396,560.402344 824.130469,563.605469 824.130469,567.824219 C824.130469,572.147135 825.054948,575.473958 826.903906,577.804688 C828.323177,579.575521 830.198177,580.460938 832.528906,580.460938 C835.015885,580.460938 837.069922,579.490885 838.691016,577.550781 C840.312109,575.610677 841.122656,572.550781 841.122656,568.371094 C841.122656,563.839844 840.230729,560.460938 838.446875,558.234375 C837.014583,556.463542 835.035417,555.578125 832.509375,555.578125 Z M979.888755,502.930187 C979.982088,502.939521 980.217755,503.086521 980.595755,503.371187 C980.973755,503.655854 981.256088,503.875187 981.442755,504.029187 C981.629421,504.183187 981.722755,504.330187 981.722755,504.470187 C981.722755,504.684854 981.575755,504.792187 981.281755,504.792187 C980.987755,504.792187 980.649421,504.887854 980.266755,505.079187 C979.884088,505.270521 979.487421,505.538854 979.076755,505.884187 C979.496755,506.173521 979.706755,506.481521 979.706755,506.808187 C979.706755,507.050854 979.585421,507.265521 979.342755,507.452187 L979.958755,507.452187 C980.145421,507.190854 980.269088,507.029854 980.329755,506.969187 C980.390421,506.908521 980.448755,506.878187 980.504755,506.878187 C980.560755,506.878187 980.675088,506.943521 980.847755,507.074187 C981.020421,507.204854 981.225755,507.384521 981.463755,507.613187 C981.701755,507.841854 981.860421,508.005187 981.939755,508.103187 C982.019088,508.201187 982.058755,508.292187 982.058755,508.376187 C982.058755,508.534854 981.956088,508.614187 981.750755,508.614187 L981.260755,508.600187 C981.027421,508.600187 980.840755,508.630521 980.700755,508.691187 C980.560755,508.751854 980.388088,508.866187 980.182755,509.034187 C979.977421,509.202187 979.856088,509.286187 979.818755,509.286187 C979.781421,509.286187 979.762755,509.265187 979.762755,509.223187 C979.762755,509.181187 979.800088,509.045854 979.874755,508.817187 C979.949421,508.588521 980.010088,508.287521 980.056755,507.914187 L979.580755,507.914187 C979.543421,507.951521 979.468755,508.012187 979.356755,508.096187 L979.356755,510.812187 L979.874755,510.812187 C980.070755,510.410854 980.217755,510.135521 980.315755,509.986187 C980.413755,509.836854 980.490755,509.762187 980.546755,509.762187 C980.649421,509.762187 980.931755,509.967521 981.393755,510.378187 C981.855755,510.788854 982.086755,511.040854 982.086755,511.134187 C982.086755,511.227521 981.984088,511.274187 981.778755,511.274187 L979.356755,511.274187 L979.356755,513.962188 C979.664755,513.990187 979.996088,514.004187 980.350755,514.004187 C980.705421,514.004187 981.027421,513.999521 981.316755,513.990187 L982.044755,513.962188 C982.147421,513.962188 982.198755,513.978521 982.198755,514.011188 C982.198755,514.043854 982.133421,514.125521 982.002755,514.256187 C981.872088,514.386854 981.746088,514.575854 981.624755,514.823187 C981.503421,515.070521 981.435755,515.259521 981.421755,515.390187 C981.407755,515.520854 981.379755,515.600187 981.337755,515.628187 C981.295755,515.656187 981.228088,515.670187 981.134755,515.670187 C980.798755,515.670187 980.234088,515.607187 979.440755,515.481187 C978.647421,515.355187 978.080421,515.126521 977.739755,514.795187 C977.399088,514.463854 977.121421,513.990187 976.906755,513.374187 C976.589421,514.186187 976.003755,514.799854 975.149755,515.215187 C974.295755,515.630521 973.789421,515.838188 973.630755,515.838188 C973.584088,515.838188 973.560755,515.819521 973.560755,515.782187 C973.560755,515.744854 973.612088,515.693521 973.714755,515.628187 C974.302755,515.254854 974.748421,514.907187 975.051755,514.585187 C975.355088,514.263187 975.581421,513.857188 975.730755,513.367188 C975.880088,512.877187 975.968755,512.212187 975.996755,511.372187 L974.288755,511.372187 C974.270088,511.474854 974.232755,511.628854 974.176755,511.834187 C975.128755,511.983521 975.604755,512.380187 975.604755,513.024187 C975.604755,513.248187 975.520755,513.446521 975.352755,513.619187 C975.184755,513.791854 975.012088,513.878187 974.834755,513.878187 C974.657421,513.878187 974.529088,513.850187 974.449755,513.794187 C974.370421,513.738187 974.319088,513.668187 974.295755,513.584187 C974.272421,513.500187 974.260755,513.360187 974.260755,513.164188 C974.260755,512.781521 974.190755,512.468854 974.050755,512.226187 C973.798755,512.944854 973.430088,513.549188 972.944755,514.039188 C972.459421,514.529187 971.862088,514.937521 971.152755,515.264187 C970.443421,515.590854 970.023421,515.754187 969.892755,515.754187 C969.836755,515.754187 969.808755,515.735521 969.808755,515.698187 C969.808755,515.660854 969.855421,515.614187 969.948755,515.558187 C970.928755,514.998187 971.633421,514.396187 972.062755,513.752187 C972.492088,513.108187 972.772088,512.314854 972.902755,511.372187 L971.936755,511.372187 C971.750088,511.372187 971.582088,511.423521 971.432755,511.526187 L971.068755,510.868187 C971.246088,510.886854 971.353421,510.896187 971.390755,510.896187 C971.904088,509.766854 972.151421,508.558187 972.132755,507.270187 C972.562088,507.354187 972.937755,507.449854 973.259755,507.557187 C973.581755,507.664521 973.780088,507.741521 973.854755,507.788187 C973.929421,507.834854 973.966755,507.881521 973.966755,507.928187 C973.966755,507.974854 973.913088,508.026187 973.805755,508.082187 C973.698421,508.138187 973.528088,508.334187 973.294755,508.670187 L974.316755,508.670187 C974.522088,508.278187 974.655088,508.035521 974.715755,507.942187 C974.776421,507.848854 974.830088,507.802187 974.876755,507.802187 C974.979421,507.802187 975.222088,507.972521 975.604755,508.313187 C975.987421,508.653854 976.178755,508.875521 976.178755,508.978187 C976.178755,509.080854 976.085421,509.132187 975.898755,509.132187 L974.806755,509.132187 C974.741421,509.244187 974.652755,509.318854 974.540755,509.356187 C974.512755,509.860187 974.461421,510.378187 974.386755,510.910187 L974.512755,510.910187 L974.904755,510.280187 C974.979421,510.168187 975.044755,510.112187 975.100755,510.112187 C975.222088,510.112187 975.525421,510.331521 976.010755,510.770187 C976.010755,510.163521 976.006088,509.701521 975.996755,509.384187 C977.154088,509.626854 977.770088,509.799521 977.844755,509.902187 L977.844755,507.914187 L976.486755,507.914187 C976.272088,507.914187 976.085421,507.965521 975.926755,508.068187 L975.562755,507.410187 C975.786755,507.438187 976.020088,507.452187 976.262755,507.452187 L978.138755,507.452187 C978.026755,507.321521 977.970755,507.123187 977.970755,506.857187 C977.970755,506.591187 977.851755,506.311187 977.613755,506.017187 C977.375755,505.723187 977.098088,505.524854 976.780755,505.422187 C976.659421,505.384854 976.598755,505.335854 976.598755,505.275187 C976.598755,505.214521 976.661755,505.184187 976.787755,505.184187 C976.913755,505.184187 977.184421,505.223854 977.599755,505.303187 C978.015088,505.382521 978.409421,505.515521 978.782755,505.702187 L979.342755,504.162187 L977.214755,504.162187 C977.028088,504.162187 976.860088,504.213521 976.710755,504.316187 L976.346755,503.658187 C976.570755,503.686187 976.804088,503.700187 977.046755,503.700187 L979.272755,503.700187 C979.487421,503.373521 979.632088,503.163521 979.706755,503.070187 C979.781421,502.976854 979.842088,502.930187 979.888755,502.930187 Z M905.595601,509.300187 C905.884934,509.346854 906.239601,509.384187 906.659601,509.412188 C907.424934,509.468187 907.807601,509.575521 907.807601,509.734188 C907.807601,509.808854 907.721268,509.881188 907.548601,509.951188 C907.375934,510.021187 907.289601,510.331521 907.289601,510.882187 L907.289601,511.414188 L910.607601,511.414188 C910.607601,510.219521 910.598268,509.552188 910.579601,509.412188 C911.186268,509.440187 911.669268,509.486854 912.028601,509.552188 C912.387934,509.617521 912.567601,509.710854 912.567601,509.832187 C912.567601,509.953521 912.478934,510.051521 912.301601,510.126188 L912.301601,511.414188 L913.211601,511.414188 C913.668934,510.602188 913.972268,510.196188 914.121601,510.196188 C914.233601,510.196188 914.529934,510.413187 915.010601,510.847188 C915.491268,511.281187 915.731601,511.561187 915.731601,511.687187 C915.731601,511.813188 915.628934,511.876188 915.423601,511.876188 L912.301601,511.876188 L912.301601,513.668187 C912.301601,514.125521 912.306268,514.442854 912.315601,514.620187 L912.329601,515.124188 C912.329601,515.208188 912.282934,515.280521 912.189601,515.341187 C912.096268,515.401854 911.932934,515.462521 911.699601,515.523187 C911.466268,515.583854 911.260934,515.614188 911.083601,515.614188 C910.906268,515.614188 910.782601,515.588521 910.712601,515.537188 C910.642601,515.485854 910.607601,515.418188 910.607601,515.334187 L910.607601,511.876188 L907.261601,511.876188 C907.214934,512.566854 907.081934,513.136188 906.862601,513.584187 C906.643268,514.032187 906.311934,514.412521 905.868601,514.725187 C905.425268,515.037854 904.869934,515.296854 904.202601,515.502187 C903.535268,515.707521 903.112934,515.810187 902.935601,515.810187 C902.814268,515.810187 902.753601,515.775188 902.753601,515.705187 C902.753601,515.635188 902.870268,515.548854 903.103601,515.446187 C903.644934,515.212854 904.081268,514.977188 904.412601,514.739188 C904.743934,514.501188 904.993601,514.242188 905.161601,513.962188 C905.329601,513.682188 905.434601,513.395188 905.476601,513.101187 C905.518601,512.807188 905.558268,512.398854 905.595601,511.876188 L903.173601,511.876188 C902.986934,511.876188 902.818934,511.927521 902.669601,512.030188 L902.305601,511.372187 C902.529601,511.400188 902.762934,511.414188 903.005601,511.414188 L905.623601,511.414188 C905.632934,511.190188 905.637601,510.907854 905.637601,510.567187 C905.637601,510.226521 905.623601,509.804188 905.595601,509.300187 Z M931.297986,502.734187 C931.857986,502.827521 932.326986,502.923187 932.704986,503.021187 C933.082986,503.119187 933.313986,503.191521 933.397986,503.238187 C933.481986,503.284854 933.523986,503.340854 933.523986,503.406187 C933.523986,503.471521 933.430652,503.541521 933.243986,503.616187 C933.169319,503.653521 933.087652,503.756187 932.998986,503.924187 C932.910319,504.092187 932.697986,504.465521 932.361986,505.044187 L935.231986,505.044187 C935.362652,504.792187 935.481652,504.586854 935.588986,504.428187 C935.696319,504.269521 935.787319,504.190187 935.861986,504.190187 C935.973986,504.190187 936.300652,504.372187 936.841986,504.736187 C937.383319,505.100187 937.653986,505.354521 937.653986,505.499187 C937.653986,505.643854 937.457986,505.758187 937.065986,505.842187 C937.028652,507.410187 936.988986,508.595521 936.946986,509.398187 C936.904986,510.200854 936.851319,510.798187 936.785986,511.190187 C936.720652,511.582187 936.606319,511.908854 936.442986,512.170187 C936.279652,512.431521 936.046319,512.632187 935.742986,512.772187 C935.439652,512.912187 935.138652,512.982188 934.839986,512.982188 C934.727986,512.982188 934.646319,512.958854 934.594986,512.912187 C934.543652,512.865521 934.503986,512.776854 934.475986,512.646187 C934.419986,512.356854 934.293986,512.135187 934.097986,511.981187 C933.901986,511.827187 933.677986,511.719854 933.425986,511.659187 C933.173986,511.598521 933.047986,511.551854 933.047986,511.519187 C933.047986,511.486521 933.113319,511.470187 933.243986,511.470187 C933.925319,511.460854 934.391986,511.421187 934.643986,511.351187 C934.895986,511.281187 935.066319,511.136521 935.154986,510.917187 C935.243652,510.697854 935.318319,510.172854 935.378986,509.342187 C935.439652,508.511521 935.469986,507.232854 935.469986,505.506187 L932.109986,505.506187 C931.801986,506.028854 931.549986,506.439521 931.353986,506.738187 C931.736652,506.831521 932.025986,506.943521 932.221986,507.074187 L933.201986,507.074187 C933.351319,506.803521 933.449319,506.640187 933.495986,506.584187 C933.542652,506.528187 933.605652,506.500187 933.684986,506.500187 C933.764319,506.500187 934.027986,506.621521 934.475986,506.864187 C934.923986,507.106854 935.147986,507.286521 935.147986,507.403187 C935.147986,507.519854 935.021986,507.634187 934.769986,507.746187 L934.769986,508.936187 C934.769986,509.318854 934.776986,509.638521 934.790986,509.895187 C934.804986,510.151854 934.811986,510.303521 934.811986,510.350187 C934.811986,510.396854 934.795652,510.438854 934.762986,510.476187 C934.730319,510.513521 934.636986,510.557854 934.482986,510.609187 C934.328986,510.660521 934.123652,510.709521 933.866986,510.756187 C933.610319,510.802854 933.451652,510.826187 933.390986,510.826187 C933.330319,510.826187 933.299986,510.751521 933.299986,510.602187 L933.299986,510.280187 L932.193986,510.280187 L932.193986,513.122187 C932.193986,513.616854 932.266319,513.917854 932.410986,514.025187 C932.555652,514.132521 933.050319,514.186187 933.894986,514.186187 C934.739652,514.186187 935.299652,514.144187 935.574986,514.060187 C935.850319,513.976187 936.067319,513.794187 936.225986,513.514187 C936.384652,513.234187 936.617986,512.674187 936.925986,511.834187 C936.963319,511.722187 937.002986,511.666187 937.044986,511.666187 C937.086986,511.666187 937.107986,511.689521 937.107986,511.736187 C937.107986,511.782854 937.103319,511.824854 937.093986,511.862187 C937.009986,512.291521 936.967986,512.650854 936.967986,512.940187 C936.967986,513.229521 937.012319,513.469854 937.100986,513.661187 C937.189652,513.852521 937.324986,513.999521 937.506986,514.102187 C937.688986,514.204854 937.779986,514.335521 937.779986,514.494187 C937.779986,514.764854 937.583986,515.009854 937.191986,515.229187 C936.799986,515.448521 935.773319,515.558187 934.111986,515.558187 C933.047986,515.558187 932.291986,515.516187 931.843986,515.432187 C931.395986,515.348187 931.094986,515.191854 930.940986,514.963188 C930.786986,514.734521 930.709986,514.358854 930.709986,513.836187 L930.709986,510.588187 C930.653986,510.606854 930.593319,510.616187 930.527986,510.616187 L928.833986,510.616187 L928.833986,512.884187 C929.907319,512.725521 930.483652,512.646187 930.562986,512.646187 C930.642319,512.646187 930.681986,512.667187 930.681986,512.709187 C930.681986,512.751187 930.630652,512.795521 930.527986,512.842187 C927.634652,514.055521 925.898652,514.834854 925.319986,515.180187 C925.245319,515.226854 925.186986,515.250187 925.144986,515.250187 C925.102986,515.250187 925.070319,515.236187 925.046986,515.208187 C925.023652,515.180187 924.953652,514.988854 924.836986,514.634187 C924.720319,514.279521 924.596652,513.868854 924.465986,513.402187 L925.319986,513.318188 L925.319986,510.098187 C925.319986,509.603521 925.310652,509.178854 925.291986,508.824187 C926.038652,508.880187 926.514652,508.938521 926.719986,508.999187 C926.925319,509.059854 927.027986,509.125187 927.027986,509.195187 C927.027986,509.265187 926.939319,509.346854 926.761986,509.440187 L926.761986,513.150187 L927.405986,513.066187 L927.405986,508.978187 C927.405986,508.520854 927.396652,508.119521 927.377986,507.774187 C927.629986,507.783521 927.951986,507.804521 928.343986,507.837187 C928.735986,507.869854 928.955319,507.909521 929.001986,507.956187 C929.048652,508.002854 929.071986,508.049521 929.071986,508.096187 C929.071986,508.208187 928.992652,508.301521 928.833986,508.376187 L928.833986,510.154187 L928.931986,510.154187 C929.109319,509.836854 929.228319,509.615187 929.288986,509.489187 C929.349652,509.363187 929.424319,509.300187 929.512986,509.300187 C929.601652,509.300187 929.795319,509.412187 930.093986,509.636187 C930.392652,509.860187 930.597986,510.051521 930.709986,510.210187 L930.709986,507.578187 C930.401986,507.923521 930.124319,508.208187 929.876986,508.432187 C929.629652,508.656187 929.491986,508.768187 929.463986,508.768187 C929.435986,508.768187 929.421986,508.754187 929.421986,508.726187 C929.421986,508.698187 929.445319,508.646854 929.491986,508.572187 C929.986652,507.844187 930.376319,507.011187 930.660986,506.073187 C930.945652,505.135187 931.157986,504.022187 931.297986,502.734187 Z M1001.65714,502.972187 C1001.75981,502.972187 1002.03047,503.107521 1002.46914,503.378187 C1002.90781,503.648854 1003.18314,503.823854 1003.29514,503.903187 C1003.40714,503.982521 1003.46314,504.064187 1003.46314,504.148187 C1003.46314,504.288187 1003.30447,504.409521 1002.98714,504.512187 L1002.98714,508.656187 C1002.98714,508.992187 1002.93814,509.244187 1002.84014,509.412187 C1002.74214,509.580187 1002.59981,509.710854 1002.41314,509.804187 C1002.93581,510.140187 1003.27881,510.382854 1003.44214,510.532187 C1003.60547,510.681521 1003.68714,510.793521 1003.68714,510.868187 C1003.68714,510.998854 1003.56581,511.064187 1003.32314,511.064187 L998.619139,511.064187 C998.553806,511.129521 998.474473,511.176187 998.381139,511.204187 L998.381139,512.436187 L1000.32714,512.436187 C1000.69114,511.829521 1000.89881,511.505187 1000.95014,511.463187 C1001.00147,511.421187 1001.05047,511.400187 1001.09714,511.400187 C1001.19047,511.400187 1001.47281,511.584521 1001.94414,511.953187 C1002.41547,512.321854 1002.65114,512.571521 1002.65114,512.702187 C1002.65114,512.832854 1002.53447,512.898187 1002.30114,512.898187 L998.381139,512.898187 L998.381139,514.564187 L1001.40514,514.564187 C1001.82514,513.929521 1002.05847,513.584187 1002.10514,513.528187 C1002.15181,513.472188 1002.19847,513.444187 1002.24514,513.444187 C1002.31981,513.444187 1002.61847,513.642521 1003.14114,514.039188 C1003.66381,514.435854 1003.92514,514.699521 1003.92514,514.830187 C1003.92514,514.960854 1003.80381,515.026187 1003.56114,515.026187 L991.941139,515.026187 C991.754473,515.026187 991.586473,515.077521 991.437139,515.180187 L991.073139,514.522187 C991.297139,514.550187 991.530473,514.564187 991.773139,514.564187 L996.645139,514.564187 L996.645139,512.898187 L993.467139,512.898187 C993.280473,512.898187 993.112473,512.949521 992.963139,513.052187 L992.599139,512.394187 C992.823139,512.422187 993.056473,512.436187 993.299139,512.436187 L996.645139,512.436187 L996.645139,511.064187 L992.977139,511.064187 C992.790473,511.064187 992.622473,511.115521 992.473139,511.218187 L992.109139,510.560187 C992.333139,510.588187 992.566473,510.602187 992.809139,510.602187 L994.783139,510.602187 C995.707139,510.107521 996.332473,509.682854 996.659139,509.328187 C996.985806,508.973521 997.209806,508.520854 997.331139,507.970187 C997.452473,507.419521 997.513139,506.621521 997.513139,505.576187 L994.937139,505.576187 C994.899806,505.622854 994.820473,505.669521 994.699139,505.716187 L994.699139,508.292187 C994.876473,508.226854 995.217139,508.121854 995.721139,507.977187 C996.225139,507.832521 996.568139,507.725187 996.750139,507.655187 C996.932139,507.585187 997.044139,507.550187 997.086139,507.550187 C997.128139,507.550187 997.149139,507.566521 997.149139,507.599187 C997.149139,507.631854 997.088473,507.690187 996.967139,507.774187 C995.455139,508.838187 994.344473,509.696854 993.635139,510.350187 C993.532473,510.443521 993.460139,510.490187 993.418139,510.490187 C993.376139,510.490187 993.338806,510.471521 993.306139,510.434187 C993.273473,510.396854 993.140473,510.198521 992.907139,509.839187 C992.673806,509.479854 992.536139,509.269854 992.494139,509.209187 C992.452139,509.148521 992.431139,509.094854 992.431139,509.048187 C992.431139,509.001521 992.463806,508.964187 992.529139,508.936187 C992.855806,508.805521 993.019139,508.562854 993.019139,508.208187 L993.019139,505.576187 L991.843139,505.576187 C991.656473,505.576187 991.488473,505.627521 991.339139,505.730187 L990.975139,505.072187 C991.199139,505.100187 991.432473,505.114187 991.675139,505.114187 L995.595139,505.114187 C995.912473,504.572854 996.089806,504.278854 996.127139,504.232187 C996.164473,504.185521 996.211139,504.162187 996.267139,504.162187 C996.425806,504.162187 996.841139,504.460854 997.513139,505.058187 L997.512264,504.521812 C997.510514,504.016062 997.506139,503.602187 997.499139,503.280187 C998.404473,503.485521 999.053139,503.676854 999.445139,503.854187 L1000.97114,503.854187 C1001.02714,503.751521 1001.12281,503.599854 1001.25814,503.399187 C1001.39347,503.198521 1001.48214,503.077187 1001.52414,503.035187 C1001.56614,502.993187 1001.61047,502.972187 1001.65714,502.972187 Z M947.71837,510.952188 C948.465037,511.194854 949.06937,511.423521 949.53137,511.638188 C949.99337,511.852854 950.369037,512.079187 950.65837,512.317188 C950.947704,512.555188 951.132037,512.765188 951.21137,512.947188 C951.290704,513.129188 951.33037,513.357854 951.33037,513.633188 C951.33037,513.908521 951.25337,514.181521 951.09937,514.452188 C950.94537,514.722854 950.75637,514.858187 950.53237,514.858187 C950.30837,514.858187 950.131037,514.790521 950.00037,514.655188 C949.869704,514.519854 949.708704,514.230521 949.51737,513.787188 C949.326037,513.343854 949.064704,512.921521 948.73337,512.520188 C948.402037,512.118854 947.989037,511.712854 947.49437,511.302188 L947.71837,510.952188 Z M972.160755,502.734187 C972.646088,502.780854 973.049755,502.832187 973.371755,502.888187 C973.693755,502.944187 973.885088,502.993187 973.945755,503.035187 C974.006421,503.077187 974.036755,503.130854 974.036755,503.196187 C974.036755,503.345521 973.901421,503.457521 973.630755,503.532187 L973.630755,504.792187 C974.106755,504.409521 974.606088,503.872854 975.128755,503.182187 C976.006088,503.891521 976.444755,504.316187 976.444755,504.456187 C976.444755,504.530854 976.358421,504.575187 976.185755,504.589187 C976.013088,504.603187 975.814755,504.633521 975.590755,504.680187 C975.656088,505.230854 975.728421,505.606521 975.807755,505.807187 C975.887088,506.007854 976.013088,506.164187 976.185755,506.276187 C976.358421,506.388187 976.444755,506.514187 976.444755,506.654187 C976.444755,506.887521 976.258088,507.069521 975.884755,507.200187 C975.511421,507.330854 974.977088,507.396187 974.281755,507.396187 C973.586421,507.396187 973.066088,507.330854 972.720755,507.200187 C972.375421,507.069521 972.202755,506.756854 972.202755,506.262187 L972.202755,505.268187 L971.376755,508.404187 C971.171421,509.197521 971.033755,509.778521 970.963755,510.147187 C970.893755,510.515854 970.858755,510.865854 970.858755,511.197187 C970.858755,511.528521 970.933421,511.983521 971.082755,512.562187 C971.157421,512.851521 971.194755,513.145521 971.194755,513.444187 C971.194755,513.742854 971.108421,513.992521 970.935755,514.193188 C970.763088,514.393854 970.520421,514.494187 970.207755,514.494187 C969.895088,514.494187 969.650088,514.400854 969.472755,514.214187 C969.295421,514.027521 969.206755,513.796521 969.206755,513.521187 C969.206755,513.245854 969.258088,512.972854 969.360755,512.702187 C969.631421,511.974187 969.766755,511.472521 969.766755,511.197187 C969.766755,510.921854 969.699088,510.709521 969.563755,510.560187 C969.428421,510.410854 969.246421,510.294187 969.017755,510.210187 C968.789088,510.126187 968.674755,510.058521 968.674755,510.007187 C968.674755,509.955854 968.691088,509.925521 968.723755,509.916187 C968.756421,509.906854 968.861421,509.902187 969.038755,509.902187 C969.430755,509.902187 969.748088,509.771521 969.990755,509.510187 C970.233421,509.248854 970.518088,508.740187 970.844755,507.984187 L972.202755,504.862187 L972.202755,504.302187 C972.202755,503.667521 972.188755,503.144854 972.160755,502.734187 Z M977.844755,510.140187 C977.798088,510.186854 977.723421,510.238187 977.620755,510.294187 C977.518088,510.350187 977.452755,510.518187 977.424755,510.798187 C977.350088,511.638187 977.242755,512.305521 977.102755,512.800187 C977.298755,513.117521 977.546088,513.364854 977.844755,513.542187 L977.844755,510.140187 Z M973.042755,509.132187 L973.014755,509.132187 C972.613421,509.738854 972.170088,510.331521 971.684755,510.910187 L972.958755,510.910187 C973.014755,510.378187 973.042755,509.785521 973.042755,509.132187 Z M1001.25114,507.676187 L999.081139,507.676187 C998.913139,508.460187 998.565473,509.066854 998.038139,509.496187 C997.510806,509.925521 996.635806,510.294187 995.413139,510.602187 L1001.29314,510.602187 C1001.40514,510.424854 1001.53581,510.238187 1001.68514,510.042187 C1001.37714,510.107521 1001.17181,510.140187 1001.06914,510.140187 C1000.84514,510.140187 1000.70747,510.018854 1000.65614,509.776187 C1000.60481,509.533521 1000.50447,509.363187 1000.35514,509.265187 C1000.20581,509.167187 999.911806,509.052854 999.473139,508.922187 C999.351806,508.884854 999.291139,508.847521 999.291139,508.810187 C999.291139,508.772854 999.365806,508.758854 999.515139,508.768187 C999.664473,508.777521 999.916473,508.782187 1000.27114,508.782187 C1000.62581,508.782187 1000.87781,508.747187 1001.02714,508.677187 C1001.17647,508.607187 1001.25114,508.483521 1001.25114,508.306187 L1001.25114,507.676187 Z M908.185601,506.262187 C909.501601,506.355521 910.159601,506.514187 910.159601,506.738187 C910.159601,506.831521 910.061601,506.929521 909.865601,507.032188 L909.865601,508.236188 L910.705601,508.236188 C910.826934,508.068188 910.964601,507.893188 911.118601,507.711187 C911.272601,507.529188 911.382268,507.438188 911.447601,507.438188 C911.550268,507.438188 911.792934,507.603854 912.175601,507.935187 C912.558268,508.266521 912.749601,508.476521 912.749601,508.565187 C912.749601,508.653854 912.646934,508.698188 912.441601,508.698188 L909.865601,508.698188 C909.865601,508.978187 909.874934,509.276854 909.893601,509.594187 L909.907601,510.042188 C909.907601,510.116854 909.881934,510.177521 909.830601,510.224187 C909.779268,510.270854 909.620601,510.326854 909.354601,510.392187 C909.088601,510.457521 908.801601,510.490187 908.493601,510.490187 C908.278934,510.490187 908.171601,510.396854 908.171601,510.210188 L908.213601,508.698188 L906.379601,508.698188 C906.192934,508.698188 906.024934,508.749521 905.875601,508.852188 L905.511601,508.194187 C905.735601,508.222188 905.968934,508.236188 906.211601,508.236188 L908.213601,508.236188 L908.213601,507.508188 C908.213601,507.041521 908.204268,506.626187 908.185601,506.262187 Z M933.299986,507.536187 L932.431986,507.536187 C932.394652,507.601521 932.315319,507.657521 932.193986,507.704187 L932.193986,509.818187 L933.299986,509.818187 L933.299986,507.536187 Z M907.583601,502.636188 C907.900934,502.636188 908.346601,502.664188 908.920601,502.720188 C909.494601,502.776187 909.837601,502.825188 909.949601,502.867188 C910.061601,502.909187 910.117601,502.965188 910.117601,503.035188 C910.117601,503.105187 910.028934,503.196188 909.851601,503.308187 C909.683601,503.401521 909.545934,503.613854 909.438601,503.945187 C909.331268,504.276521 909.240268,504.512187 909.165601,504.652188 L912.875601,504.652188 C913.034268,504.372187 913.185934,504.117854 913.330601,503.889187 C913.475268,503.660521 913.561601,503.532187 913.589601,503.504188 C913.617601,503.476188 913.650268,503.462188 913.687601,503.462188 C913.790268,503.462188 914.091268,503.665188 914.590601,504.071188 C915.089934,504.477188 915.339601,504.752521 915.339601,504.897187 C915.339601,505.041854 915.213601,505.114188 914.961601,505.114188 L910.901601,505.114188 C911.489601,505.776854 912.166268,506.287854 912.931601,506.647187 C913.696934,507.006521 914.616268,507.228187 915.689601,507.312187 C915.801601,507.321521 915.857601,507.344854 915.857601,507.382187 C915.857601,507.419521 915.806268,507.461521 915.703601,507.508188 C915.460934,507.620188 915.227601,507.811521 915.003601,508.082187 C914.779601,508.352854 914.611601,508.637521 914.499601,508.936188 C914.462268,509.010854 914.410934,509.048187 914.345601,509.048187 C914.205601,509.048187 913.797268,508.838188 913.120601,508.418187 C912.443934,507.998187 911.874601,507.512854 911.412601,506.962188 C910.950601,506.411521 910.616934,505.795521 910.411601,505.114188 L908.927601,505.114188 C908.442268,505.926187 907.774934,506.633187 906.925601,507.235187 C906.076268,507.837188 905.173268,508.320188 904.216601,508.684188 C903.259934,509.048187 902.706934,509.230187 902.557601,509.230187 C902.492268,509.230187 902.459601,509.202187 902.459601,509.146187 C902.459601,509.090188 902.520268,509.029521 902.641601,508.964187 C904.844268,507.825521 906.281601,506.542188 906.953601,505.114188 L903.607601,505.114188 C903.420934,505.114188 903.252934,505.165521 903.103601,505.268188 L902.739601,504.610187 C902.963601,504.638188 903.196934,504.652188 903.439601,504.652188 L907.149601,504.652188 C907.382934,504.064188 907.527601,503.392188 907.583601,502.636188 Z M928.679986,503.028187 C928.773319,503.028187 929.055652,503.177521 929.526986,503.476187 C929.998319,503.774854 930.233986,503.975521 930.233986,504.078187 C930.233986,504.180854 930.098652,504.288187 929.827986,504.400187 L929.827986,505.898187 C929.827986,506.392854 929.832652,506.710187 929.841986,506.850187 L929.855986,507.242187 C929.855986,507.382187 929.666986,507.512854 929.288986,507.634187 C928.910986,507.755521 928.642652,507.816187 928.483986,507.816187 C928.381319,507.816187 928.329986,507.746187 928.329986,507.606187 L928.329986,507.340187 L926.971986,507.340187 L926.971986,507.704187 C926.971986,507.797521 926.922986,507.874521 926.824986,507.935187 C926.726986,507.995854 926.544986,508.058854 926.278986,508.124187 C926.012986,508.189521 925.777319,508.222187 925.571986,508.222187 C925.497319,508.222187 925.459986,508.184854 925.459986,508.110187 L925.487986,507.494187 C925.506652,507.214187 925.515986,506.957521 925.515986,506.724187 L925.515986,504.442187 C925.515986,504.031521 925.501986,503.625521 925.473986,503.224187 C926.071319,503.382854 926.561319,503.541521 926.943986,503.700187 L928.189986,503.700187 C928.423319,503.252187 928.586652,503.028187 928.679986,503.028187 Z M1001.25114,505.996187 L999.319139,505.996187 C999.291139,506.481521 999.244473,506.887521 999.179139,507.214187 L1001.25114,507.214187 L1001.25114,505.996187 Z M928.329986,504.162187 L927.167986,504.162187 C927.093319,504.218187 927.027986,504.255521 926.971986,504.274187 L926.971986,506.878187 L928.329986,506.878187 L928.329986,504.162187 Z M969.150755,503.742187 C969.272088,503.742187 969.559088,503.821521 970.011755,503.980187 C970.464421,504.138854 970.819088,504.346521 971.075755,504.603187 C971.332421,504.859854 971.460755,505.170187 971.460755,505.534187 C971.460755,505.870187 971.369755,506.140854 971.187755,506.346187 C971.005755,506.551521 970.786421,506.654187 970.529755,506.654187 C970.273088,506.654187 970.072421,506.586521 969.927755,506.451187 C969.783088,506.315854 969.720088,506.140854 969.738755,505.926187 C969.757421,505.711521 969.766755,505.487521 969.766755,505.254187 C969.766755,505.020854 969.724755,504.799187 969.640755,504.589187 C969.556755,504.379187 969.440088,504.204187 969.290755,504.064187 C969.141421,503.924187 969.066755,503.835521 969.066755,503.798187 C969.066755,503.760854 969.094755,503.742187 969.150755,503.742187 Z M975.478755,504.694187 C974.928088,504.787521 974.312088,504.922854 973.630755,505.100187 L973.630755,505.562187 C973.630755,505.823521 973.665755,505.991521 973.735755,506.066187 C973.805755,506.140854 974.001755,506.178187 974.323755,506.178187 C974.645755,506.178187 974.883755,506.047521 975.037755,505.786187 C975.191755,505.524854 975.338755,505.160854 975.478755,504.694187 Z M1001.25114,504.316187 L999.403139,504.316187 C999.375139,504.381521 999.361139,504.505187 999.361139,504.687187 C999.361139,504.869187 999.351806,505.151521 999.333139,505.534187 L1001.25114,505.534187 L1001.25114,504.316187 Z M993.243139,502.832187 C993.877806,502.832187 994.374806,502.958187 994.734139,503.210187 C995.093473,503.462187 995.273139,503.765521 995.273139,504.120187 C995.273139,504.325521 995.175139,504.509854 994.979139,504.673187 C994.783139,504.836521 994.549806,504.918187 994.279139,504.918187 C993.737806,504.918187 993.485806,504.656854 993.523139,504.134187 C993.532473,504.022187 993.537139,503.898521 993.537139,503.763187 C993.537139,503.627854 993.509139,503.504187 993.453139,503.392187 C993.397139,503.280187 993.233806,503.154187 992.963139,503.014187 C992.879139,502.967521 992.837139,502.925521 992.837139,502.888187 C992.837139,502.850854 992.972473,502.832187 993.243139,502.832187 Z M1074.50234,437.757812 L1084.11172,458.480469 L1093.56484,437.757812 L1101.06484,437.757812 L1101.06484,438.480469 L1100.14687,438.480469 C1099.01406,438.480469 1098.21328,438.81901 1097.74453,439.496094 C1097.45807,439.91276 1097.31484,440.863281 1097.31484,442.347656 L1097.31484,459.652344 C1097.31484,461.279948 1097.49714,462.295573 1097.86172,462.699219 C1098.34349,463.246094 1099.10521,463.519531 1100.14687,463.519531 L1101.06484,463.519531 L1101.06484,464.242188 L1089.81484,464.242188 L1089.81484,463.519531 L1090.75234,463.519531 C1091.88516,463.519531 1092.67943,463.18099 1093.13516,462.503906 C1093.42161,462.08724 1093.56484,461.136719 1093.56484,459.652344 L1093.56484,441.957031 L1083.35,464.242188 L1082.70547,464.242188 L1072.47109,441.957031 L1072.47109,459.652344 C1072.47109,461.279948 1072.64687,462.295573 1072.99844,462.699219 C1073.48021,463.246094 1074.24193,463.519531 1075.28359,463.519531 L1076.22109,463.519531 L1076.22109,464.242188 L1067.00234,464.242188 L1067.00234,463.519531 L1067.93984,463.519531 C1069.05964,463.519531 1069.85391,463.18099 1070.32266,462.503906 C1070.60911,462.08724 1070.75234,461.136719 1070.75234,459.652344 L1070.75234,442.347656 C1070.75234,441.175781 1070.62214,440.329427 1070.36172,439.808594 C1070.17943,439.43099 1069.84414,439.115234 1069.35586,438.861328 C1068.86758,438.607422 1068.08307,438.480469 1067.00234,438.480469 L1067.00234,437.757812 L1074.50234,437.757812 Z M829.716406,437.757812 C833.67474,437.757812 836.685807,438.207031 838.749609,439.105469 C840.813411,440.003906 842.473568,441.501302 843.730078,443.597656 C844.986589,445.69401 845.614844,448.115885 845.614844,450.863281 C845.614844,454.548177 844.495052,457.627604 842.255469,460.101562 C839.742448,462.861979 835.914323,464.242188 830.771094,464.242188 L818.935156,464.242188 L818.935156,463.519531 L819.93125,463.519531 C821.051042,463.519531 821.845313,463.161458 822.314063,462.445312 C822.600521,462.015625 822.74375,461.052083 822.74375,459.554688 L822.74375,442.445312 C822.74375,440.791667 822.561458,439.75651 822.196875,439.339844 C821.689063,438.766927 820.933854,438.480469 819.93125,438.480469 L818.935156,438.480469 L818.935156,437.757812 L829.716406,437.757812 Z M892.270313,437.757812 C895.082813,437.757812 897.15638,437.962891 898.491016,438.373047 C899.825651,438.783203 900.958464,439.538411 901.889453,440.638672 C902.820443,441.738932 903.285938,443.050781 903.285938,444.574219 C903.285938,446.201823 902.755339,447.614583 901.694141,448.8125 C900.632943,450.010417 898.989063,450.856771 896.7625,451.351562 L902.23125,458.949219 C903.48125,460.69401 904.555469,461.852865 905.453906,462.425781 C906.352344,462.998698 907.524219,463.363281 908.969531,463.519531 L908.969531,464.242188 L901.899219,464.242188 L892.934375,451.859375 C892.270313,451.885417 891.729948,451.898438 891.313281,451.898438 C891.14401,451.898438 890.961719,451.895182 890.766406,451.888672 C890.571094,451.882161 890.369271,451.872396 890.160938,451.859375 L890.160938,459.554688 C890.160938,461.221354 890.343229,462.25651 890.707813,462.660156 C891.202604,463.233073 891.944792,463.519531 892.934375,463.519531 L893.969531,463.519531 L893.969531,464.242188 L882.621875,464.242188 L882.621875,463.519531 L883.617969,463.519531 C884.73776,463.519531 885.538542,463.154948 886.020313,462.425781 C886.29375,462.022135 886.430469,461.065104 886.430469,459.554688 L886.430469,442.445312 C886.430469,440.778646 886.248177,439.74349 885.883594,439.339844 C885.375781,438.766927 884.620573,438.480469 883.617969,438.480469 L882.621875,438.480469 L882.621875,437.757812 L892.270313,437.757812 Z M964.648438,437.757812 L964.941406,443.558594 L964.179688,443.558594 C963.90625,442.165365 963.603516,441.208333 963.271484,440.6875 C962.939453,440.166667 962.447917,439.769531 961.796875,439.496094 C961.276042,439.300781 960.358073,439.203125 959.042969,439.203125 L951.777344,439.203125 L951.777344,449.671875 L957.597656,449.671875 C959.108073,449.671875 960.117188,449.44401 960.625,448.988281 C961.302083,448.389323 961.679688,447.334635 961.757813,445.824219 L962.480469,445.824219 L962.480469,455.042969 L961.757813,455.042969 C961.575521,453.753906 961.393229,452.927083 961.210938,452.5625 C960.976563,452.106771 960.592448,451.748698 960.058594,451.488281 C959.52474,451.227865 958.704427,451.097656 957.597656,451.097656 L951.777344,451.097656 L951.777344,459.828125 C951.777344,461 951.829427,461.712891 951.933594,461.966797 C952.03776,462.220703 952.220052,462.422526 952.480469,462.572266 C952.740885,462.722005 953.235677,462.796875 953.964844,462.796875 L958.457031,462.796875 C959.954427,462.796875 961.041667,462.692708 961.71875,462.484375 C962.395833,462.276042 963.046875,461.865885 963.671875,461.253906 C964.479167,460.446615 965.30599,459.229167 966.152344,457.601562 L966.933594,457.601562 L964.648438,464.242188 L944.238281,464.242188 L944.238281,463.519531 L945.175781,463.519531 C945.800781,463.519531 946.393229,463.369792 946.953125,463.070312 C947.369792,462.861979 947.652995,462.549479 947.802734,462.132812 C947.952474,461.716146 948.027344,460.863281 948.027344,459.574219 L948.027344,442.367188 C948.027344,440.6875 947.858073,439.652344 947.519531,439.261719 C947.050781,438.740885 946.269531,438.480469 945.175781,438.480469 L944.238281,438.480469 L944.238281,437.757812 L964.648438,437.757812 Z M1017.31953,437.152344 L1026.53828,459.183594 C1027.28047,460.954427 1027.9543,462.103516 1028.55977,462.630859 C1029.16523,463.158203 1030.00833,463.454427 1031.08906,463.519531 L1031.08906,464.242188 L1020.63984,464.242188 L1020.63984,463.519531 C1021.69453,463.467448 1022.40742,463.291667 1022.77852,462.992188 C1023.14961,462.692708 1023.33516,462.328125 1023.33516,461.898438 C1023.33516,461.325521 1023.07474,460.420573 1022.55391,459.183594 L1020.95234,455.375 L1010.69844,455.375 L1008.90156,459.554688 C1008.45885,460.583333 1008.2375,461.351562 1008.2375,461.859375 C1008.2375,462.263021 1008.42956,462.617839 1008.81367,462.923828 C1009.19779,463.229818 1010.02786,463.428385 1011.30391,463.519531 L1011.30391,464.242188 L1002.96406,464.242188 L1002.96406,463.519531 C1004.07083,463.324219 1004.78698,463.070312 1005.1125,462.757812 C1005.77656,462.132812 1006.51224,460.863281 1007.31953,458.949219 L1016.63594,437.152344 L1017.31953,437.152344 Z M830.497656,439.242188 C829.325781,439.242188 827.991146,439.43099 826.49375,439.808594 L826.49375,462.328125 C828.147396,462.692708 829.534115,462.875 830.653906,462.875 C833.67474,462.875 836.18125,461.813802 838.173438,459.691406 C840.165625,457.56901 841.161719,454.691406 841.161719,451.058594 C841.161719,447.39974 840.165625,444.515625 838.173438,442.40625 C836.18125,440.296875 833.622656,439.242188 830.497656,439.242188 Z M1015.91328,443.226562 L1011.30391,453.929688 L1020.40547,453.929688 L1015.91328,443.226562 Z M893.227344,439.242188 C892.472135,439.242188 891.45,439.365885 890.160938,439.613281 L890.160938,450.628906 C890.408333,450.628906 890.623177,450.632161 890.805469,450.638672 C890.98776,450.645182 891.1375,450.648438 891.254688,450.648438 C893.780729,450.648438 895.685026,450.101562 896.967578,449.007812 C898.25013,447.914062 898.891406,446.520833 898.891406,444.828125 C898.891406,443.174479 898.373828,441.830078 897.338672,440.794922 C896.303516,439.759766 894.933073,439.242188 893.227344,439.242188 Z" id="形状结合"></path>
        </g>
    </g>
</svg>